<svg width="10" height="6" viewBox="0 0 10 6" fill="none" xmlns="http://www.w3.org/2000/svg">
<path d="M0 0.528425C0.0402528 0.440639 0.0680871 0.343861 0.122471 0.266353C0.258217 0.0740822 0.453058 0 0.688151 0C3.48315 0.0021411 6.27772 0.00128466 9.07272 0.00128466C9.16393 0.00128466 9.25471 0.000856442 9.34592 0.00128466C9.62941 0.0021411 9.83581 0.135746 9.94629 0.390538C10.0538 0.638049 9.99553 0.868004 9.81097 1.06499C9.79084 1.0864 9.77029 1.10695 9.74931 1.12751C8.33232 2.54449 6.91534 3.96233 5.49622 5.3776C5.417 5.45639 5.32493 5.53433 5.22387 5.57672C5.00333 5.66879 4.79008 5.63196 4.6038 5.47566C4.56398 5.44226 4.5263 5.40586 4.48947 5.36946C3.09261 3.97261 1.69661 2.57575 0.299326 1.18061C0.167006 1.04828 0.0423939 0.913824 0 0.723693C0 0.658604 0 0.593514 0 0.528425Z" fill="black"/>
</svg>
