<svg width="166" height="18" viewBox="0 0 166 18" fill="none" xmlns="http://www.w3.org/2000/svg">
<path d="M0.0996094 17.6933V1.17955H2.97772V17.6933H0.0996094Z" fill="white"/>
<path d="M13.3023 14.1429L15.8973 15.5465C15.3547 16.2857 14.6745 16.8794 13.8567 17.3277C13.0389 17.7759 12.1464 18 11.1791 18C10.0939 18 9.10311 17.7208 8.20665 17.1625C7.31805 16.6042 6.60639 15.8571 6.07166 14.9214C5.54479 13.9777 5.28135 12.9358 5.28135 11.7955C5.28135 10.9305 5.4347 10.1245 5.74138 9.37746C6.04807 8.62254 6.46877 7.96199 7.0035 7.39581C7.5461 6.82176 8.17519 6.37353 8.89079 6.05111C9.60639 5.7287 10.3692 5.5675 11.1791 5.5675C12.1464 5.5675 13.0389 5.79161 13.8567 6.23984C14.6745 6.68807 15.3547 7.28965 15.8973 8.04456L13.3023 9.43643C13.0271 9.12189 12.7008 8.87811 12.3233 8.70511C11.9537 8.53211 11.5723 8.44561 11.1791 8.44561C10.6129 8.44561 10.1018 8.60288 9.64571 8.91743C9.18961 9.22412 8.82788 9.63303 8.56052 10.1442C8.29315 10.6474 8.15947 11.1979 8.15947 11.7955C8.15947 12.3853 8.29315 12.9358 8.56052 13.4469C8.82788 13.9502 9.18961 14.3552 9.64571 14.6619C10.1018 14.9685 10.6129 15.1219 11.1791 15.1219C11.588 15.1219 11.9773 15.0354 12.3469 14.8624C12.7165 14.6815 13.035 14.4417 13.3023 14.1429Z" fill="white"/>
<path d="M22.8364 18C21.7512 18 20.7604 17.7208 19.864 17.1625C18.9754 16.6042 18.2637 15.8532 17.729 14.9096C17.2021 13.9659 16.9387 12.924 16.9387 11.7837C16.9387 10.9266 17.092 10.1245 17.3987 9.37746C17.7054 8.62254 18.1261 7.96199 18.6608 7.39581C19.2034 6.82176 19.8325 6.37353 20.5481 6.05111C21.2637 5.7287 22.0265 5.5675 22.8364 5.5675C23.7565 5.5675 24.5979 5.76409 25.3607 6.15727C26.1313 6.5426 26.784 7.07339 27.3187 7.74967C27.8535 8.42595 28.2427 9.19659 28.4865 10.0616C28.7303 10.9266 28.7853 11.8309 28.6516 12.7746H20.0291C20.1392 13.2149 20.3201 13.6121 20.5717 13.9659C20.8233 14.3119 21.1418 14.5911 21.5271 14.8034C21.9125 15.0079 22.3489 15.114 22.8364 15.1219C23.3397 15.1298 23.7958 15.0118 24.2047 14.768C24.6215 14.5164 24.9675 14.1782 25.2427 13.7536L28.1798 14.4377C27.7001 15.4836 26.9845 16.3408 26.033 17.0092C25.0815 17.6697 24.016 18 22.8364 18ZM19.9347 10.616H25.7381C25.6516 10.1442 25.4668 9.71953 25.1838 9.34207C24.9085 8.95675 24.5665 8.65007 24.1575 8.42202C23.7486 8.19397 23.3083 8.07995 22.8364 8.07995C22.3646 8.07995 21.9282 8.19397 21.5271 8.42202C21.1261 8.6422 20.784 8.94495 20.5009 9.33028C20.2257 9.70773 20.037 10.1363 19.9347 10.616Z" fill="white"/>
<path d="M36.8932 8.77588H34.6049V17.6933H31.7268V8.77588H29.981V5.89777H31.7268V2.19397H34.6049V5.89777H36.8932V8.77588Z" fill="white"/>
<path d="M43.9394 18C42.8542 18 41.8634 17.7208 40.9669 17.1625C40.0783 16.6042 39.3667 15.8532 38.8319 14.9096C38.3051 13.9659 38.0416 12.924 38.0416 11.7837C38.0416 10.9266 38.195 10.1245 38.5017 9.37746C38.8083 8.62254 39.229 7.96199 39.7638 7.39581C40.3064 6.82176 40.9355 6.37353 41.6511 6.05111C42.3667 5.7287 43.1294 5.5675 43.9394 5.5675C44.8595 5.5675 45.7009 5.76409 46.4636 6.15727C47.2343 6.5426 47.887 7.07339 48.4217 7.74967C48.9564 8.42595 49.3457 9.19659 49.5895 10.0616C49.8332 10.9266 49.8883 11.8309 49.7546 12.7746H41.1321C41.2422 13.2149 41.423 13.6121 41.6747 13.9659C41.9263 14.3119 42.2448 14.5911 42.6301 14.8034C43.0154 15.0079 43.4519 15.114 43.9394 15.1219C44.4427 15.1298 44.8988 15.0118 45.3077 14.768C45.7245 14.5164 46.0705 14.1782 46.3457 13.7536L49.2828 14.4377C48.8031 15.4836 48.0875 16.3408 47.136 17.0092C46.1845 17.6697 45.119 18 43.9394 18ZM41.0377 10.616H46.8411C46.7546 10.1442 46.5698 9.71953 46.2867 9.34207C46.0115 8.95675 45.6694 8.65007 45.2605 8.42202C44.8516 8.19397 44.4112 8.07995 43.9394 8.07995C43.4676 8.07995 43.0311 8.19397 42.6301 8.42202C42.229 8.6422 41.887 8.94495 41.6039 9.33028C41.3287 9.70773 41.1399 10.1363 41.0377 10.616Z" fill="white"/>
<path d="M60.6137 5.89777H63.4918V17.6933H60.6137L60.4839 16.2307C60.1615 16.7575 59.733 17.1861 59.1982 17.5164C58.6714 17.8388 58.0462 18 57.3227 18C56.4499 18 55.632 17.8349 54.8693 17.5046C54.1065 17.1743 53.4341 16.7182 52.8522 16.1363C52.2782 15.5544 51.826 14.882 51.4957 14.1193C51.1733 13.3565 51.0121 12.5387 51.0121 11.6658C51.0121 10.8244 51.1655 10.0341 51.4721 9.29489C51.7867 8.5557 52.2231 7.90695 52.7815 7.34862C53.3398 6.7903 53.9846 6.35387 54.7159 6.03932C55.4472 5.72477 56.2336 5.5675 57.075 5.5675C57.8535 5.5675 58.5495 5.7405 59.1628 6.0865C59.7841 6.4325 60.3109 6.87287 60.7434 7.4076L60.6137 5.89777ZM57.252 15.228C57.8653 15.228 58.4079 15.0747 58.8797 14.768C59.3516 14.4613 59.7212 14.0485 59.9885 13.5295C60.2559 13.0026 60.3896 12.4246 60.3896 11.7955C60.3896 11.1586 60.2559 10.5806 59.9885 10.0616C59.7212 9.53473 59.3476 9.11796 58.868 8.81127C58.3961 8.50459 57.8575 8.35124 57.252 8.35124C56.6465 8.35124 56.0921 8.50852 55.5888 8.82307C55.0934 9.12975 54.6963 9.54259 54.3974 10.0616C54.1065 10.5806 53.961 11.1586 53.961 11.7955C53.961 12.4325 54.1104 13.0105 54.4092 13.5295C54.7081 14.0485 55.1052 14.4613 55.6006 14.768C56.1039 15.0747 56.6543 15.228 57.252 15.228Z" fill="white"/>
<path d="M77.4546 18C76.5424 18 75.6656 17.8585 74.8242 17.5754C73.9906 17.2844 73.2593 16.8716 72.6302 16.3368C72.0011 15.7942 71.549 15.1455 71.2737 14.3906L73.9749 13.3997C74.085 13.7143 74.3091 14.0013 74.6473 14.2608C74.9854 14.5203 75.3982 14.7287 75.8858 14.886C76.3733 15.0433 76.8963 15.1219 77.4546 15.1219C78.0286 15.1219 78.5634 15.0354 79.0588 14.8624C79.5621 14.6815 79.967 14.4338 80.2737 14.1193C80.5804 13.7969 80.7338 13.4233 80.7338 12.9987C80.7338 12.5662 80.5726 12.2123 80.2501 11.9371C79.9277 11.654 79.5149 11.4299 79.0116 11.2647C78.5083 11.0996 77.9893 10.9738 77.4546 10.8873C76.2829 10.7064 75.2331 10.4273 74.3052 10.0498C73.3773 9.67235 72.642 9.14941 72.0994 8.481C71.5647 7.81258 71.2973 6.94758 71.2973 5.88598C71.2973 4.88729 71.5843 4.01442 72.1584 3.26737C72.7324 2.52031 73.4874 1.9384 74.4231 1.52163C75.3589 1.10485 76.3694 0.896462 77.4546 0.896462C78.3589 0.896462 79.2318 1.03801 80.0732 1.3211C80.9146 1.60419 81.6499 2.01704 82.279 2.55963C82.9159 3.10223 83.372 3.75491 83.6473 4.51769L80.9343 5.49672C80.8242 5.18218 80.6001 4.89515 80.2619 4.63565C79.9238 4.37615 79.511 4.17169 79.0234 4.02228C78.5359 3.86501 78.0129 3.78637 77.4546 3.78637C76.8963 3.77851 76.3655 3.86894 75.8622 4.05767C75.3668 4.23853 74.9618 4.48624 74.6473 4.80079C74.3327 5.11533 74.1754 5.47706 74.1754 5.88598C74.1754 6.41284 74.3209 6.80996 74.6119 7.07733C74.9107 7.34469 75.3078 7.54128 75.8032 7.6671C76.2986 7.78506 76.8491 7.89515 77.4546 7.99738C78.5555 8.17038 79.5739 8.46134 80.5096 8.87025C81.4454 9.27916 82.1964 9.82569 82.7626 10.5098C83.3288 11.1861 83.6119 12.0157 83.6119 12.9987C83.6119 13.9974 83.3288 14.8742 82.7626 15.6291C82.1964 16.3761 81.4454 16.9581 80.5096 17.3748C79.5739 17.7916 78.5555 18 77.4546 18Z" fill="white"/>
<path d="M91.0525 18C89.9673 18 88.9764 17.7208 88.08 17.1625C87.1914 16.6042 86.4797 15.8571 85.945 14.9214C85.4181 13.9777 85.1547 12.9358 85.1547 11.7955C85.1547 10.9305 85.308 10.1245 85.6147 9.37746C85.9214 8.62254 86.3421 7.96199 86.8768 7.39581C87.4194 6.82176 88.0485 6.37353 88.7641 6.05111C89.4797 5.7287 90.2425 5.5675 91.0525 5.5675C92.1376 5.5675 93.1245 5.84666 94.0131 6.40498C94.9096 6.9633 95.6213 7.71429 96.1481 8.65793C96.6829 9.60157 96.9502 10.6474 96.9502 11.7955C96.9502 12.6527 96.7969 13.4548 96.4902 14.2018C96.1835 14.9489 95.7589 15.6094 95.2163 16.1835C94.6816 16.7497 94.0564 17.194 93.3408 17.5164C92.6331 17.8388 91.8703 18 91.0525 18ZM91.0525 15.1219C91.6265 15.1219 92.1416 14.9685 92.5977 14.6619C93.0538 14.3552 93.4116 13.9502 93.6711 13.4469C93.9384 12.9436 94.0721 12.3932 94.0721 11.7955C94.0721 11.1822 93.9345 10.6239 93.6593 10.1206C93.3919 9.60944 93.0262 9.20446 92.5623 8.90564C92.1062 8.59895 91.6029 8.44561 91.0525 8.44561C90.4863 8.44561 89.9751 8.59895 89.519 8.90564C89.0629 9.21232 88.7012 9.62123 88.4339 10.1324C88.1665 10.6435 88.0328 11.1979 88.0328 11.7955C88.0328 12.4168 88.1704 12.979 88.4456 13.4823C88.7209 13.9856 89.0865 14.3866 89.5426 14.6855C90.0066 14.9764 90.5099 15.1219 91.0525 15.1219Z" fill="white"/>
<path d="M98.6025 17.6933V0H101.481V17.6933H98.6025Z" fill="white"/>
<path d="M103.844 13.329V5.89777H106.722V12.574C106.722 13.038 106.836 13.4626 107.064 13.848C107.292 14.2254 107.595 14.5282 107.973 14.7562C108.358 14.9764 108.779 15.0865 109.235 15.0865C109.707 15.0865 110.131 14.9764 110.509 14.7562C110.886 14.5282 111.189 14.2254 111.417 13.848C111.645 13.4626 111.759 13.038 111.759 12.574V5.89777H114.637L114.649 17.6933H111.771L111.759 16.6199C111.35 17.0446 110.866 17.3827 110.308 17.6343C109.75 17.8781 109.152 18 108.515 18C107.658 18 106.876 17.7916 106.168 17.3748C105.46 16.9502 104.894 16.3879 104.469 15.6881C104.053 14.9803 103.844 14.194 103.844 13.329Z" fill="white"/>
<path d="M123.332 8.77588H121.044V17.6933H118.166V8.77588H116.42V5.89777H118.166V2.19397H121.044V5.89777H123.332V8.77588Z" fill="white"/>
<path d="M125.281 5.89777H128.159V17.6933H125.281V5.89777ZM126.743 4.37615C126.319 4.37615 125.961 4.23853 125.67 3.9633C125.379 3.68021 125.234 3.32634 125.234 2.9017C125.234 2.48493 125.379 2.13499 125.67 1.8519C125.961 1.56881 126.315 1.42726 126.732 1.42726C127.148 1.42726 127.498 1.56881 127.781 1.8519C128.072 2.13499 128.218 2.48493 128.218 2.9017C128.218 3.32634 128.076 3.68021 127.793 3.9633C127.51 4.23853 127.16 4.37615 126.743 4.37615Z" fill="white"/>
<path d="M135.908 18C134.823 18 133.832 17.7208 132.935 17.1625C132.047 16.6042 131.335 15.8571 130.8 14.9214C130.273 13.9777 130.01 12.9358 130.01 11.7955C130.01 10.9305 130.163 10.1245 130.47 9.37746C130.777 8.62254 131.197 7.96199 131.732 7.39581C132.275 6.82176 132.904 6.37353 133.619 6.05111C134.335 5.7287 135.098 5.5675 135.908 5.5675C136.993 5.5675 137.98 5.84666 138.868 6.40498C139.765 6.9633 140.477 7.71429 141.003 8.65793C141.538 9.60157 141.806 10.6474 141.806 11.7955C141.806 12.6527 141.652 13.4548 141.346 14.2018C141.039 14.9489 140.614 15.6094 140.072 16.1835C139.537 16.7497 138.912 17.194 138.196 17.5164C137.488 17.8388 136.726 18 135.908 18ZM135.908 15.1219C136.482 15.1219 136.997 14.9685 137.453 14.6619C137.909 14.3552 138.267 13.9502 138.526 13.4469C138.794 12.9436 138.927 12.3932 138.927 11.7955C138.927 11.1822 138.79 10.6239 138.515 10.1206C138.247 9.60944 137.882 9.20446 137.418 8.90564C136.962 8.59895 136.458 8.44561 135.908 8.44561C135.342 8.44561 134.83 8.59895 134.374 8.90564C133.918 9.21232 133.557 9.62123 133.289 10.1324C133.022 10.6435 132.888 11.1979 132.888 11.7955C132.888 12.4168 133.026 12.979 133.301 13.4823C133.576 13.9856 133.942 14.3866 134.398 14.6855C134.862 14.9764 135.365 15.1219 135.908 15.1219Z" fill="white"/>
<path d="M154.447 10.2385V17.6933H151.569V10.9934C151.569 10.5295 151.455 10.1088 151.227 9.73132C150.999 9.346 150.692 9.04325 150.307 8.82307C149.929 8.59502 149.508 8.481 149.045 8.481C148.581 8.481 148.156 8.59502 147.771 8.82307C147.393 9.04325 147.09 9.346 146.862 9.73132C146.642 10.1088 146.532 10.5295 146.532 10.9934V17.6933H143.654L143.642 5.89777H146.52L146.532 6.94758C146.933 6.52294 147.413 6.18873 147.971 5.94495C148.529 5.69332 149.131 5.5675 149.776 5.5675C150.633 5.5675 151.415 5.77982 152.123 6.20446C152.831 6.62123 153.393 7.18349 153.81 7.89122C154.235 8.59109 154.447 9.37353 154.447 10.2385Z" fill="white"/>
<path d="M160.277 17.9056C159.663 17.8663 159.07 17.7444 158.495 17.54C157.929 17.3277 157.426 17.0406 156.986 16.6789C156.545 16.3172 156.207 15.8847 155.971 15.3814L158.401 14.3434C158.495 14.5007 158.649 14.6697 158.861 14.8506C159.073 15.0236 159.325 15.1691 159.616 15.287C159.915 15.405 160.241 15.464 160.595 15.464C160.894 15.464 161.177 15.4246 161.444 15.346C161.72 15.2595 161.94 15.1298 162.105 14.9567C162.278 14.7837 162.364 14.5596 162.364 14.2844C162.364 13.9934 162.262 13.7693 162.058 13.6121C161.861 13.4469 161.61 13.325 161.303 13.2464C161.004 13.1599 160.713 13.0813 160.43 13.0105C159.683 12.8611 158.987 12.6291 158.342 12.3145C157.705 12 157.19 11.595 156.797 11.0996C156.412 10.5963 156.219 9.99083 156.219 9.28309C156.219 8.50459 156.423 7.83224 156.832 7.26605C157.249 6.69987 157.788 6.26343 158.448 5.95675C159.117 5.65007 159.836 5.49672 160.607 5.49672C161.543 5.49672 162.4 5.69332 163.178 6.0865C163.965 6.47182 164.586 7.01835 165.042 7.72608L162.765 9.07077C162.655 8.88204 162.502 8.70904 162.305 8.55177C162.109 8.38663 161.885 8.25295 161.633 8.15072C161.381 8.04063 161.118 7.97772 160.843 7.96199C160.489 7.94626 160.167 7.97772 159.876 8.05636C159.585 8.13499 159.349 8.26868 159.168 8.45741C158.995 8.64613 158.908 8.89777 158.908 9.21232C158.908 9.51114 159.026 9.73526 159.262 9.88467C159.498 10.0262 159.781 10.1363 160.111 10.2149C160.45 10.2936 160.772 10.3801 161.079 10.4744C161.771 10.7025 162.419 10.9817 163.025 11.3119C163.638 11.6422 164.13 12.0472 164.499 12.5269C164.869 13.0066 165.046 13.5806 165.03 14.249C165.03 15.0118 164.802 15.6802 164.346 16.2543C163.89 16.8204 163.3 17.2529 162.577 17.5518C161.861 17.8506 161.094 17.9685 160.277 17.9056Z" fill="white"/>
</svg>
