<svg width="290" height="40" viewBox="0 0 290 40" fill="none" xmlns="http://www.w3.org/2000/svg">
<path d="M19.9723 40C31.0026 40 39.9445 31.0457 39.9445 20C39.9445 8.95431 31.0026 0 19.9723 0C8.94189 0 0 8.95431 0 20C0 31.0457 8.94189 40 19.9723 40Z" fill="white"/>
<path fill-rule="evenodd" clip-rule="evenodd" d="M19.0975 22.5742H26.0374C26.6109 22.5742 27.0861 23.0243 27.0861 23.6244V30.5739C27.0861 31.1482 26.6367 31.6241 26.0374 31.6241H19.0975C18.5241 31.6241 18.0488 31.174 18.0488 30.5739V23.5744C18.0488 23.0243 18.4741 22.5742 19.0975 22.5742Z" fill="#00C7F4"/>
<path fill-rule="evenodd" clip-rule="evenodd" d="M22.5214 18.0243L26.7147 12.4493C27.0884 11.9992 27.7134 11.875 28.1629 12.2492L33.7303 16.4483C34.1797 16.8225 34.3037 17.4484 33.93 17.8985L29.7368 23.4236C29.363 23.8737 28.738 23.9979 28.2885 23.6236L22.7212 19.4246C22.2717 19.1003 22.1976 18.4744 22.5214 18.0243Z" fill="#00C7F4"/>
<path fill-rule="evenodd" clip-rule="evenodd" d="M10.8093 21.1243L17.0258 24.2748C17.5494 24.5249 17.7491 25.175 17.4753 25.6493L14.3292 31.8745C14.0795 32.3987 13.4303 32.5988 12.9566 32.3245L6.74008 29.174C6.21653 28.924 6.01677 28.2739 6.29063 27.7996L9.43677 21.5744C9.68646 21.0485 10.2857 20.8485 10.8093 21.1243Z" fill="#00C7F4"/>
<path d="M50.959 9.75025H56.224V32.5003H50.959V9.75025Z" fill="white"/>
<path d="M67.6842 15.9578C70.0458 15.9578 72.0717 16.4561 73.7617 17.4528L72.2992 20.9303C70.7175 20.2153 69.2875 19.8578 68.0092 19.8578C66.5575 19.8578 65.4633 20.2478 64.7267 21.0278C63.99 21.7861 63.6217 22.8369 63.6217 24.1803C63.6217 25.6103 64.0225 26.7694 64.8242 27.6578C65.6258 28.5244 66.7525 28.9578 68.2042 28.9578C69.5258 28.9578 71.0642 28.5461 72.8192 27.7228L74.1192 31.0703C72.2558 32.3269 70.0458 32.9553 67.4892 32.9553C64.8025 32.9553 62.6575 32.1536 61.0542 30.5503C59.4508 28.9469 58.6492 26.9319 58.6492 24.5053C58.6492 22.1219 59.4292 20.1069 60.9892 18.4603C62.5492 16.7919 64.7808 15.9578 67.6842 15.9578Z" fill="white"/>
<path d="M80.3265 25.7403C80.7165 27.9936 82.3524 29.1203 85.234 29.1203C86.7074 29.1203 88.5274 28.8819 90.694 28.4053L91.2465 31.6228C90.5749 31.9478 89.6324 32.2511 88.419 32.5328C87.2057 32.8144 85.949 32.9553 84.649 32.9553C81.789 32.9553 79.514 32.1644 77.824 30.5828C76.1557 28.9794 75.3215 26.9644 75.3215 24.5378C75.3215 22.0461 76.134 19.9986 77.759 18.3953C79.384 16.7703 81.529 15.9578 84.194 15.9578C86.6424 15.9578 88.6249 16.6728 90.1415 18.1028C91.6582 19.5328 92.4165 21.3744 92.4165 23.6278C92.4165 24.3861 92.3624 25.0903 92.254 25.7403H80.3265ZM80.3915 22.5553H87.6065C87.6065 21.7969 87.314 21.1361 86.729 20.5728C86.1657 19.9878 85.2665 19.6953 84.0315 19.6953C82.0815 19.6953 80.8682 20.6486 80.3915 22.5553Z" fill="white"/>
<path d="M102.969 28.7303C103.728 28.7303 104.638 28.6544 105.699 28.5028L106.089 31.9803C104.464 32.5436 102.829 32.8253 101.182 32.8253C99.687 32.8253 98.4953 32.4028 97.607 31.5578C96.7187 30.7128 96.2853 29.3803 96.307 27.5603V20.0853H93.772L93.9995 16.4128H96.307V12.2853L101.214 11.6353V16.4128H106.122L105.862 20.0853H101.214V27.0403C101.214 27.6253 101.344 28.0586 101.604 28.3403C101.864 28.6003 102.319 28.7303 102.969 28.7303Z" fill="white"/>
<path d="M112.243 25.7403C112.633 27.9936 114.269 29.1203 117.151 29.1203C118.624 29.1203 120.444 28.8819 122.611 28.4053L123.163 31.6228C122.491 31.9478 121.549 32.2511 120.336 32.5328C119.122 32.8144 117.866 32.9553 116.566 32.9553C113.706 32.9553 111.431 32.1644 109.741 30.5828C108.072 28.9794 107.238 26.9644 107.238 24.5378C107.238 22.0461 108.051 19.9986 109.676 18.3953C111.301 16.7703 113.446 15.9578 116.111 15.9578C118.559 15.9578 120.541 16.6728 122.058 18.1028C123.575 19.5328 124.333 21.3744 124.333 23.6278C124.333 24.3861 124.279 25.0903 124.171 25.7403H112.243ZM112.308 22.5553H119.523C119.523 21.7969 119.231 21.1361 118.646 20.5728C118.082 19.9878 117.183 19.6953 115.948 19.6953C113.998 19.6953 112.785 20.6486 112.308 22.5553Z" fill="white"/>
<path d="M134.115 15.9578C136.888 15.9578 138.882 16.4886 140.095 17.5503C141.308 18.6119 141.915 20.3561 141.915 22.7828V31.7528C138.99 32.5978 136.271 33.0203 133.758 33.0203C128.363 33.0203 125.665 31.2653 125.665 27.7553C125.665 26.0436 126.304 24.7653 127.583 23.9203C128.883 23.0536 130.692 22.6203 133.01 22.6203C133.898 22.6203 135.231 22.7286 137.008 22.9453V22.5553C137.008 21.4719 136.704 20.7569 136.098 20.4103C135.513 20.0419 134.516 19.8578 133.108 19.8578C131.439 19.8578 129.706 20.0961 127.908 20.5728L127.323 16.9653C129.749 16.2936 132.013 15.9578 134.115 15.9578ZM130.54 27.5928C130.54 28.2428 130.811 28.7194 131.353 29.0228C131.894 29.3044 132.772 29.4453 133.985 29.4453C134.982 29.4453 135.989 29.3803 137.008 29.2503V26.0653C135.708 25.8919 134.603 25.8053 133.693 25.8053C131.591 25.8053 130.54 26.4011 130.54 27.5928Z" fill="white"/>
<path d="M161.21 9.36025C163.572 9.36025 165.868 9.75025 168.1 10.5303L166.8 14.7878C164.482 14.0511 162.629 13.6828 161.242 13.6828C160.137 13.6828 159.292 13.8778 158.707 14.2678C158.122 14.6361 157.83 15.1236 157.83 15.7303C157.83 16.3803 158.22 16.9219 159 17.3553C159.78 17.7886 160.722 18.1678 161.827 18.4928C162.954 18.8178 164.07 19.2078 165.175 19.6628C166.28 20.0961 167.222 20.7894 168.002 21.7428C168.782 22.6961 169.172 23.8878 169.172 25.3178C169.172 27.5494 168.338 29.3803 166.67 30.8103C165.023 32.2403 162.824 32.9553 160.072 32.9553C158.491 32.9553 156.909 32.7386 155.327 32.3053C153.746 31.8503 152.359 31.2544 151.167 30.5178L152.987 26.2928C155.414 27.7444 157.765 28.4703 160.04 28.4703C161.145 28.4703 162.001 28.2428 162.607 27.7878C163.236 27.3328 163.55 26.7803 163.55 26.1303C163.55 25.5453 163.268 25.0361 162.705 24.6028C162.163 24.1694 161.47 23.8336 160.625 23.5953C159.802 23.3353 158.902 23.0103 157.927 22.6203C156.952 22.2303 156.042 21.8186 155.197 21.3853C154.374 20.9519 153.681 20.3128 153.117 19.4678C152.576 18.6011 152.305 17.5936 152.305 16.4453C152.305 14.3219 153.063 12.6103 154.58 11.3103C156.097 10.0103 158.307 9.36025 161.21 9.36025Z" fill="white"/>
<path d="M180.013 32.9553C177.218 32.9553 174.997 32.1644 173.351 30.5828C171.704 28.9794 170.881 26.9428 170.881 24.4728C170.881 22.0028 171.715 19.9661 173.383 18.3628C175.073 16.7594 177.283 15.9578 180.013 15.9578C182.808 15.9578 185.029 16.7594 186.676 18.3628C188.322 19.9661 189.146 22.0028 189.146 24.4728C189.146 26.9211 188.301 28.9469 186.611 30.5503C184.942 32.1536 182.743 32.9553 180.013 32.9553ZM176.926 27.8203C177.684 28.6869 178.713 29.1203 180.013 29.1203C181.313 29.1203 182.331 28.6869 183.068 27.8203C183.826 26.9536 184.206 25.8486 184.206 24.5053C184.206 23.1403 183.837 22.0244 183.101 21.1578C182.364 20.2911 181.335 19.8578 180.013 19.8578C178.691 19.8578 177.662 20.2911 176.926 21.1578C176.189 22.0244 175.821 23.1403 175.821 24.5053C175.821 25.8486 176.189 26.9536 176.926 27.8203Z" fill="white"/>
<path d="M199.611 11.5378C198.896 11.5378 198.398 11.7328 198.116 12.1228C197.835 12.4911 197.694 13.1736 197.694 14.1703V16.4128H202.016L201.724 20.0853H197.694V32.5003H192.786V20.0853H190.251L190.479 16.4128H192.786V13.8453C192.786 9.66359 194.769 7.57275 198.734 7.57275C199.969 7.57275 201.334 7.84359 202.829 8.38525L202.406 11.8953C201.366 11.6569 200.435 11.5378 199.611 11.5378Z" fill="white"/>
<path d="M211.773 28.7303C212.532 28.7303 213.442 28.6544 214.503 28.5028L214.893 31.9803C213.268 32.5436 211.632 32.8253 209.986 32.8253C208.491 32.8253 207.299 32.4028 206.411 31.5578C205.522 30.7128 205.089 29.3803 205.111 27.5603V20.0853H202.576L202.803 16.4128H205.111V12.2853L210.018 11.6353V16.4128H214.926L214.666 20.0853H210.018V27.0403C210.018 27.6253 210.148 28.0586 210.408 28.3403C210.668 28.6003 211.123 28.7303 211.773 28.7303Z" fill="white"/>
<path d="M236.638 16.4128H241.61L233.81 32.6628H232.153L228.61 24.4728L224.775 32.6628H223.085L215.578 16.4128H220.81L224.288 25.2528L226.563 19.8253L225.1 16.4128H229.715L232.998 25.2853L236.638 16.4128Z" fill="white"/>
<path d="M249.743 15.9578C252.516 15.9578 254.509 16.4886 255.723 17.5503C256.936 18.6119 257.543 20.3561 257.543 22.7828V31.7528C254.618 32.5978 251.898 33.0203 249.385 33.0203C243.99 33.0203 241.293 31.2653 241.293 27.7553C241.293 26.0436 241.932 24.7653 243.21 23.9203C244.51 23.0536 246.319 22.6203 248.638 22.6203C249.526 22.6203 250.858 22.7286 252.635 22.9453V22.5553C252.635 21.4719 252.332 20.7569 251.725 20.4103C251.14 20.0419 250.143 19.8578 248.735 19.8578C247.067 19.8578 245.333 20.0961 243.535 20.5728L242.95 16.9653C245.377 16.2936 247.641 15.9578 249.743 15.9578ZM246.168 27.5928C246.168 28.2428 246.438 28.7194 246.98 29.0228C247.522 29.3044 248.399 29.4453 249.613 29.4453C250.609 29.4453 251.617 29.3803 252.635 29.2503V26.0653C251.335 25.8919 250.23 25.8053 249.32 25.8053C247.218 25.8053 246.168 26.4011 246.168 27.5928Z" fill="white"/>
<path d="M268.675 15.9253C270.062 15.9253 271.178 16.0878 272.023 16.4128L271.21 20.2478C269.845 19.9878 268.61 19.9011 267.505 19.9878C267.007 20.0094 266.314 20.1394 265.425 20.3778V32.5003H260.518V17.8753C263.399 16.5753 266.119 15.9253 268.675 15.9253Z" fill="white"/>
<path d="M277.475 25.7403C277.865 27.9936 279.501 29.1203 282.382 29.1203C283.856 29.1203 285.676 28.8819 287.842 28.4053L288.395 31.6228C287.723 31.9478 286.781 32.2511 285.567 32.5328C284.354 32.8144 283.097 32.9553 281.797 32.9553C278.937 32.9553 276.662 32.1644 274.972 30.5828C273.304 28.9794 272.47 26.9644 272.47 24.5378C272.47 22.0461 273.282 19.9986 274.907 18.3953C276.532 16.7703 278.677 15.9578 281.342 15.9578C283.791 15.9578 285.773 16.6728 287.29 18.1028C288.807 19.5328 289.565 21.3744 289.565 23.6278C289.565 24.3861 289.511 25.0903 289.402 25.7403H277.475ZM277.54 22.5553H284.755C284.755 21.7969 284.462 21.1361 283.877 20.5728C283.314 19.9878 282.415 19.6953 281.18 19.6953C279.23 19.6953 278.017 20.6486 277.54 22.5553Z" fill="white"/>
</svg>
