<svg width="374" height="100" viewBox="0 0 374 100" fill="none" xmlns="http://www.w3.org/2000/svg">
<path d="M111.417 56.89V20.1906H120.469V56.89H111.417Z" fill="white"/>
<path d="M150.803 57.8197C146.008 57.8197 141.914 57.0694 138.521 55.5688C135.128 54.0682 132.535 51.8825 130.741 49.0118C128.947 46.1085 128.049 42.618 128.049 38.5403C128.049 34.4626 128.947 30.9884 130.741 28.1177C132.535 25.247 135.128 23.0613 138.521 21.5607C141.914 20.0275 146.008 19.2609 150.803 19.2609C154.033 19.2609 156.968 19.6035 159.611 20.2885C162.286 20.9736 164.569 21.9848 166.461 23.3223C168.353 24.6272 169.805 26.2256 170.816 28.1177L163.183 32.7173C162.335 30.9232 160.85 29.5204 158.73 28.5092C156.61 27.4979 153.967 26.9922 150.803 26.9922C146.432 26.9922 143.023 28.0035 140.576 30.0261C138.162 32.0486 136.955 34.8867 136.955 38.5403C136.955 42.1939 138.162 45.032 140.576 47.0545C143.023 49.0771 146.432 50.0883 150.803 50.0883C153.935 50.0883 156.626 49.5664 158.877 48.5225C161.128 47.4786 162.743 46.027 163.721 44.1675L171.208 48.9629C170.001 50.8223 168.402 52.4208 166.412 53.7583C164.423 55.0631 162.106 56.0744 159.464 56.7921C156.822 57.4771 153.935 57.8197 150.803 57.8197Z" fill="white"/>
<path d="M177.791 56.89V20.1906H186.746V56.89H177.791ZM185.767 41.4762V34.1853H211.359V41.4762H185.767ZM185.767 27.6773V20.1906H213.316V27.6773H185.767ZM185.767 56.89V49.4033H213.805V56.89H185.767Z" fill="white"/>
<path d="M232.809 56.89V20.1906H241.813V56.89H232.809ZM217.395 27.4816V20.1906H257.226V27.4816H217.395Z" fill="white"/>
<path d="M262.228 56.89V20.1906H271.183V56.89H262.228ZM270.204 41.4762V34.1853H295.796V41.4762H270.204ZM270.204 27.6773V20.1906H297.753V27.6773H270.204ZM270.204 56.89V49.4033H298.242V56.89H270.204Z" fill="white"/>
<path d="M300.756 56.89L317.98 20.1906H327.277L310.836 56.89H300.756ZM338.091 56.89L321.601 20.1906H330.898L348.171 56.89H338.091ZM309.466 49.4522V42.6506H339.462V49.4522H309.466Z" fill="white"/>
<path d="M145.836 81.1434C143.538 81.1434 141.213 80.8464 139.676 80.3427V78.8834L139.754 78.8447C141.458 79.4775 143.589 79.8003 145.914 79.8003C149 79.8003 150.473 79.2708 150.473 78.2894C150.473 75.7969 139.637 78.3023 139.637 74.1697C139.637 72.3617 141.755 71.406 145.604 71.406C147.748 71.406 149.775 71.6901 151.48 72.2196V73.6015L151.402 73.6273C149.749 73.0849 147.58 72.7491 145.668 72.7491C142.944 72.7491 141.303 73.2915 141.303 74.0664C141.303 76.4943 152.126 74.0147 152.126 78.2119C152.126 80.2265 150.214 81.1434 145.836 81.1434Z" fill="white"/>
<path d="M169.532 81.1434C165.025 81.1434 162.377 79.3096 162.377 76.2747C162.377 73.2399 165.025 71.406 169.532 71.406C174.039 71.406 176.686 73.2399 176.686 76.2747C176.686 79.3096 174.039 81.1434 169.532 81.1434ZM169.532 79.8003C173.057 79.8003 174.995 78.4572 174.995 76.2747C174.995 74.0922 173.057 72.7491 169.532 72.7491C166.006 72.7491 164.069 74.0922 164.069 76.2747C164.069 78.4572 166.006 79.8003 169.532 79.8003Z" fill="white"/>
<path d="M198.151 76.985H188.956V80.9884H187.315V71.6643H198.732V73.0074H188.956V75.6548H198.151V76.985Z" fill="white"/>
<path d="M221.786 72.9945H216.014V80.9884H214.374V72.9945H208.614V71.6643H221.786V72.9945Z" fill="white"/>
<path d="M234.876 80.9884L230.885 71.716L230.911 71.6643H232.629L235.664 79.0642L238.699 71.6643H240.352L243.386 79.0771L246.434 71.6643H248.139L248.178 71.7031L244.161 80.9884H242.573L239.525 73.5756L236.477 80.9884H234.876Z" fill="white"/>
<path d="M266.022 77.5145L263.103 72.9687L260.133 77.5145H266.022ZM268.243 80.9884L266.848 78.8188H259.293L257.873 80.9884H256.026L262.225 71.6643H264.007L270.09 80.9884H268.243Z" fill="white"/>
<path d="M287.522 73.0074H281.724V75.9777H287.522C289.421 75.9777 290.389 75.5386 290.389 74.4926C290.389 73.4465 289.421 73.0074 287.522 73.0074ZM290.247 80.9884L286.541 77.3208H281.724V80.9884H280.084V71.6643H287.664C290.596 71.6643 292.068 72.7879 292.068 74.4926C292.068 76.0294 290.893 77.0883 288.53 77.282L292.275 80.9368L292.249 80.9884H290.247Z" fill="white"/>
<path d="M302.916 80.9884V71.6643H314.294V72.9945H304.556V75.6678H313.712V76.9721H304.556V79.6583H314.294V80.9884H302.916Z" fill="white"/>
<path d="M37.6036 44.8729C41.1789 46.9353 47.0321 46.9353 50.6073 44.8729L79.029 28.4654C82.6043 26.4029 82.6043 23.0212 79.029 20.9587L50.6073 4.54686C47.0321 2.48438 41.1789 2.48438 37.6036 4.54686L9.18193 20.9543C5.60668 23.0168 5.60668 26.3985 9.18193 28.461L37.6036 44.8685V44.8729Z" fill="#00E0FF"/>
<path d="M41.421 60.1853C41.421 56.0559 38.4966 50.9899 34.9214 48.923L6.49965 32.5156C2.9244 30.4531 0 32.1418 0 36.2711V69.086C0 73.2154 2.9244 78.2814 6.49965 80.3483L34.9214 96.7557C38.4966 98.8182 41.421 97.1295 41.421 93.0002V60.1853Z" fill="#00E0FF"/>
<path d="M53.2858 48.9231C49.7105 50.99 46.7861 56.056 46.7861 60.1853V93.0003C46.7861 97.1296 49.7105 98.8183 53.2858 96.7558L81.7075 80.3484C85.2827 78.2859 88.2115 73.2154 88.2115 69.0861V36.2712C88.2115 32.1418 85.2871 30.4532 81.7075 32.5156L53.2858 48.9231Z" fill="#00E0FF"/>
</svg>
