<svg width="132" height="60" viewBox="0 0 132 60" fill="none" xmlns="http://www.w3.org/2000/svg">
<g clip-path="url(#clip0_3390_6679)">
<path d="M14.7805 0V27.8779L5.06 23.4952L0 21.2129V5.79556L14.7805 0Z" fill="url(#paint0_linear_3390_6679)"/>
<path d="M14.7805 32.1632V59.3515L0 48.7647V25.4982L14.7805 32.1632Z" fill="url(#paint1_linear_3390_6679)"/>
<path d="M29.561 25.5L14.7805 32.1632L0 25.5L5.06 23.4951L14.7805 27.8779L24.501 23.4951L29.561 25.5Z" fill="url(#paint2_linear_3390_6679)"/>
<path d="M14.7812 0V27.8779L24.4999 23.4952L29.5618 21.2129V5.79556L14.7812 0Z" fill="url(#paint3_linear_3390_6679)"/>
<path d="M14.7812 32.1632V59.3515L29.5618 48.7647V25.4982L14.7812 32.1632Z" fill="url(#paint4_linear_3390_6679)"/>
</g>
<path d="M37.6586 10.3057H40.9194V24.7836H37.6586V10.3057Z" fill="white"/>
<path d="M43.5408 19.2891C43.5408 18.4952 43.6662 17.7501 43.917 17.0537C44.1818 16.3434 44.5581 15.7305 45.0458 15.2152C45.5335 14.6859 46.1258 14.2681 46.8225 13.9617C47.5193 13.6553 48.3136 13.5021 49.2055 13.5021C49.7907 13.5021 50.3273 13.5578 50.815 13.6692C51.3027 13.7667 51.7765 13.913 52.2364 14.1079L51.5884 16.5941C51.2958 16.4826 50.9752 16.3851 50.6269 16.3016C50.2785 16.218 49.8883 16.1762 49.4563 16.1762C48.5366 16.1762 47.8468 16.4617 47.3869 17.0328C46.941 17.6038 46.718 18.3559 46.718 19.2891C46.718 20.278 46.9271 21.044 47.3451 21.5872C47.7771 22.1303 48.5226 22.4019 49.5817 22.4019C49.958 22.4019 50.3621 22.3671 50.7941 22.2975C51.2261 22.2278 51.6232 22.1164 51.9856 21.9632L52.4245 24.512C52.0622 24.6652 51.6093 24.7975 51.0658 24.9089C50.5224 25.0204 49.9231 25.0761 49.2682 25.0761C48.2648 25.0761 47.4009 24.9298 46.6762 24.6373C45.9516 24.3309 45.3524 23.9201 44.8786 23.4047C44.4187 22.8894 44.0773 22.2835 43.8543 21.5872C43.6453 20.8768 43.5408 20.1108 43.5408 19.2891Z" fill="white"/>
<path d="M53.4615 19.3726C53.4615 18.3977 53.6078 17.5481 53.9004 16.8239C54.207 16.0857 54.6042 15.4729 55.0919 14.9854C55.5796 14.4979 56.1371 14.1288 56.7641 13.8781C57.4052 13.6274 58.0601 13.5021 58.729 13.5021C60.2898 13.5021 61.523 13.9826 62.4288 14.9436C63.3346 15.8907 63.7875 17.2904 63.7875 19.1428C63.7875 19.3239 63.7805 19.5259 63.7666 19.7487C63.7527 19.9576 63.7387 20.1456 63.7248 20.3128H56.6596C56.7293 20.9534 57.0289 21.4618 57.5585 21.8379C58.088 22.2139 58.7987 22.4019 59.6905 22.4019C60.2619 22.4019 60.8193 22.3532 61.3628 22.2557C61.9202 22.1443 62.3731 22.012 62.7215 21.8588L63.1395 24.3866C62.9723 24.4702 62.7493 24.5538 62.4706 24.6373C62.1919 24.7209 61.8784 24.7906 61.53 24.8463C61.1956 24.9159 60.8332 24.9716 60.4431 25.0134C60.0529 25.0552 59.6627 25.0761 59.2725 25.0761C58.2831 25.0761 57.4191 24.9298 56.6805 24.6373C55.9559 24.3449 55.3497 23.9479 54.862 23.4465C54.3882 22.9312 54.0328 22.3253 53.7959 21.6289C53.573 20.9326 53.4615 20.1805 53.4615 19.3726ZM60.7775 18.1818C60.7636 17.9172 60.7148 17.6595 60.6312 17.4088C60.5615 17.1581 60.4431 16.9353 60.2758 16.7403C60.1225 16.5453 59.9205 16.3851 59.6696 16.2598C59.4327 16.1344 59.1331 16.0718 58.7708 16.0718C58.4224 16.0718 58.1228 16.1344 57.872 16.2598C57.6212 16.3712 57.4121 16.5244 57.2449 16.7194C57.0777 16.9144 56.9453 17.1442 56.8478 17.4088C56.7641 17.6595 56.7014 17.9172 56.6596 18.1818H60.7775Z" fill="white"/>
<path d="M66.0865 11.0578L69.201 10.5564V13.7946H72.9426V16.3851H69.201V20.2501C69.201 20.9047 69.3125 21.427 69.5355 21.817C69.7724 22.2069 70.2392 22.4019 70.936 22.4019C71.2704 22.4019 71.6118 22.3741 71.9602 22.3184C72.3225 22.2487 72.65 22.1582 72.9426 22.0468L73.3816 24.4702C73.0054 24.6234 72.5873 24.7557 72.1274 24.8672C71.6676 24.9786 71.1032 25.0343 70.4343 25.0343C69.5842 25.0343 68.8805 24.9229 68.3231 24.7C67.7657 24.4632 67.3198 24.1429 66.9853 23.739C66.6509 23.3212 66.414 22.8198 66.2746 22.2348C66.1492 21.6498 66.0865 21.0022 66.0865 20.2919V11.0578Z" fill="white"/>
<path d="M74.5481 19.3726C74.5481 18.3977 74.6944 17.5481 74.987 16.8239C75.2936 16.0857 75.6908 15.4729 76.1785 14.9854C76.6662 14.4979 77.2237 14.1288 77.8507 13.8781C78.4918 13.6274 79.1467 13.5021 79.8156 13.5021C81.3764 13.5021 82.6096 13.9826 83.5154 14.9436C84.4212 15.8907 84.8741 17.2904 84.8741 19.1428C84.8741 19.3239 84.8671 19.5259 84.8532 19.7487C84.8393 19.9576 84.8253 20.1456 84.8114 20.3128H77.7462C77.8159 20.9534 78.1155 21.4618 78.645 21.8379C79.1746 22.2139 79.8853 22.4019 80.7771 22.4019C81.3485 22.4019 81.9059 22.3532 82.4494 22.2557C83.0068 22.1443 83.4597 22.012 83.8081 21.8588L84.2261 24.3866C84.0589 24.4702 83.8359 24.5538 83.5572 24.6373C83.2785 24.7209 82.965 24.7906 82.6166 24.8463C82.2821 24.9159 81.9198 24.9716 81.5296 25.0134C81.1395 25.0552 80.7493 25.0761 80.3591 25.0761C79.3697 25.0761 78.5057 24.9298 77.7671 24.6373C77.0425 24.3449 76.4363 23.9479 75.9486 23.4465C75.4748 22.9312 75.1194 22.3253 74.8825 21.6289C74.6596 20.9326 74.5481 20.1805 74.5481 19.3726ZM81.8641 18.1818C81.8502 17.9172 81.8014 17.6595 81.7178 17.4088C81.6481 17.1581 81.5296 16.9353 81.3624 16.7403C81.2091 16.5453 81.0071 16.3851 80.7562 16.2598C80.5193 16.1344 80.2197 16.0718 79.8574 16.0718C79.509 16.0718 79.2094 16.1344 78.9586 16.2598C78.7078 16.3712 78.4987 16.5244 78.3315 16.7194C78.1643 16.9144 78.0319 17.1442 77.9343 17.4088C77.8507 17.6595 77.788 17.9172 77.7462 18.1818H81.8641Z" fill="white"/>
<path d="M91.4791 22.6109C91.7857 22.6109 92.0783 22.6039 92.357 22.59C92.6357 22.576 92.8587 22.5551 93.0259 22.5273V20.1665C92.9005 20.1387 92.7124 20.1108 92.4615 20.083C92.2107 20.0551 91.9808 20.0412 91.7717 20.0412C91.4791 20.0412 91.2004 20.0621 90.9356 20.1039C90.6848 20.1317 90.4618 20.1944 90.2667 20.2919C90.0716 20.3894 89.9183 20.5217 89.8069 20.6888C89.6954 20.856 89.6396 21.0649 89.6396 21.3156C89.6396 21.803 89.7999 22.1443 90.1204 22.3393C90.4548 22.5203 90.9077 22.6109 91.4791 22.6109ZM91.2282 13.5021C92.148 13.5021 92.9144 13.6065 93.5276 13.8155C94.1407 14.0244 94.6285 14.3238 94.9908 14.7138C95.367 15.1038 95.6318 15.5773 95.7851 16.1344C95.9384 16.6915 96.015 17.3113 96.015 17.9938V24.4702C95.5691 24.5677 94.949 24.6791 94.1547 24.8045C93.3603 24.9438 92.3988 25.0134 91.2701 25.0134C90.5594 25.0134 89.9114 24.9507 89.3261 24.8254C88.7547 24.7 88.26 24.4981 87.842 24.2195C87.4239 23.927 87.1034 23.551 86.8805 23.0914C86.6575 22.6317 86.546 22.0677 86.546 21.3991C86.546 20.7585 86.6714 20.2153 86.9223 19.7696C87.187 19.3239 87.5354 18.9687 87.9674 18.7041C88.3994 18.4395 88.8941 18.2515 89.4515 18.14C90.0089 18.0147 90.5872 17.952 91.1864 17.952C91.5906 17.952 91.9459 17.9729 92.2525 18.0147C92.573 18.0425 92.8308 18.0843 93.0259 18.14V17.8476C93.0259 17.3183 92.8656 16.8935 92.5451 16.5732C92.2246 16.2528 91.6672 16.0927 90.8729 16.0927C90.3434 16.0927 89.8208 16.1344 89.3052 16.218C88.7896 16.2876 88.3437 16.3921 87.9674 16.5314L87.5702 14.0244C87.7514 13.9687 87.9744 13.913 88.2391 13.8572C88.5178 13.7876 88.8175 13.7319 89.138 13.6901C89.4585 13.6344 89.7929 13.5926 90.1413 13.5648C90.5036 13.523 90.8659 13.5021 91.2282 13.5021Z" fill="white"/>
<path d="M41.6092 42.7539C42.0691 42.7539 42.4453 42.7191 42.738 42.6494C43.0446 42.5659 43.2884 42.4614 43.4696 42.3361C43.6507 42.1968 43.7762 42.0366 43.8458 41.8556C43.9155 41.6745 43.9504 41.4725 43.9504 41.2497C43.9504 40.7762 43.7274 40.3862 43.2815 40.0798C42.8355 39.7594 42.0691 39.4182 40.9821 39.0561C40.5083 38.8889 40.0345 38.7009 39.5608 38.492C39.087 38.2692 38.6619 37.9976 38.2857 37.6772C37.9094 37.343 37.6028 36.946 37.3659 36.4864C37.129 36.0129 37.0106 35.4418 37.0106 34.7733C37.0106 34.1047 37.136 33.5059 37.3869 32.9766C37.6377 32.4334 37.993 31.9738 38.4529 31.5977C38.9128 31.2217 39.4702 30.9362 40.1251 30.7412C40.7801 30.5323 41.5187 30.4278 42.3408 30.4278C43.3163 30.4278 44.1594 30.5323 44.8701 30.7412C45.5808 30.9501 46.1661 31.1799 46.6259 31.4306L45.6853 34.0003C45.2812 33.7914 44.8283 33.6103 44.3266 33.4571C43.8389 33.29 43.2466 33.2064 42.5499 33.2064C41.7695 33.2064 41.2051 33.3178 40.8567 33.5407C40.5223 33.7496 40.3551 34.0769 40.3551 34.5226C40.3551 34.7872 40.4178 35.0101 40.5432 35.1911C40.6686 35.3722 40.8428 35.5393 41.0658 35.6925C41.3027 35.8318 41.5674 35.9641 41.8601 36.0895C42.1666 36.2009 42.5011 36.3193 42.8634 36.4446C43.6159 36.7232 44.2709 37.0017 44.8283 37.2803C45.3857 37.5449 45.8455 37.8583 46.2079 38.2204C46.5841 38.5825 46.8628 39.0073 47.044 39.4948C47.2251 39.9823 47.3157 40.5742 47.3157 41.2706C47.3157 42.6216 46.8419 43.6731 45.8943 44.4252C44.9467 45.1634 43.5184 45.5325 41.6092 45.5325C40.9682 45.5325 40.3899 45.4907 39.8743 45.4071C39.3587 45.3375 38.8988 45.247 38.4947 45.1355C38.1045 45.0241 37.7631 44.9057 37.4705 44.7804C37.1918 44.655 36.9549 44.5367 36.7598 44.4252L37.6795 41.8347C38.1115 42.0714 38.641 42.2873 39.2681 42.4823C39.9091 42.6634 40.6895 42.7539 41.6092 42.7539Z" fill="white"/>
<path d="M59.8999 39.7246C59.8999 40.5881 59.7745 41.382 59.5236 42.1063C59.2728 42.8166 58.9105 43.4294 58.4367 43.9447C57.9629 44.4461 57.3916 44.8361 56.7227 45.1147C56.0677 45.3932 55.3291 45.5325 54.507 45.5325C53.6987 45.5325 52.9601 45.3932 52.2913 45.1147C51.6363 44.8361 51.0719 44.4461 50.5981 43.9447C50.1243 43.4294 49.755 42.8166 49.4903 42.1063C49.2255 41.382 49.0931 40.5881 49.0931 39.7246C49.0931 38.8611 49.2255 38.0742 49.4903 37.3638C49.769 36.6535 50.1452 36.0477 50.619 35.5463C51.1068 35.0449 51.6781 34.6549 52.3331 34.3763C53.002 34.0978 53.7266 33.9585 54.507 33.9585C55.3013 33.9585 56.0259 34.0978 56.6809 34.3763C57.3498 34.6549 57.9211 35.0449 58.3949 35.5463C58.8687 36.0477 59.238 36.6535 59.5027 37.3638C59.7675 38.0742 59.8999 38.8611 59.8999 39.7246ZM56.7227 39.7246C56.7227 38.7636 56.5276 38.0115 56.1374 37.4683C55.7611 36.9112 55.2177 36.6326 54.507 36.6326C53.7963 36.6326 53.2458 36.9112 52.8556 37.4683C52.4654 38.0115 52.2704 38.7636 52.2704 39.7246C52.2704 40.6856 52.4654 41.4517 52.8556 42.0227C53.2458 42.5798 53.7963 42.8584 54.507 42.8584C55.2177 42.8584 55.7611 42.5798 56.1374 42.0227C56.5276 41.4517 56.7227 40.6856 56.7227 39.7246Z" fill="white"/>
<path d="M67.0784 29.0281C67.6637 29.0281 68.2002 29.0907 68.6879 29.2161C69.1757 29.3275 69.5519 29.4389 69.8167 29.5504L69.2105 32.0365C68.9318 31.9111 68.6252 31.8206 68.2908 31.7649C67.9703 31.6952 67.6707 31.6604 67.392 31.6604C67.0157 31.6604 66.6952 31.7161 66.4304 31.8276C66.1796 31.9251 65.9775 32.0643 65.8242 32.2454C65.6849 32.4265 65.5804 32.6423 65.5107 32.893C65.455 33.1437 65.4271 33.4153 65.4271 33.7078V34.251H69.2732V36.8416H65.4271V45.24H62.3126V33.666C62.3126 32.2454 62.7097 31.1172 63.504 30.2816C64.3123 29.4459 65.5037 29.0281 67.0784 29.0281Z" fill="white"/>
<path d="M71.0264 31.5142L74.141 31.0128V34.251H77.8826V36.8416H74.141V40.7065C74.141 41.3611 74.2524 41.8834 74.4754 42.2734C74.7123 42.6634 75.1791 42.8584 75.8759 42.8584C76.2104 42.8584 76.5518 42.8305 76.9001 42.7748C77.2625 42.7052 77.5899 42.6146 77.8826 42.5032L78.3215 44.9266C77.9453 45.0798 77.5272 45.2122 77.0674 45.3236C76.6075 45.435 76.0431 45.4907 75.3742 45.4907C74.5242 45.4907 73.8205 45.3793 73.263 45.1564C72.7056 44.9197 72.2597 44.5993 71.9253 44.1954C71.5908 43.7776 71.3539 43.2762 71.2146 42.6912C71.0891 42.1063 71.0264 41.4586 71.0264 40.7483V31.5142Z" fill="white"/>
<path d="M87.3119 38.9307C87.0332 39.9892 86.7336 41.0408 86.4131 42.0854C86.1065 43.1299 85.779 44.1815 85.4306 45.24H83.0059C82.7551 44.655 82.4833 43.9586 82.1907 43.1508C81.8981 42.343 81.5915 41.4656 81.271 40.5185C80.9644 39.5575 80.6439 38.5477 80.3094 37.4892C79.9889 36.4168 79.6754 35.3374 79.3688 34.251H82.6506C82.762 34.7524 82.8805 35.3025 83.0059 35.9014C83.1453 36.4864 83.2846 37.0923 83.424 37.719C83.5773 38.3458 83.7305 38.9795 83.8838 39.6201C84.0511 40.2469 84.2183 40.8528 84.3855 41.4377C84.5667 40.8249 84.7408 40.1982 84.9081 39.5575C85.0892 38.9168 85.2565 38.29 85.4097 37.6772C85.577 37.0505 85.7302 36.4516 85.8696 35.8805C86.0229 35.2956 86.1553 34.7524 86.2668 34.251H88.5243C88.6357 34.7524 88.7612 35.2956 88.9005 35.8805C89.0399 36.4516 89.1862 37.0505 89.3395 37.6772C89.4928 38.29 89.653 38.9168 89.8202 39.5575C89.9875 40.1982 90.1617 40.8249 90.3428 41.4377C90.51 40.8528 90.6773 40.2469 90.8445 39.6201C91.0117 38.9795 91.165 38.3458 91.3043 37.719C91.4576 37.0923 91.597 36.4864 91.7224 35.9014C91.8618 35.3025 91.9872 34.7524 92.0987 34.251H95.3386C95.032 35.3374 94.7115 36.4168 94.3771 37.4892C94.0566 38.5477 93.7361 39.5575 93.4155 40.5185C93.109 41.4656 92.8024 42.343 92.4958 43.1508C92.2032 43.9586 91.9314 44.655 91.6806 45.24H89.2559C88.9075 44.1815 88.5661 43.1299 88.2316 42.0854C87.8972 41.0408 87.5906 39.9892 87.3119 38.9307Z" fill="white"/>
<path d="M101.012 43.0673C101.319 43.0673 101.611 43.0603 101.89 43.0464C102.169 43.0325 102.392 43.0116 102.559 42.9837V40.6229C102.433 40.5951 102.245 40.5672 101.994 40.5394C101.744 40.5115 101.514 40.4976 101.305 40.4976C101.012 40.4976 100.733 40.5185 100.468 40.5603C100.218 40.5881 99.9947 40.6508 99.7996 40.7483C99.6045 40.8458 99.4512 40.9781 99.3397 41.1452C99.2282 41.3124 99.1725 41.5213 99.1725 41.772C99.1725 42.2595 99.3327 42.6007 99.6533 42.7957C99.9877 42.9767 100.441 43.0673 101.012 43.0673ZM100.761 33.9585C101.681 33.9585 102.447 34.063 103.06 34.2719C103.674 34.4808 104.161 34.7802 104.524 35.1702C104.9 35.5602 105.165 36.0337 105.318 36.5909C105.471 37.148 105.548 37.7678 105.548 38.4502V44.9266C105.102 45.0241 104.482 45.1355 103.688 45.2609C102.893 45.4002 101.932 45.4698 100.803 45.4698C100.092 45.4698 99.4442 45.4071 98.8589 45.2818C98.2876 45.1564 97.7929 44.9545 97.3748 44.6759C96.9568 44.3834 96.6363 44.0074 96.4133 43.5478C96.1903 43.0882 96.0789 42.5241 96.0789 41.8556C96.0789 41.2149 96.2043 40.6717 96.4551 40.226C96.7199 39.7803 97.0683 39.4252 97.5003 39.1605C97.9322 38.8959 98.427 38.7079 98.9844 38.5965C99.5418 38.4711 100.12 38.4084 100.719 38.4084C101.123 38.4084 101.479 38.4293 101.785 38.4711C102.106 38.499 102.364 38.5407 102.559 38.5965V38.304C102.559 37.7747 102.398 37.3499 102.078 37.0296C101.757 36.7092 101.2 36.5491 100.406 36.5491C99.8762 36.5491 99.3536 36.5909 98.838 36.6744C98.3224 36.7441 97.8765 36.8485 97.5003 36.9878L97.1031 34.4808C97.2843 34.4251 97.5072 34.3694 97.772 34.3137C98.0507 34.244 98.3503 34.1883 98.6708 34.1465C98.9913 34.0908 99.3258 34.049 99.6742 34.0212C100.036 33.9794 100.399 33.9585 100.761 33.9585Z" fill="white"/>
<path d="M114.99 37.0087C114.712 36.939 114.384 36.8694 114.008 36.7998C113.632 36.7162 113.228 36.6744 112.796 36.6744C112.601 36.6744 112.364 36.6953 112.085 36.7371C111.82 36.765 111.618 36.7998 111.479 36.8416V45.24H108.364V34.836C108.922 34.641 109.577 34.4599 110.329 34.2928C111.096 34.1117 111.946 34.0212 112.879 34.0212C113.046 34.0212 113.249 34.0351 113.485 34.063C113.722 34.0769 113.959 34.1047 114.196 34.1465C114.433 34.1744 114.67 34.2162 114.907 34.2719C115.144 34.3137 115.346 34.3694 115.513 34.439L114.99 37.0087Z" fill="white"/>
<path d="M116.456 39.8291C116.456 38.8541 116.602 38.0045 116.895 37.2803C117.201 36.5421 117.599 35.9293 118.086 35.4418C118.574 34.9543 119.131 34.5853 119.759 34.3346C120.4 34.0839 121.055 33.9585 121.723 33.9585C123.284 33.9585 124.517 34.439 125.423 35.4C126.329 36.3471 126.782 37.7469 126.782 39.5993C126.782 39.7803 126.775 39.9823 126.761 40.2051C126.747 40.414 126.733 40.6021 126.719 40.7692H119.654C119.724 41.4099 120.023 41.9182 120.553 42.2943C121.082 42.6703 121.793 42.8584 122.685 42.8584C123.256 42.8584 123.814 42.8096 124.357 42.7121C124.915 42.6007 125.367 42.4684 125.716 42.3152L126.134 44.8431C125.967 44.9266 125.744 45.0102 125.465 45.0938C125.186 45.1773 124.873 45.247 124.524 45.3027C124.19 45.3723 123.828 45.428 123.437 45.4698C123.047 45.5116 122.657 45.5325 122.267 45.5325C121.277 45.5325 120.414 45.3862 119.675 45.0938C118.95 44.8013 118.344 44.4043 117.856 43.9029C117.383 43.3876 117.027 42.7818 116.79 42.0854C116.567 41.389 116.456 40.6369 116.456 39.8291ZM123.772 38.6382C123.758 38.3736 123.709 38.1159 123.626 37.8652C123.556 37.6145 123.437 37.3917 123.27 37.1967C123.117 37.0017 122.915 36.8416 122.664 36.7162C122.427 36.5909 122.128 36.5282 121.765 36.5282C121.417 36.5282 121.117 36.5909 120.866 36.7162C120.616 36.8276 120.407 36.9808 120.239 37.1758C120.072 37.3708 119.94 37.6006 119.842 37.8652C119.759 38.1159 119.696 38.3736 119.654 38.6382H123.772Z" fill="white"/>
<defs>
<linearGradient id="paint0_linear_3390_6679" x1="0" y1="13.939" x2="14.7805" y2="13.939" gradientUnits="userSpaceOnUse">
<stop stop-color="#026DFB"/>
<stop offset="0.47" stop-color="#03A8FA"/>
<stop offset="0.99" stop-color="#05DCFF"/>
</linearGradient>
<linearGradient id="paint1_linear_3390_6679" x1="0" y1="42.4258" x2="14.7805" y2="42.4258" gradientUnits="userSpaceOnUse">
<stop stop-color="#026DFB"/>
<stop offset="0.47" stop-color="#03A8FA"/>
<stop offset="0.99" stop-color="#05DCFF"/>
</linearGradient>
<linearGradient id="paint2_linear_3390_6679" x1="29.561" y1="27.8291" x2="0" y2="27.8291" gradientUnits="userSpaceOnUse">
<stop stop-color="#026DFB"/>
<stop offset="0.47" stop-color="#03A8FA"/>
<stop offset="0.99" stop-color="#05DCFF"/>
</linearGradient>
<linearGradient id="paint3_linear_3390_6679" x1="14.7812" y1="13.939" x2="29.5618" y2="13.939" gradientUnits="userSpaceOnUse">
<stop stop-color="#026DFB"/>
<stop offset="0.47" stop-color="#03A8FA"/>
<stop offset="0.99" stop-color="#05DCFF"/>
</linearGradient>
<linearGradient id="paint4_linear_3390_6679" x1="14.7812" y1="42.4258" x2="29.5618" y2="42.4258" gradientUnits="userSpaceOnUse">
<stop stop-color="#026DFB"/>
<stop offset="0.47" stop-color="#03A8FA"/>
<stop offset="0.99" stop-color="#05DCFF"/>
</linearGradient>
<clipPath id="clip0_3390_6679">
<rect width="29.561" height="59.3516" fill="white"/>
</clipPath>
</defs>
</svg>
