<svg width="234" height="32" viewBox="0 0 234 32" fill="none" xmlns="http://www.w3.org/2000/svg">
<path d="M15.9778 32C24.8021 32 31.9556 24.8366 31.9556 16C31.9556 7.16344 24.8021 0 15.9778 0C7.15351 0 0 7.16344 0 16C0 24.8366 7.15351 32 15.9778 32Z" fill="white"/>
<path fill-rule="evenodd" clip-rule="evenodd" d="M15.2784 18.0598H20.8303C21.2891 18.0598 21.6693 18.4199 21.6693 18.8999V24.4596C21.6693 24.919 21.3097 25.2997 20.8303 25.2997H15.2784C14.8196 25.2997 14.4395 24.9396 14.4395 24.4596V18.8599C14.4395 18.4199 14.7797 18.0598 15.2784 18.0598Z" fill="#00C7F4"/>
<path fill-rule="evenodd" clip-rule="evenodd" d="M18.0168 14.4193L21.3713 9.95919C21.6703 9.59913 22.1704 9.49976 22.5299 9.79916L26.9838 13.1584C27.3434 13.4578 27.4426 13.9585 27.1436 14.3186L23.789 18.7387C23.49 19.0987 22.99 19.1981 22.6304 18.8987L18.1766 15.5394C17.817 15.28 17.7577 14.7793 18.0168 14.4193Z" fill="#00C7F4"/>
<path fill-rule="evenodd" clip-rule="evenodd" d="M8.64664 16.8996L13.6199 19.42C14.0387 19.6201 14.1985 20.1401 13.9795 20.5196L11.4625 25.4997C11.2628 25.9191 10.7434 26.0792 10.3645 25.8598L5.39128 23.3394C4.97244 23.1393 4.81263 22.6192 5.03172 22.2398L7.54863 17.2597C7.74839 16.839 8.2278 16.6789 8.64664 16.8996Z" fill="#00C7F4"/>
<path d="M40.7676 7.79997H44.9796V26H40.7676V7.79997Z" fill="white"/>
<path d="M54.1277 12.766C56.0171 12.766 57.6377 13.1646 58.9897 13.962L57.8197 16.744C56.5544 16.172 55.4104 15.886 54.3877 15.886C53.2264 15.886 52.3511 16.198 51.7617 16.822C51.1724 17.4286 50.8777 18.2693 50.8777 19.344C50.8777 20.488 51.1984 21.4153 51.8397 22.126C52.4811 22.8193 53.3824 23.166 54.5437 23.166C55.6011 23.166 56.8317 22.8366 58.2357 22.178L59.2757 24.856C57.7851 25.8613 56.0171 26.364 53.9717 26.364C51.8224 26.364 50.1064 25.7226 48.8237 24.44C47.5411 23.1573 46.8997 21.5453 46.8997 19.604C46.8997 17.6973 47.5237 16.0853 48.7717 14.768C50.0197 13.4333 51.8051 12.766 54.1277 12.766Z" fill="white"/>
<path d="M64.2216 20.592C64.5336 22.3946 65.8423 23.296 68.1476 23.296C69.3263 23.296 70.7823 23.1053 72.5156 22.724L72.9576 25.298C72.4203 25.558 71.6663 25.8006 70.6956 26.026C69.7249 26.2513 68.7196 26.364 67.6796 26.364C65.3916 26.364 63.5716 25.7313 62.2196 24.466C60.8849 23.1833 60.2176 21.5713 60.2176 19.63C60.2176 17.6366 60.8676 15.9986 62.1676 14.716C63.4676 13.416 65.1836 12.766 67.3156 12.766C69.2743 12.766 70.8603 13.338 72.0736 14.482C73.2869 15.626 73.8936 17.0993 73.8936 18.902C73.8936 19.5086 73.8503 20.072 73.7636 20.592H64.2216ZM64.2736 18.044H70.0456C70.0456 17.4373 69.8116 16.9086 69.3436 16.458C68.8929 15.99 68.1736 15.756 67.1856 15.756C65.6256 15.756 64.6549 16.5186 64.2736 18.044Z" fill="white"/>
<path d="M82.316 22.984C82.9226 22.984 83.6507 22.9233 84.5 22.802L84.812 25.584C83.512 26.0346 82.2033 26.26 80.886 26.26C79.69 26.26 78.7366 25.922 78.026 25.246C77.3153 24.57 76.9687 23.504 76.986 22.048V16.068H74.958L75.14 13.13H76.986V9.82797L80.912 9.30797V13.13H84.838L84.63 16.068H80.912V21.632C80.912 22.1 81.016 22.4466 81.224 22.672C81.432 22.88 81.796 22.984 82.316 22.984Z" fill="white"/>
<path d="M89.7148 20.592C90.0268 22.3946 91.3355 23.296 93.6408 23.296C94.8195 23.296 96.2755 23.1053 98.0088 22.724L98.4508 25.298C97.9135 25.558 97.1595 25.8006 96.1888 26.026C95.2181 26.2513 94.2128 26.364 93.1728 26.364C90.8848 26.364 89.0648 25.7313 87.7128 24.466C86.3781 23.1833 85.7108 21.5713 85.7108 19.63C85.7108 17.6366 86.3608 15.9986 87.6608 14.716C88.9608 13.416 90.6768 12.766 92.8088 12.766C94.7675 12.766 96.3535 13.338 97.5668 14.482C98.7801 15.626 99.3868 17.0993 99.3868 18.902C99.3868 19.5086 99.3435 20.072 99.2568 20.592H89.7148ZM89.7668 18.044H95.5388C95.5388 17.4373 95.3048 16.9086 94.8368 16.458C94.3861 15.99 93.6668 15.756 92.6788 15.756C91.1188 15.756 90.1481 16.5186 89.7668 18.044Z" fill="white"/>
<path d="M107.193 12.766C109.411 12.766 111.006 13.1906 111.977 14.04C112.947 14.8893 113.433 16.2846 113.433 18.226V25.402C111.093 26.078 108.917 26.416 106.907 26.416C102.591 26.416 100.433 25.012 100.433 22.204C100.433 20.8346 100.944 19.812 101.967 19.136C103.007 18.4426 104.454 18.096 106.309 18.096C107.019 18.096 108.085 18.1826 109.507 18.356V18.044C109.507 17.1773 109.264 16.6053 108.779 16.328C108.311 16.0333 107.513 15.886 106.387 15.886C105.052 15.886 103.665 16.0766 102.227 16.458L101.759 13.572C103.7 13.0346 105.511 12.766 107.193 12.766ZM104.333 22.074C104.333 22.594 104.549 22.9753 104.982 23.218C105.416 23.4433 106.118 23.556 107.089 23.556C107.886 23.556 108.692 23.504 109.507 23.4V20.852C108.467 20.7133 107.582 20.644 106.854 20.644C105.173 20.644 104.333 21.1206 104.333 22.074Z" fill="white"/>
<path d="M128.828 7.48797C130.718 7.48797 132.555 7.79997 134.34 8.42397L133.3 11.83C131.446 11.2406 129.964 10.946 128.854 10.946C127.97 10.946 127.294 11.102 126.826 11.414C126.358 11.7086 126.124 12.0986 126.124 12.584C126.124 13.104 126.436 13.5373 127.06 13.884C127.684 14.2306 128.438 14.534 129.322 14.794C130.224 15.054 131.116 15.366 132 15.73C132.884 16.0766 133.638 16.6313 134.262 17.394C134.886 18.1566 135.198 19.11 135.198 20.254C135.198 22.0393 134.531 23.504 133.196 24.648C131.879 25.792 130.12 26.364 127.918 26.364C126.653 26.364 125.388 26.1906 124.122 25.844C122.857 25.48 121.748 25.0033 120.794 24.414L122.25 21.034C124.192 22.1953 126.072 22.776 127.892 22.776C128.776 22.776 129.461 22.594 129.946 22.23C130.449 21.866 130.7 21.424 130.7 20.904C130.7 20.436 130.475 20.0286 130.024 19.682C129.591 19.3353 129.036 19.0666 128.36 18.876C127.702 18.668 126.982 18.408 126.202 18.096C125.422 17.784 124.694 17.4546 124.018 17.108C123.36 16.7613 122.805 16.25 122.354 15.574C121.921 14.8806 121.704 14.0746 121.704 13.156C121.704 11.4573 122.311 10.088 123.524 9.04797C124.738 8.00797 126.506 7.48797 128.828 7.48797Z" fill="white"/>
<path d="M143.851 26.364C141.615 26.364 139.838 25.7313 138.521 24.466C137.204 23.1833 136.545 21.554 136.545 19.578C136.545 17.602 137.212 15.9726 138.547 14.69C139.899 13.4073 141.667 12.766 143.851 12.766C146.087 12.766 147.864 13.4073 149.181 14.69C150.498 15.9726 151.157 17.602 151.157 19.578C151.157 21.5366 150.481 23.1573 149.129 24.44C147.794 25.7226 146.035 26.364 143.851 26.364ZM141.381 22.256C141.988 22.9493 142.811 23.296 143.851 23.296C144.891 23.296 145.706 22.9493 146.295 22.256C146.902 21.5626 147.205 20.6786 147.205 19.604C147.205 18.512 146.91 17.6193 146.321 16.926C145.732 16.2326 144.908 15.886 143.851 15.886C142.794 15.886 141.97 16.2326 141.381 16.926C140.792 17.6193 140.497 18.512 140.497 19.604C140.497 20.6786 140.792 21.5626 141.381 22.256Z" fill="white"/>
<path d="M156.832 26H152.906V6.05797L156.832 5.79797V26Z" fill="white"/>
<path d="M168.282 13.13H172.208V25.48C169.903 26.0346 167.814 26.312 165.942 26.312C163.602 26.312 161.895 25.8873 160.82 25.038C159.746 24.1713 159.208 22.88 159.208 21.164C159.208 19.3093 159.33 16.6313 159.572 13.13H163.498C163.256 17.446 163.134 19.812 163.134 20.228C163.134 21.4586 163.36 22.308 163.81 22.776C164.278 23.2266 165.05 23.452 166.124 23.452C166.748 23.452 167.468 23.3913 168.282 23.27V13.13Z" fill="white"/>
<path d="M181.166 22.984C181.772 22.984 182.5 22.9233 183.35 22.802L183.662 25.584C182.362 26.0346 181.053 26.26 179.736 26.26C178.54 26.26 177.586 25.922 176.876 25.246C176.165 24.57 175.818 23.504 175.836 22.048V16.068H173.808L173.99 13.13H175.836V9.82797L179.762 9.30797V13.13H183.688L183.48 16.068H179.762V21.632C179.762 22.1 179.866 22.4466 180.074 22.672C180.282 22.88 180.646 22.984 181.166 22.984Z" fill="white"/>
<path d="M189.753 10.894H185.723V6.96797H189.753V10.894ZM189.701 26H185.775V13.13H189.701V26Z" fill="white"/>
<path d="M198.786 26.364C196.55 26.364 194.773 25.7313 193.456 24.466C192.139 23.1833 191.48 21.554 191.48 19.578C191.48 17.602 192.147 15.9726 193.482 14.69C194.834 13.4073 196.602 12.766 198.786 12.766C201.022 12.766 202.799 13.4073 204.116 14.69C205.433 15.9726 206.092 17.602 206.092 19.578C206.092 21.5366 205.416 23.1573 204.064 24.44C202.729 25.7226 200.97 26.364 198.786 26.364ZM196.316 22.256C196.923 22.9493 197.746 23.296 198.786 23.296C199.826 23.296 200.641 22.9493 201.23 22.256C201.837 21.5626 202.14 20.6786 202.14 19.604C202.14 18.512 201.845 17.6193 201.256 16.926C200.667 16.2326 199.843 15.886 198.786 15.886C197.729 15.886 196.905 16.2326 196.316 16.926C195.727 17.6193 195.432 18.512 195.432 19.604C195.432 20.6786 195.727 21.5626 196.316 22.256Z" fill="white"/>
<path d="M215.069 12.766C216.871 12.766 218.249 13.182 219.203 14.014C220.173 14.8286 220.659 16.0246 220.659 17.602V26H216.733V18.46C216.733 17.524 216.594 16.8653 216.317 16.484C216.057 16.0853 215.502 15.886 214.653 15.886C213.734 15.886 212.729 15.9986 211.637 16.224V26H207.711V14.3C210.103 13.2773 212.555 12.766 215.069 12.766Z" fill="white"/>
<path d="M228.494 12.766C229.881 12.766 231.398 12.9913 233.044 13.442L232.056 16.328C230.687 15.8946 229.5 15.678 228.494 15.678C227.281 15.678 226.674 16.016 226.674 16.692C226.674 17.0386 226.908 17.316 227.376 17.524C227.862 17.732 228.442 17.9226 229.118 18.096C229.812 18.252 230.496 18.4513 231.172 18.694C231.848 18.9366 232.42 19.3353 232.888 19.89C233.374 20.4446 233.616 21.1466 233.616 21.996C233.616 23.3133 233.088 24.3706 232.03 25.168C230.973 25.9653 229.586 26.364 227.87 26.364C225.808 26.364 223.849 25.8786 221.994 24.908L223.216 22.152C224.672 22.9666 226.189 23.374 227.766 23.374C229.066 23.374 229.716 23.01 229.716 22.282C229.716 21.9526 229.482 21.684 229.014 21.476C228.546 21.2506 227.974 21.0513 227.298 20.878C226.622 20.6873 225.946 20.4706 225.27 20.228C224.612 19.968 224.048 19.5606 223.58 19.006C223.112 18.4513 222.878 17.758 222.878 16.926C222.878 15.6606 223.381 14.6553 224.386 13.91C225.392 13.1473 226.761 12.766 228.494 12.766Z" fill="white"/>
</svg>
