<svg width="41" height="43" viewBox="0 0 41 43" fill="none" xmlns="http://www.w3.org/2000/svg">
<path d="M17.4452 18.9757C19.1038 19.8906 21.8193 19.8906 23.4779 18.9757L36.6633 11.6973C38.3219 10.7824 38.3219 9.28223 36.6633 8.3673L23.4779 1.08695C21.8193 0.172026 19.1038 0.172026 17.4452 1.08695L4.25981 8.36535C2.60118 9.28028 2.60118 10.7804 4.25981 11.6954L17.4452 18.9738V18.9757Z" fill="#0083FF"/>
<path d="M19.216 25.7683C19.216 23.9366 17.8593 21.6892 16.2007 20.7724L3.01532 13.494C1.35669 12.579 0 13.3282 0 15.1599V29.7168C0 31.5485 1.35669 33.7959 3.01532 34.7127L16.2007 41.9911C17.8593 42.9061 19.216 42.157 19.216 40.3252V25.7683Z" fill="#0083FF"/>
<path d="M24.7203 20.7724C23.0616 21.6892 21.705 23.9365 21.705 25.7683V40.3252C21.705 42.157 23.0616 42.9061 24.7203 41.9911L37.9057 34.7127C39.5643 33.7978 40.923 31.5485 40.923 29.7167V15.1599C40.923 13.3281 39.5663 12.579 37.9057 13.494L24.7203 20.7724Z" fill="#0083FF"/>
</svg>
