<svg width="220" height="235" viewBox="0 0 220 235" fill="none" xmlns="http://www.w3.org/2000/svg">
<path d="M95.2587 104.938C103.365 109.614 116.636 109.614 124.742 104.938L189.182 67.7372C197.288 63.061 197.288 55.3936 189.182 50.7174L124.742 13.5072C116.636 8.83095 103.365 8.83095 95.2587 13.5072L30.8187 50.7075C22.7126 55.3837 22.7126 63.0511 30.8187 67.7273L95.2587 104.928V104.938Z" fill="#00E0FF"/>
<path d="M103.913 139.655C103.913 130.293 97.2826 118.807 89.1765 114.12L24.7365 76.9201C16.6304 72.2439 10 76.0726 10 85.435V159.836C10 169.198 16.6304 180.684 24.7365 185.37L89.1765 222.571C97.2826 227.247 103.913 223.418 103.913 214.056V139.655Z" fill="#00E0FF"/>
<path d="M130.813 114.12C122.707 118.807 116.077 130.293 116.077 139.655V214.056C116.077 223.418 122.707 227.247 130.813 222.571L195.253 185.37C203.36 180.694 210 169.198 210 159.836V85.435C210 76.0726 203.369 72.2439 195.253 76.9201L130.813 114.12Z" fill="#00E0FF"/>
</svg>
