<svg width="200" height="200" viewBox="0 0 200 200" fill="none" xmlns="http://www.w3.org/2000/svg">
<g clip-path="url(#clip0_3387_6734)">
<path d="M100.275 19V95.0325L73.7878 83.0793L60 76.8548V34.8065L100.275 19Z" fill="url(#paint0_linear_3387_6734)"/>
<path d="M100.275 106.72V180.872L60 151.998V88.5423L100.275 106.72Z" fill="url(#paint1_linear_3387_6734)"/>
<path d="M140.55 88.5474L100.275 106.72L60 88.5474L73.7878 83.0793L100.275 95.0325L126.762 83.0793L140.55 88.5474Z" fill="url(#paint2_linear_3387_6734)"/>
<path d="M100.275 19V95.0325L126.757 83.0793L140.55 76.8548V34.8065L100.275 19Z" fill="url(#paint3_linear_3387_6734)"/>
<path d="M100.275 106.72V180.872L140.55 151.998V88.5423L100.275 106.72Z" fill="url(#paint4_linear_3387_6734)"/>
</g>
<defs>
<linearGradient id="paint0_linear_3387_6734" x1="60" y1="57.0162" x2="100.275" y2="57.0162" gradientUnits="userSpaceOnUse">
<stop stop-color="#026DFB"/>
<stop offset="0.47" stop-color="#03A8FA"/>
<stop offset="0.99" stop-color="#05DCFF"/>
</linearGradient>
<linearGradient id="paint1_linear_3387_6734" x1="60" y1="134.71" x2="100.275" y2="134.71" gradientUnits="userSpaceOnUse">
<stop stop-color="#026DFB"/>
<stop offset="0.47" stop-color="#03A8FA"/>
<stop offset="0.99" stop-color="#05DCFF"/>
</linearGradient>
<linearGradient id="paint2_linear_3387_6734" x1="140.55" y1="94.8996" x2="60" y2="94.8996" gradientUnits="userSpaceOnUse">
<stop stop-color="#026DFB"/>
<stop offset="0.47" stop-color="#03A8FA"/>
<stop offset="0.99" stop-color="#05DCFF"/>
</linearGradient>
<linearGradient id="paint3_linear_3387_6734" x1="100.275" y1="57.0162" x2="140.55" y2="57.0162" gradientUnits="userSpaceOnUse">
<stop stop-color="#026DFB"/>
<stop offset="0.47" stop-color="#03A8FA"/>
<stop offset="0.99" stop-color="#05DCFF"/>
</linearGradient>
<linearGradient id="paint4_linear_3387_6734" x1="100.275" y1="134.71" x2="140.55" y2="134.71" gradientUnits="userSpaceOnUse">
<stop stop-color="#026DFB"/>
<stop offset="0.47" stop-color="#03A8FA"/>
<stop offset="0.99" stop-color="#05DCFF"/>
</linearGradient>
<clipPath id="clip0_3387_6734">
<rect width="80.5501" height="161.872" fill="white" transform="translate(60 19)"/>
</clipPath>
</defs>
</svg>
