<svg width="374" height="374" viewBox="0 0 374 374" fill="none" xmlns="http://www.w3.org/2000/svg">
<path d="M40.0181 264.61V219.032H51.2608V264.61H40.0181Z" fill="black"/>
<path d="M88.9336 265.765C82.9779 265.765 77.8934 264.833 73.6799 262.97C69.4664 261.106 66.2455 258.391 64.0172 254.826C61.7889 251.22 60.6747 246.885 60.6747 241.821C60.6747 236.757 61.7889 232.442 64.0172 228.877C66.2455 225.311 69.4664 222.597 73.6799 220.733C77.8934 218.829 82.9779 217.877 88.9336 217.877C92.9445 217.877 96.5908 218.302 99.8725 219.153C103.195 220.004 106.031 221.26 108.381 222.921C110.73 224.542 112.533 226.527 113.789 228.877L104.309 234.589C103.255 232.361 101.412 230.619 98.7786 229.363C96.1451 228.107 92.8635 227.479 88.9336 227.479C83.5046 227.479 79.2709 228.735 76.2323 231.247C73.2342 233.759 71.7352 237.283 71.7352 241.821C71.7352 246.359 73.2342 249.883 76.2323 252.395C79.2709 254.907 83.5046 256.163 88.9336 256.163C92.823 256.163 96.1654 255.515 98.9609 254.218C101.756 252.922 103.762 251.119 104.977 248.81L114.275 254.765C112.776 257.075 110.791 259.06 108.32 260.721C105.848 262.342 102.972 263.598 99.6902 264.489C96.4085 265.34 92.823 265.765 88.9336 265.765Z" fill="black"/>
<path d="M122.452 264.61V219.032H133.573V264.61H122.452ZM132.357 245.467V236.412H164.141V245.467H132.357ZM132.357 228.33V219.032H166.572V228.33H132.357ZM132.357 264.61V255.312H167.179V264.61H132.357Z" fill="black"/>
<path d="M190.781 264.61V219.032H201.963V264.61H190.781ZM171.638 228.087V219.032H221.106V228.087H171.638Z" fill="black"/>
<path d="M227.318 264.61V219.032H238.439V264.61H227.318ZM237.224 245.467V236.412H269.008V245.467H237.224ZM237.224 228.33V219.032H271.439V228.33H237.224ZM237.224 264.61V255.312H272.046V264.61H237.224Z" fill="black"/>
<path d="M275.168 264.61L296.56 219.032H308.106L287.687 264.61H275.168ZM321.537 264.61L301.057 219.032H312.603L334.056 264.61H321.537ZM285.985 255.373V246.926H323.238V255.373H285.985Z" fill="black"/>
<path d="M82.7653 294.712C79.9103 294.712 77.0233 294.343 75.1147 293.718V291.905L75.2109 291.857C77.3281 292.643 79.9745 293.044 82.8615 293.044C86.6948 293.044 88.5233 292.386 88.5233 291.167C88.5233 288.072 75.0666 291.183 75.0666 286.051C75.0666 283.806 77.697 282.619 82.4766 282.619C85.139 282.619 87.6572 282.972 89.7743 283.629V285.345L89.6781 285.377C87.6251 284.704 84.9305 284.287 82.5568 284.287C79.1726 284.287 77.1356 284.96 77.1356 285.923C77.1356 288.938 90.5762 285.859 90.5762 291.071C90.5762 293.573 88.2025 294.712 82.7653 294.712Z" fill="black"/>
<path d="M112.194 294.712C106.596 294.712 103.308 292.435 103.308 288.665C103.308 284.896 106.596 282.619 112.194 282.619C117.791 282.619 121.079 284.896 121.079 288.665C121.079 292.435 117.791 294.712 112.194 294.712ZM112.194 293.044C116.572 293.044 118.978 291.376 118.978 288.665C118.978 285.955 116.572 284.287 112.194 284.287C107.815 284.287 105.409 285.955 105.409 288.665C105.409 291.376 107.815 293.044 112.194 293.044Z" fill="black"/>
<path d="M147.737 289.548H136.317V294.52H134.28V282.939H148.459V284.608H136.317V287.896H147.737V289.548Z" fill="black"/>
<path d="M177.092 284.591H169.922V294.52H167.885V284.591H160.732V282.939H177.092V284.591Z" fill="black"/>
<path d="M193.348 294.52L188.392 283.004L188.424 282.939H190.557L194.327 292.13L198.096 282.939H200.149L203.918 292.146L207.703 282.939H209.82L209.868 282.988L204.88 294.52H202.907L199.122 285.313L195.337 294.52H193.348Z" fill="black"/>
<path d="M232.03 290.205L228.405 284.559L224.716 290.205H232.03ZM234.788 294.52L233.056 291.825H223.673L221.909 294.52H219.615L227.314 282.939H229.527L237.082 294.52H234.788Z" fill="black"/>
<path d="M258.732 284.608H251.531V288.296H258.732C261.09 288.296 262.293 287.751 262.293 286.452C262.293 285.153 261.09 284.608 258.732 284.608ZM262.116 294.52L257.513 289.965H251.531V294.52H249.494V282.939H258.909C262.549 282.939 264.378 284.335 264.378 286.452C264.378 288.361 262.918 289.676 259.983 289.916L264.635 294.455L264.602 294.52H262.116Z" fill="black"/>
<path d="M277.851 294.52V282.939H291.981V284.591H279.888V287.912H291.259V289.531H279.888V292.868H291.981V294.52H277.851Z" fill="black"/>
<path d="M176.182 131.666C180.623 134.228 187.892 134.228 192.332 131.666L227.631 111.289C232.071 108.727 232.071 104.527 227.631 101.966L192.332 81.5831C187.892 79.0216 180.623 79.0216 176.182 81.5831L140.884 101.96C136.444 104.522 136.444 108.722 140.884 111.283L176.182 131.661V131.666Z" fill="#00E0FF"/>
<path d="M180.923 150.683C180.923 145.555 177.291 139.263 172.851 136.696L137.552 116.319C133.112 113.757 129.48 115.855 129.48 120.983V161.738C129.48 166.866 133.112 173.158 137.552 175.725L172.851 196.102C177.291 198.664 180.923 196.566 180.923 191.438V150.683Z" fill="#00E0FF"/>
<path d="M195.658 136.696C191.218 139.263 187.586 145.555 187.586 150.683V191.438C187.586 196.566 191.218 198.664 195.658 196.102L230.957 175.725C235.397 173.163 239.034 166.866 239.034 161.738V120.983C239.034 115.855 235.402 113.757 230.957 116.319L195.658 136.696Z" fill="#00E0FF"/>
</svg>
