<svg width="374" height="100" viewBox="0 0 374 100" fill="none" xmlns="http://www.w3.org/2000/svg">
<path d="M124.417 56.89V20.1906H133.469V56.89H124.417Z" fill="black"/>
<path d="M163.803 57.8197C159.008 57.8197 154.914 57.0694 151.521 55.5688C148.128 54.0682 145.535 51.8825 143.741 49.0118C141.947 46.1085 141.049 42.618 141.049 38.5403C141.049 34.4626 141.947 30.9884 143.741 28.1177C145.535 25.247 148.128 23.0613 151.521 21.5607C154.914 20.0275 159.008 19.2609 163.803 19.2609C167.033 19.2609 169.968 19.6035 172.611 20.2885C175.286 20.9736 177.569 21.9848 179.461 23.3223C181.353 24.6272 182.805 26.2256 183.816 28.1177L176.183 32.7173C175.335 30.9232 173.85 29.5204 171.73 28.5092C169.61 27.4979 166.967 26.9922 163.803 26.9922C159.432 26.9922 156.023 28.0035 153.576 30.0261C151.162 32.0486 149.955 34.8867 149.955 38.5403C149.955 42.1939 151.162 45.032 153.576 47.0545C156.023 49.0771 159.432 50.0883 163.803 50.0883C166.935 50.0883 169.626 49.5664 171.877 48.5225C174.128 47.4786 175.743 46.027 176.721 44.1675L184.208 48.9629C183.001 50.8223 181.402 52.4208 179.412 53.7583C177.423 55.0631 175.106 56.0744 172.464 56.7921C169.822 57.4771 166.935 57.8197 163.803 57.8197Z" fill="black"/>
<path d="M190.791 56.89V20.1906H199.746V56.89H190.791ZM198.767 41.4762V34.1853H224.359V41.4762H198.767ZM198.767 27.6773V20.1906H226.316V27.6773H198.767ZM198.767 56.89V49.4033H226.805V56.89H198.767Z" fill="black"/>
<path d="M245.809 56.89V20.1906H254.813V56.89H245.809ZM230.395 27.4816V20.1906H270.226V27.4816H230.395Z" fill="black"/>
<path d="M275.228 56.89V20.1906H284.183V56.89H275.228ZM283.204 41.4762V34.1853H308.796V41.4762H283.204ZM283.204 27.6773V20.1906H310.753V27.6773H283.204ZM283.204 56.89V49.4033H311.242V56.89H283.204Z" fill="black"/>
<path d="M313.756 56.89L330.98 20.1906H340.277L323.836 56.89H313.756ZM351.091 56.89L334.601 20.1906H343.898L361.171 56.89H351.091ZM322.466 49.4522V42.6506H352.462V49.4522H322.466Z" fill="black"/>
<path d="M158.836 81.1434C156.538 81.1434 154.213 80.8464 152.676 80.3427V78.8834L152.754 78.8447C154.458 79.4775 156.589 79.8003 158.914 79.8003C162 79.8003 163.473 79.2708 163.473 78.2894C163.473 75.7969 152.637 78.3023 152.637 74.1697C152.637 72.3617 154.755 71.406 158.604 71.406C160.748 71.406 162.775 71.6901 164.48 72.2196V73.6015L164.402 73.6273C162.749 73.0849 160.58 72.7491 158.668 72.7491C155.944 72.7491 154.303 73.2915 154.303 74.0664C154.303 76.4943 165.126 74.0147 165.126 78.2119C165.126 80.2265 163.214 81.1434 158.836 81.1434Z" fill="black"/>
<path d="M182.532 81.1434C178.025 81.1434 175.377 79.3096 175.377 76.2747C175.377 73.2399 178.025 71.406 182.532 71.406C187.039 71.406 189.686 73.2399 189.686 76.2747C189.686 79.3096 187.039 81.1434 182.532 81.1434ZM182.532 79.8003C186.057 79.8003 187.995 78.4572 187.995 76.2747C187.995 74.0922 186.057 72.7491 182.532 72.7491C179.006 72.7491 177.069 74.0922 177.069 76.2747C177.069 78.4572 179.006 79.8003 182.532 79.8003Z" fill="black"/>
<path d="M211.151 76.985H201.956V80.9884H200.315V71.6643H211.732V73.0074H201.956V75.6548H211.151V76.985Z" fill="black"/>
<path d="M234.786 72.9945H229.014V80.9884H227.374V72.9945H221.614V71.6643H234.786V72.9945Z" fill="black"/>
<path d="M247.876 80.9884L243.885 71.716L243.911 71.6643H245.629L248.664 79.0642L251.699 71.6643H253.352L256.386 79.0771L259.434 71.6643H261.139L261.178 71.7031L257.161 80.9884H255.573L252.525 73.5756L249.477 80.9884H247.876Z" fill="black"/>
<path d="M279.022 77.5145L276.103 72.9687L273.133 77.5145H279.022ZM281.243 80.9884L279.848 78.8188H272.293L270.873 80.9884H269.026L275.225 71.6643H277.007L283.09 80.9884H281.243Z" fill="black"/>
<path d="M300.522 73.0074H294.724V75.9777H300.522C302.421 75.9777 303.389 75.5386 303.389 74.4926C303.389 73.4465 302.421 73.0074 300.522 73.0074ZM303.247 80.9884L299.541 77.3208H294.724V80.9884H293.084V71.6643H300.664C303.596 71.6643 305.068 72.7879 305.068 74.4926C305.068 76.0294 303.893 77.0883 301.53 77.282L305.275 80.9368L305.249 80.9884H303.247Z" fill="black"/>
<path d="M315.916 80.9884V71.6643H327.294V72.9945H317.556V75.6678H326.712V76.9721H317.556V79.6583H327.294V80.9884H315.916Z" fill="black"/>
<path d="M50.6036 44.8729C54.1789 46.9353 60.0321 46.9353 63.6073 44.8729L92.029 28.4654C95.6043 26.4029 95.6043 23.0212 92.029 20.9587L63.6073 4.54686C60.0321 2.48438 54.1789 2.48438 50.6036 4.54686L22.1819 20.9543C18.6067 23.0168 18.6067 26.3985 22.1819 28.461L50.6036 44.8685V44.8729Z" fill="#00E0FF"/>
<path d="M54.421 60.1853C54.421 56.0559 51.4966 50.9899 47.9214 48.923L19.4997 32.5156C15.9244 30.4531 13 32.1418 13 36.2711V69.086C13 73.2154 15.9244 78.2814 19.4997 80.3483L47.9214 96.7557C51.4966 98.8182 54.421 97.1295 54.421 93.0002V60.1853Z" fill="#00E0FF"/>
<path d="M66.2858 48.9231C62.7105 50.99 59.7861 56.056 59.7861 60.1853V93.0003C59.7861 97.1296 62.7105 98.8183 66.2858 96.7558L94.7075 80.3484C98.2827 78.2859 101.212 73.2154 101.212 69.0861V36.2712C101.212 32.1418 98.2871 30.4532 94.7075 32.5156L66.2858 48.9231Z" fill="#00E0FF"/>
</svg>
