<svg width="200" height="200" viewBox="0 0 200 200" fill="none" xmlns="http://www.w3.org/2000/svg">
<path d="M100 200C155.228 200 200 155.228 200 100C200 44.7715 155.228 0 100 0C44.7715 0 0 44.7715 0 100C0 155.228 44.7715 200 100 200Z" fill="#00C7F4"/>
<path fill-rule="evenodd" clip-rule="evenodd" d="M95.6201 112.874H130.368C133.239 112.874 135.619 115.124 135.619 118.124V152.872C135.619 155.743 133.368 158.123 130.368 158.123H95.6201C92.7487 158.123 90.3693 155.872 90.3693 152.872V117.874C90.3693 115.124 92.4986 112.874 95.6201 112.874Z" fill="white"/>
<path fill-rule="evenodd" clip-rule="evenodd" d="M112.744 90.1197L133.739 62.2443C135.611 59.9939 138.74 59.3728 140.991 61.2441L168.866 82.2394C171.116 84.1107 171.738 87.2402 169.866 89.4906L148.871 117.116C147 119.366 143.87 119.987 141.62 118.116L113.744 97.1209C111.494 95.4996 111.123 92.3701 112.744 90.1197Z" fill="white"/>
<path fill-rule="evenodd" clip-rule="evenodd" d="M54.122 105.622L85.2479 121.375C87.8693 122.625 88.8695 125.875 87.4983 128.247L71.7458 159.373C70.4956 161.994 67.245 162.994 64.8737 161.623L33.7477 145.871C31.1263 144.62 30.1261 141.37 31.4973 138.998L47.2499 107.872C48.5001 105.243 51.5006 104.243 54.122 105.622Z" fill="white"/>
</svg>
