<svg width="20" height="20" viewBox="0 0 20 20" fill="none" xmlns="http://www.w3.org/2000/svg">
<path d="M9.98613 20C15.5013 20 19.9723 15.5228 19.9723 10C19.9723 4.47715 15.5013 0 9.98613 0C4.47094 0 0 4.47715 0 10C0 15.5228 4.47094 20 9.98613 20Z" fill="white"/>
<path fill-rule="evenodd" clip-rule="evenodd" d="M9.54975 11.2875H13.0197C13.3064 11.2875 13.544 11.5125 13.544 11.8126V15.2873C13.544 15.5745 13.3193 15.8124 13.0197 15.8124H9.54975C9.263 15.8124 9.02539 15.5874 9.02539 15.2873V11.7876C9.02539 11.5125 9.23803 11.2875 9.54975 11.2875Z" fill="#00C7F4"/>
<path fill-rule="evenodd" clip-rule="evenodd" d="M11.2597 9.01205L13.3564 6.22451C13.5432 5.99947 13.8557 5.93736 14.0805 6.12449L16.8642 8.22402C17.0889 8.41115 17.1509 8.7241 16.964 8.94914L14.8674 11.7117C14.6805 11.9367 14.368 11.9988 14.1433 11.8117L11.3596 9.71216C11.1349 9.55004 11.0978 9.23709 11.2597 9.01205Z" fill="#00C7F4"/>
<path fill-rule="evenodd" clip-rule="evenodd" d="M5.40269 10.5622L8.51097 12.1374C8.77274 12.2624 8.87262 12.5875 8.73569 12.8246L7.16262 15.9372C7.03778 16.1994 6.71317 16.2994 6.47637 16.1623L3.36809 14.587C3.10631 14.462 3.00643 14.1369 3.14336 13.8998L4.71643 10.7872C4.84128 10.5243 5.14091 10.4242 5.40269 10.5622Z" fill="#00C7F4"/>
</svg>
