<svg width="24" height="24" viewBox="0 0 24 24" fill="none" xmlns="http://www.w3.org/2000/svg">
<circle cx="12" cy="12" r="11.5" stroke="white"/>
<path d="M18.4272 12.4872C18.4272 12.4872 18.4445 12.4641 18.4518 12.4513C18.4592 12.4385 18.4666 12.4282 18.4716 12.4154C18.4765 12.4052 18.4839 12.3949 18.4888 12.3821C18.4962 12.3693 18.5011 12.3565 18.5061 12.3437C18.511 12.3334 18.5159 12.3206 18.5208 12.3104C18.5258 12.2975 18.5307 12.2847 18.5332 12.2719C18.5381 12.2591 18.543 12.2463 18.5455 12.2335C18.5479 12.2207 18.5529 12.2079 18.5553 12.195C18.5578 12.1822 18.5627 12.1694 18.5652 12.1566C18.5677 12.1412 18.5701 12.1259 18.5726 12.1105C18.5726 12.1002 18.5751 12.0874 18.5775 12.0772C18.5824 12.0234 18.5824 11.9695 18.5775 11.9157C18.5775 11.9055 18.5751 11.8927 18.5726 11.8824C18.5726 11.8671 18.5677 11.8517 18.5652 11.8363C18.5627 11.8235 18.5603 11.8107 18.5553 11.7979C18.5529 11.7851 18.5504 11.7722 18.5455 11.7594C18.5406 11.7466 18.5381 11.7338 18.5332 11.721C18.5282 11.7082 18.5258 11.6954 18.5208 11.6826C18.5159 11.6697 18.511 11.6595 18.5061 11.6492C18.5011 11.6364 18.4937 11.6236 18.4888 11.6108C18.4839 11.6006 18.4765 11.5903 18.4716 11.5775C18.4642 11.5647 18.4592 11.5544 18.4518 11.5416C18.4445 11.5288 18.4346 11.5186 18.4272 11.5058C18.4198 11.4955 18.4149 11.4853 18.4075 11.4776C18.3902 11.4571 18.373 11.4366 18.3558 11.4186L13.5508 6.43215C13.2453 6.11441 12.75 6.11441 12.447 6.43215C12.1439 6.74989 12.1414 7.26494 12.447 7.58012L15.9163 11.188H6.20103C5.76982 11.188 5.41992 11.5519 5.41992 12.0003C5.41992 12.4487 5.76982 12.8126 6.20103 12.8126H15.9163L12.447 16.4205C12.1414 16.7382 12.1414 17.2533 12.447 17.5684C12.5997 17.7273 12.7993 17.8068 12.9989 17.8068C13.1985 17.8068 13.3981 17.7273 13.5508 17.5684L18.3558 12.5717C18.373 12.5538 18.3902 12.5333 18.4075 12.5128C18.4149 12.5025 18.4223 12.4923 18.4272 12.4846V12.4872Z" fill="white"/>
</svg>
