<svg width="632" height="173" viewBox="0 0 632 173" fill="none" xmlns="http://www.w3.org/2000/svg">
<rect y="0.832031" width="632" height="172" rx="24" fill="#484EA2"/>
<path d="M632 149C632 162.255 621.255 173 608 173L394 173L394 0.999979L608 0.999998C621.255 0.999999 632 11.7452 632 25L632 149Z" fill="#B0B1FF"/>
<path d="M278.838 130.2H285.198C286.35 130.2 287.358 130.448 288.222 130.944C289.102 131.424 289.774 132.112 290.238 133.008C290.718 133.888 290.958 134.904 290.958 136.056C290.958 137.224 290.718 138.248 290.238 139.128C289.774 140.008 289.102 140.696 288.222 141.192C287.358 141.672 286.35 141.912 285.198 141.912H281.166V138.72H284.838C285.382 138.72 285.846 138.616 286.23 138.408C286.63 138.184 286.934 137.88 287.142 137.496C287.35 137.096 287.454 136.624 287.454 136.08C287.454 135.552 287.35 135.096 287.142 134.712C286.934 134.312 286.63 134.008 286.23 133.8C285.846 133.576 285.382 133.464 284.838 133.464H280.878L282.246 132.144V139.488V141.096V147H278.838V130.2ZM293.369 130.2H296.033L302.177 139.104H301.145L307.217 130.2H309.857V147H306.425V141.888V135.936L306.881 136.08L302.537 142.32H300.713L296.345 136.056L296.777 135.912V141.888V147H293.369V130.2Z" fill="white"/>
<circle cx="293.842" cy="46.4474" r="17.4474" fill="white"/>
<path d="M261.019 107C260.538 92.2274 269.157 75.6835 282.61 70.3621C282.703 70.9036 282.716 71.483 282.903 71.9992C285.711 79.712 288.542 87.4196 291.37 95.1247C291.463 95.3828 291.602 95.6232 291.881 95.8181C291.099 91.906 290.35 87.9864 289.51 84.0871C289.303 83.1179 289.447 82.4144 290.11 81.6832C291.296 80.3749 292.397 78.9883 293.601 77.556C292.508 76.2579 291.441 74.9193 290.295 73.6541C289.698 72.9962 289.647 72.4901 290.254 71.8221C291.215 70.7619 292.131 69.6586 293.032 68.5452C293.581 67.8671 294.038 67.781 294.625 68.5174C295.544 69.6687 296.51 70.7872 297.481 71.8955C297.982 72.4674 298.007 72.933 297.476 73.5301C296.328 74.8181 295.243 76.1643 294.076 77.551C295.286 78.9958 296.464 80.466 297.717 81.8653C298.293 82.5106 298.362 83.1306 298.192 83.9403C297.365 87.8877 296.591 91.8478 295.918 95.8383C299.07 87.3817 302.363 78.9807 305.247 70.443C317.971 75.4027 327.083 91.4759 326.671 107H261.019Z" fill="white"/>
<path d="M50.6491 147.264C49.0331 147.264 47.5771 146.896 46.2811 146.16C45.0011 145.408 43.9931 144.376 43.2571 143.064C42.5371 141.752 42.1771 140.264 42.1771 138.6C42.1771 136.936 42.5371 135.448 43.2571 134.136C43.9931 132.824 45.0011 131.8 46.2811 131.064C47.5771 130.312 49.0331 129.936 50.6491 129.936C52.0251 129.936 53.2891 130.208 54.4411 130.752C55.5931 131.296 56.5611 132.064 57.3451 133.056C58.1291 134.048 58.6571 135.2 58.9291 136.512H55.4011C55.0651 135.504 54.4811 134.712 53.6491 134.136C52.8171 133.56 51.8411 133.272 50.7211 133.272C49.7611 133.272 48.8971 133.504 48.1291 133.968C47.3611 134.416 46.7611 135.048 46.3291 135.864C45.9131 136.664 45.7051 137.576 45.7051 138.6C45.7051 139.624 45.9131 140.544 46.3291 141.36C46.7611 142.16 47.3611 142.792 48.1291 143.256C48.8971 143.704 49.7611 143.928 50.7211 143.928C51.8411 143.928 52.8251 143.624 53.6731 143.016C54.5371 142.408 55.1291 141.576 55.4491 140.52H58.9771C58.7051 141.864 58.1771 143.048 57.3931 144.072C56.6091 145.096 55.6331 145.888 54.4651 146.448C53.3131 146.992 52.0411 147.264 50.6491 147.264ZM66.3762 147.24C65.3362 147.24 64.4482 147.024 63.7122 146.592C62.9762 146.16 62.4082 145.52 62.0082 144.672C61.6242 143.824 61.4322 142.8 61.4322 141.6V134.28H64.6722V141.24C64.6722 142.232 64.8882 142.984 65.3202 143.496C65.7522 144.008 66.3922 144.264 67.2402 144.264C67.8642 144.264 68.4162 144.144 68.8962 143.904C69.3762 143.648 69.7362 143.288 69.9762 142.824C70.2322 142.36 70.3602 141.816 70.3602 141.192V134.28H73.6002V147H70.5042L70.4082 144.576L70.8162 145.032C70.4802 145.512 70.0802 145.92 69.6162 146.256C69.1682 146.576 68.6722 146.824 68.1282 147C67.5842 147.16 67.0002 147.24 66.3762 147.24ZM81.6072 147.24C80.5352 147.24 79.5912 147.072 78.7752 146.736C77.9592 146.384 77.3192 145.888 76.8552 145.248C76.3912 144.608 76.1432 143.856 76.1112 142.992H79.3512C79.3832 143.472 79.5992 143.848 79.9992 144.12C80.4152 144.376 80.9672 144.504 81.6552 144.504C82.3272 144.504 82.8552 144.4 83.2392 144.192C83.6392 143.968 83.8392 143.656 83.8392 143.256C83.8392 143 83.7592 142.792 83.5992 142.632C83.4552 142.472 83.1912 142.336 82.8072 142.224C82.4232 142.112 81.8792 142.008 81.1752 141.912C80.0232 141.752 79.0872 141.512 78.3672 141.192C77.6632 140.856 77.1352 140.432 76.7832 139.92C76.4472 139.392 76.2792 138.752 76.2792 138C76.2792 137.184 76.5032 136.48 76.9512 135.888C77.3992 135.28 78.0232 134.816 78.8232 134.496C79.6232 134.176 80.5432 134.016 81.5832 134.016C82.5592 134.016 83.4312 134.184 84.1992 134.52C84.9832 134.856 85.5992 135.336 86.0472 135.96C86.4952 136.568 86.7432 137.264 86.7912 138.048H83.6472C83.5832 137.632 83.3672 137.312 82.9992 137.088C82.6472 136.848 82.1512 136.728 81.5112 136.728C80.8712 136.728 80.3752 136.832 80.0232 137.04C79.6872 137.248 79.5192 137.536 79.5192 137.904C79.5192 138.176 79.6072 138.4 79.7832 138.576C79.9592 138.752 80.2392 138.896 80.6232 139.008C81.0232 139.12 81.5672 139.224 82.2552 139.32C83.8552 139.528 85.0632 139.936 85.8792 140.544C86.6952 141.152 87.1032 142.032 87.1032 143.184C87.1032 144.016 86.8712 144.744 86.4072 145.368C85.9432 145.976 85.2952 146.44 84.4632 146.76C83.6312 147.08 82.6792 147.24 81.6072 147.24ZM95.1057 147.192C93.6337 147.192 92.4977 146.832 91.6977 146.112C90.9137 145.376 90.5217 144.264 90.5217 142.776V131.52L93.7617 131.184V142.416C93.7617 143.088 93.9297 143.576 94.2657 143.88C94.6017 144.168 95.1297 144.312 95.8497 144.312C96.2497 144.312 96.6497 144.28 97.0497 144.216V147C96.3457 147.128 95.6977 147.192 95.1057 147.192ZM88.2177 134.28H96.8817V137.016H88.2177V134.28ZM105.544 147.264C104.248 147.264 103.08 146.984 102.04 146.424C101.016 145.848 100.208 145.056 99.6158 144.048C99.0398 143.04 98.7518 141.904 98.7518 140.64C98.7518 139.376 99.0398 138.24 99.6158 137.232C100.208 136.224 101.016 135.44 102.04 134.88C103.08 134.304 104.248 134.016 105.544 134.016C106.84 134.016 108 134.304 109.024 134.88C110.064 135.44 110.872 136.224 111.448 137.232C112.04 138.24 112.336 139.376 112.336 140.64C112.336 141.904 112.04 143.04 111.448 144.048C110.872 145.056 110.064 145.848 109.024 146.424C108 146.984 106.84 147.264 105.544 147.264ZM105.544 144.24C106.216 144.24 106.816 144.088 107.344 143.784C107.888 143.464 108.304 143.032 108.592 142.488C108.896 141.944 109.048 141.328 109.048 140.64C109.048 139.952 108.896 139.336 108.592 138.792C108.304 138.248 107.888 137.824 107.344 137.52C106.816 137.2 106.216 137.04 105.544 137.04C104.872 137.04 104.264 137.2 103.72 137.52C103.192 137.824 102.776 138.248 102.472 138.792C102.184 139.336 102.04 139.952 102.04 140.64C102.04 141.328 102.184 141.944 102.472 142.488C102.776 143.032 103.192 143.464 103.72 143.784C104.264 144.088 104.872 144.24 105.544 144.24ZM115.038 134.28H118.11L118.254 136.92L117.774 136.416C118.206 135.664 118.798 135.08 119.55 134.664C120.318 134.248 121.182 134.04 122.142 134.04C123.278 134.04 124.222 134.312 124.974 134.856C125.742 135.4 126.278 136.184 126.582 137.208H125.502C126.11 136.168 126.854 135.384 127.734 134.856C128.63 134.312 129.646 134.04 130.782 134.04C131.838 134.04 132.734 134.256 133.47 134.688C134.206 135.12 134.758 135.76 135.126 136.608C135.51 137.44 135.702 138.464 135.702 139.68V147H132.486V139.992C132.486 139.016 132.27 138.28 131.838 137.784C131.422 137.272 130.798 137.016 129.966 137.016C129.374 137.016 128.854 137.144 128.406 137.4C127.958 137.64 127.606 137.984 127.35 138.432C127.11 138.88 126.99 139.4 126.99 139.992V147H123.774V139.992C123.774 139.016 123.558 138.28 123.126 137.784C122.694 137.272 122.07 137.016 121.254 137.016C120.646 137.016 120.118 137.144 119.67 137.4C119.238 137.64 118.894 137.984 118.638 138.432C118.398 138.88 118.278 139.4 118.278 139.992V147H115.038V134.28ZM144.916 147.264C143.636 147.264 142.492 146.984 141.484 146.424C140.476 145.848 139.684 145.056 139.108 144.048C138.532 143.04 138.244 141.904 138.244 140.64C138.244 139.376 138.532 138.24 139.108 137.232C139.684 136.224 140.476 135.44 141.484 134.88C142.492 134.304 143.636 134.016 144.916 134.016C146.308 134.016 147.54 134.352 148.612 135.024C149.684 135.68 150.476 136.592 150.988 137.76C151.5 138.928 151.668 140.24 151.492 141.696H148.348C148.508 140.832 148.476 140.04 148.252 139.32C148.028 138.584 147.62 138.008 147.028 137.592C146.452 137.176 145.748 136.968 144.916 136.968C144.228 136.968 143.612 137.12 143.068 137.424C142.54 137.728 142.132 138.16 141.844 138.72C141.556 139.264 141.412 139.904 141.412 140.64C141.412 141.376 141.556 142.024 141.844 142.584C142.132 143.144 142.54 143.576 143.068 143.88C143.612 144.168 144.228 144.312 144.916 144.312C145.508 144.312 146.052 144.2 146.548 143.976C147.044 143.752 147.428 143.448 147.7 143.064H151.204C150.756 144.344 149.964 145.368 148.828 146.136C147.708 146.888 146.404 147.264 144.916 147.264ZM140.116 139.44H150.892V141.696H140.116V139.44ZM154.202 134.28H157.226L157.418 137.016L156.818 136.512C157.234 135.728 157.786 135.128 158.474 134.712C159.178 134.296 159.978 134.088 160.874 134.088C161.322 134.088 161.818 134.152 162.362 134.28V137.256C161.818 137.144 161.33 137.088 160.898 137.088C160.21 137.088 159.602 137.224 159.074 137.496C158.546 137.768 158.138 138.16 157.85 138.672C157.578 139.184 157.442 139.792 157.442 140.496V147H154.202V134.28Z" fill="white"/>
<path d="M124.995 107H58C58.2645 104.52 58.3878 102.077 58.8012 99.6801C60.2547 91.2998 63.8268 83.8742 70.1724 77.8436C76.6901 71.6481 84.5071 68.4348 93.7957 69.0819C101.186 69.5986 107.429 72.6348 112.671 77.5582C119.597 84.0611 123.284 92.1068 124.591 101.22C124.823 102.839 124.869 104.485 124.992 106.119C125.01 106.36 124.992 106.604 124.992 106.998L124.995 107Z" fill="white"/>
<circle cx="92" cy="46" r="17" fill="white"/>
<path d="M213.429 87.8158C213.429 87.8158 213.453 87.7835 213.464 87.7656C213.474 87.7476 213.484 87.7333 213.491 87.7153C213.498 87.701 213.508 87.6866 213.515 87.6686C213.526 87.6507 213.533 87.6328 213.54 87.6148C213.546 87.6004 213.553 87.5825 213.56 87.5681C213.567 87.5502 213.574 87.5322 213.578 87.5143C213.584 87.4963 213.591 87.4784 213.595 87.4605C213.598 87.4425 213.605 87.4246 213.609 87.4066C213.612 87.3887 213.619 87.3707 213.622 87.3528C213.626 87.3312 213.629 87.3097 213.633 87.2882C213.633 87.2738 213.636 87.2559 213.64 87.2415C213.647 87.1661 213.647 87.0907 213.64 87.0154C213.64 87.001 213.636 86.9831 213.633 86.9687C213.633 86.9472 213.626 86.9256 213.622 86.9041C213.619 86.8861 213.615 86.8682 213.609 86.8502C213.605 86.8323 213.602 86.8143 213.595 86.7964C213.588 86.7784 213.584 86.7605 213.578 86.7426C213.571 86.7246 213.567 86.7067 213.56 86.6887C213.553 86.6708 213.546 86.6564 213.54 86.642C213.533 86.6241 213.522 86.6062 213.515 86.5882C213.508 86.5738 213.498 86.5595 213.491 86.5415C213.481 86.5236 213.474 86.5092 213.464 86.4913C213.453 86.4733 213.439 86.459 213.429 86.441C213.419 86.4267 213.412 86.4123 213.401 86.4016C213.377 86.3728 213.353 86.3441 213.329 86.319L206.598 79.3338C206.17 78.8887 205.476 78.8887 205.052 79.3338C204.627 79.7789 204.624 80.5004 205.052 80.9419L209.912 85.9959H196.302C195.698 85.9959 195.208 86.5056 195.208 87.1338C195.208 87.762 195.698 88.2717 196.302 88.2717H209.912L205.052 93.3257C204.624 93.7708 204.624 94.4923 205.052 94.9338C205.266 95.1563 205.545 95.2676 205.825 95.2676C206.105 95.2676 206.384 95.1563 206.598 94.9338L213.329 87.9343C213.353 87.9091 213.377 87.8804 213.401 87.8517C213.412 87.8374 213.422 87.823 213.429 87.8122V87.8158Z" fill="white"/>
<path d="M182.216 95.9494C182.216 95.9494 182.192 95.9171 182.181 95.8991C182.171 95.8812 182.161 95.8668 182.154 95.8489C182.147 95.8345 182.136 95.8201 182.129 95.8022C182.119 95.7842 182.112 95.7663 182.105 95.7483C182.098 95.734 182.091 95.716 182.085 95.7017C182.078 95.6837 182.071 95.6658 182.067 95.6478C182.06 95.6299 182.053 95.6119 182.05 95.594C182.047 95.5761 182.04 95.5581 182.036 95.5402C182.033 95.5222 182.026 95.5043 182.022 95.4863C182.019 95.4648 182.016 95.4432 182.012 95.4217C182.012 95.4073 182.009 95.3894 182.005 95.375C181.998 95.2997 181.998 95.2243 182.005 95.1489C182.005 95.1345 182.009 95.1166 182.012 95.1022C182.012 95.0807 182.019 95.0592 182.022 95.0376C182.026 95.0197 182.029 95.0017 182.036 94.9838C182.04 94.9658 182.043 94.9479 182.05 94.9299C182.057 94.912 182.06 94.894 182.067 94.8761C182.074 94.8582 182.078 94.8402 182.085 94.8223C182.091 94.8043 182.098 94.79 182.105 94.7756C182.112 94.7576 182.123 94.7397 182.129 94.7218C182.136 94.7074 182.147 94.693 182.154 94.6751C182.164 94.6571 182.171 94.6428 182.181 94.6248C182.192 94.6069 182.205 94.5925 182.216 94.5746C182.226 94.5602 182.233 94.5459 182.243 94.5351C182.268 94.5064 182.292 94.4777 182.316 94.4525L189.047 87.4674C189.475 87.0223 190.168 87.0223 190.593 87.4674C191.018 87.9125 191.021 88.634 190.593 89.0755L185.733 94.1295H199.342C199.946 94.1295 200.437 94.6392 200.437 95.2674C200.437 95.8955 199.946 96.4052 199.342 96.4052H185.733L190.593 101.459C191.021 101.904 191.021 102.626 190.593 103.067C190.379 103.29 190.099 103.401 189.82 103.401C189.54 103.401 189.261 103.29 189.047 103.067L182.316 96.0678C182.292 96.0427 182.268 96.014 182.243 95.9853C182.233 95.9709 182.223 95.9565 182.216 95.9458V95.9494Z" fill="white"/>
<circle cx="394" cy="88" r="24" fill="#5E61F0"/>
<path d="M409.429 84.8158C409.429 84.8158 409.453 84.7835 409.464 84.7656C409.474 84.7476 409.484 84.7333 409.491 84.7153C409.498 84.701 409.508 84.6866 409.515 84.6686C409.526 84.6507 409.533 84.6328 409.54 84.6148C409.546 84.6004 409.553 84.5825 409.56 84.5681C409.567 84.5502 409.574 84.5322 409.578 84.5143C409.584 84.4963 409.591 84.4784 409.595 84.4605C409.598 84.4425 409.605 84.4246 409.609 84.4066C409.612 84.3887 409.619 84.3707 409.622 84.3528C409.626 84.3312 409.629 84.3097 409.633 84.2882C409.633 84.2738 409.636 84.2559 409.64 84.2415C409.647 84.1661 409.647 84.0907 409.64 84.0154C409.64 84.001 409.636 83.9831 409.633 83.9687C409.633 83.9472 409.626 83.9256 409.622 83.9041C409.619 83.8861 409.615 83.8682 409.609 83.8502C409.605 83.8323 409.602 83.8143 409.595 83.7964C409.588 83.7784 409.584 83.7605 409.578 83.7426C409.571 83.7246 409.567 83.7067 409.56 83.6887C409.553 83.6708 409.546 83.6564 409.54 83.642C409.533 83.6241 409.522 83.6062 409.515 83.5882C409.508 83.5738 409.498 83.5595 409.491 83.5415C409.481 83.5236 409.474 83.5092 409.464 83.4913C409.453 83.4733 409.439 83.459 409.429 83.441C409.419 83.4267 409.412 83.4123 409.401 83.4016C409.377 83.3728 409.353 83.3441 409.329 83.319L402.598 76.3338C402.17 75.8887 401.476 75.8887 401.052 76.3338C400.627 76.7789 400.624 77.5004 401.052 77.9419L405.912 82.9959H392.302C391.698 82.9959 391.208 83.5056 391.208 84.1338C391.208 84.762 391.698 85.2717 392.302 85.2717H405.912L401.052 90.3257C400.624 90.7708 400.624 91.4923 401.052 91.9338C401.266 92.1563 401.545 92.2676 401.825 92.2676C402.105 92.2676 402.384 92.1563 402.598 91.9338L409.329 84.9343C409.353 84.9091 409.377 84.8804 409.401 84.8517C409.412 84.8374 409.422 84.823 409.429 84.8122V84.8158Z" fill="white"/>
<path d="M378.216 92.9494C378.216 92.9494 378.192 92.9171 378.181 92.8991C378.171 92.8812 378.161 92.8668 378.154 92.8489C378.147 92.8345 378.136 92.8201 378.129 92.8022C378.119 92.7842 378.112 92.7663 378.105 92.7483C378.098 92.734 378.091 92.716 378.085 92.7017C378.078 92.6837 378.071 92.6658 378.067 92.6478C378.06 92.6299 378.053 92.6119 378.05 92.594C378.047 92.5761 378.04 92.5581 378.036 92.5402C378.033 92.5222 378.026 92.5043 378.022 92.4863C378.019 92.4648 378.016 92.4432 378.012 92.4217C378.012 92.4073 378.009 92.3894 378.005 92.375C377.998 92.2997 377.998 92.2243 378.005 92.1489C378.005 92.1345 378.009 92.1166 378.012 92.1022C378.012 92.0807 378.019 92.0592 378.022 92.0376C378.026 92.0197 378.029 92.0017 378.036 91.9838C378.04 91.9658 378.043 91.9479 378.05 91.9299C378.057 91.912 378.06 91.894 378.067 91.8761C378.074 91.8582 378.078 91.8402 378.085 91.8223C378.091 91.8043 378.098 91.79 378.105 91.7756C378.112 91.7576 378.123 91.7397 378.129 91.7218C378.136 91.7074 378.147 91.693 378.154 91.6751C378.164 91.6571 378.171 91.6428 378.181 91.6248C378.192 91.6069 378.205 91.5925 378.216 91.5746C378.226 91.5602 378.233 91.5459 378.243 91.5351C378.268 91.5064 378.292 91.4777 378.316 91.4525L385.047 84.4674C385.475 84.0223 386.168 84.0223 386.593 84.4674C387.018 84.9125 387.021 85.634 386.593 86.0755L381.733 91.1295H395.342C395.946 91.1295 396.437 91.6392 396.437 92.2674C396.437 92.8955 395.946 93.4052 395.342 93.4052H381.733L386.593 98.4592C387.021 98.9043 387.021 99.6258 386.593 100.067C386.379 100.29 386.099 100.401 385.82 100.401C385.54 100.401 385.261 100.29 385.047 100.067L378.316 93.0678C378.292 93.0427 378.268 93.014 378.243 92.9853C378.233 92.9709 378.223 92.9565 378.216 92.9458V92.9494Z" fill="white"/>
<path d="M499.749 100.915C499.662 100.084 499.573 99.2713 499.491 98.4569C499.211 95.6883 498.933 92.9206 498.654 90.1519C498.384 87.4634 498.118 84.775 497.847 82.0865C497.603 79.6695 497.356 77.2534 497.112 74.8374C497.091 74.6297 497.069 74.421 497.063 74.2123C497.041 73.2676 497.657 72.6184 498.602 72.6165C501.067 72.6097 503.531 72.6136 505.996 72.6136C518.593 72.6136 531.189 72.6136 543.786 72.6136C545.172 72.6136 545.725 73.1999 545.589 74.5862C545.187 78.6677 544.766 82.7473 544.356 86.8288C544.051 89.8698 543.754 92.9109 543.449 95.952C543.283 97.5971 543.111 99.2413 542.938 100.916H499.749V100.915ZM519.272 86.7515C519.261 87.9204 520.17 88.8497 521.331 88.8536C522.487 88.8584 523.436 87.9233 523.437 86.7785C523.437 85.6637 522.503 84.7141 521.383 84.6899C520.236 84.6648 519.283 85.5951 519.272 86.7505V86.7515Z" fill="white"/>
<path d="M545.992 97.5286C546.198 95.468 546.397 93.4625 546.599 91.458C546.817 89.2844 547.039 87.1108 547.258 84.9373C547.545 82.0952 547.832 79.2531 548.119 76.411C548.228 75.3407 548.364 74.2722 548.437 73.1999C548.561 71.3509 547.034 69.7657 545.124 69.7628C539.587 69.7531 534.049 69.7589 528.512 69.7589C518.229 69.7589 507.946 69.7589 497.662 69.7589C495.898 69.7589 494.499 70.8051 494.271 72.4445C494.157 73.2608 494.285 74.1196 494.363 74.9533C494.603 77.4969 494.87 80.0366 495.128 82.5782C495.419 85.4367 495.713 88.2952 496.002 91.1547C496.204 93.1582 496.399 95.1627 496.607 97.261C495.922 97.0745 495.3 96.9113 494.681 96.7354C491.845 95.9298 489.114 94.8633 486.497 93.5002C486.108 93.2973 485.998 93.0548 486 92.6385C486.016 88.5077 486.845 84.5306 488.271 80.6703C490.291 75.2025 493.247 70.3231 497.495 66.2822C500.275 63.6381 503.442 61.6307 507.163 60.5594C507.536 60.4521 507.765 60.5169 508.046 60.7787C511.105 63.6275 514.639 65.5596 518.795 66.2706C523.092 67.0067 527.157 66.2899 531.015 64.3095C532.852 63.3667 534.513 62.1688 536.002 60.741C536.253 60.5004 536.47 60.4502 536.8 60.5449C540.418 61.5805 543.55 63.4749 546.253 66.0474C552.432 71.9277 556.065 79.1797 557.537 87.5282C557.842 89.2564 557.851 91.0368 557.996 92.794C558.018 93.0606 557.964 93.2568 557.685 93.4046C554.07 95.3241 550.232 96.6234 546.25 97.5257C546.188 97.5401 546.12 97.5276 545.991 97.5276L545.992 97.5286Z" fill="white"/>
<path d="M521.976 101.902C529.643 101.902 537.311 101.902 544.978 101.902C546.698 101.902 547.473 102.953 546.968 104.602C546.534 106.023 545.264 106.983 543.75 106.993C541.512 107.006 539.273 106.997 537.033 106.997C524.856 106.997 512.678 106.997 500.5 106.997C498.616 106.997 497.263 105.926 496.943 104.184C496.695 102.828 497.453 101.904 498.828 101.904C504.417 101.901 510.007 101.903 515.596 101.903C517.723 101.903 519.848 101.903 521.975 101.903L521.976 101.902Z" fill="white"/>
<path d="M522.001 63.4256C531.513 63.4256 539.225 55.7192 539.225 46.2128C539.225 36.7064 531.513 29 522.001 29C512.489 29 504.778 36.7064 504.778 46.2128C504.778 55.7192 512.489 63.4256 522.001 63.4256Z" fill="white"/>
<path d="M463.382 130.2H473.894V133.392H466.79V143.76H474.086V147H463.382V130.2ZM466.262 136.968H473.414V140.136H466.262V136.968ZM477.042 134.28H480.114L480.258 136.704L479.874 136.248C480.194 135.768 480.578 135.368 481.026 135.048C481.49 134.712 481.994 134.464 482.538 134.304C483.082 134.128 483.674 134.04 484.314 134.04C485.402 134.04 486.322 134.264 487.074 134.712C487.826 135.16 488.386 135.808 488.754 136.656C489.122 137.504 489.306 138.512 489.306 139.68V147H486.09V140.016C486.09 139.04 485.858 138.296 485.394 137.784C484.946 137.272 484.29 137.016 483.426 137.016C482.786 137.016 482.226 137.144 481.746 137.4C481.282 137.64 480.922 137.992 480.666 138.456C480.41 138.904 480.282 139.44 480.282 140.064V147H477.042V134.28ZM498.553 151.128C496.857 151.128 495.441 150.752 494.305 150C493.169 149.248 492.505 148.16 492.313 146.736H495.529C495.657 147.248 495.985 147.632 496.513 147.888C497.041 148.144 497.657 148.272 498.361 148.272C499.417 148.272 500.265 148.016 500.905 147.504C501.561 147.008 501.889 146.288 501.889 145.344V142.944L502.921 140.4L501.985 137.904L502.249 134.28H505.105V145.032C505.105 146.312 504.817 147.408 504.241 148.32C503.681 149.248 502.905 149.944 501.913 150.408C500.921 150.888 499.801 151.128 498.553 151.128ZM498.025 146.256C496.873 146.256 495.825 145.992 494.881 145.464C493.953 144.936 493.217 144.216 492.673 143.304C492.129 142.376 491.857 141.328 491.857 140.16C491.857 139.008 492.121 137.968 492.649 137.04C493.193 136.096 493.937 135.36 494.881 134.832C495.825 134.288 496.873 134.016 498.025 134.016C499.161 134.016 500.201 134.288 501.145 134.832C502.089 135.376 502.825 136.12 503.353 137.064C503.897 137.992 504.169 139.024 504.169 140.16C504.169 141.296 503.897 142.328 503.353 143.256C502.825 144.168 502.089 144.896 501.145 145.44C500.201 145.984 499.161 146.256 498.025 146.256ZM498.529 143.472C499.185 143.472 499.769 143.336 500.281 143.064C500.809 142.792 501.209 142.408 501.481 141.912C501.769 141.416 501.913 140.848 501.913 140.208C501.913 139.568 501.769 139.008 501.481 138.528C501.209 138.032 500.809 137.648 500.281 137.376C499.769 137.104 499.185 136.968 498.529 136.968C497.857 136.968 497.257 137.112 496.729 137.4C496.217 137.672 495.817 138.056 495.529 138.552C495.257 139.032 495.121 139.584 495.121 140.208C495.121 140.848 495.257 141.416 495.529 141.912C495.817 142.392 496.217 142.776 496.729 143.064C497.257 143.336 497.857 143.472 498.529 143.472ZM508.706 134.28H511.946V147H508.706V134.28ZM510.338 133.032C509.746 133.032 509.258 132.848 508.874 132.48C508.506 132.096 508.322 131.632 508.322 131.088C508.322 130.528 508.506 130.064 508.874 129.696C509.258 129.312 509.746 129.12 510.338 129.12C510.914 129.12 511.386 129.312 511.754 129.696C512.138 130.064 512.33 130.528 512.33 131.088C512.33 131.632 512.138 132.096 511.754 132.48C511.386 132.848 510.914 133.032 510.338 133.032ZM515.55 134.28H518.622L518.766 136.704L518.382 136.248C518.702 135.768 519.086 135.368 519.534 135.048C519.998 134.712 520.502 134.464 521.046 134.304C521.59 134.128 522.182 134.04 522.822 134.04C523.91 134.04 524.83 134.264 525.582 134.712C526.334 135.16 526.894 135.808 527.262 136.656C527.63 137.504 527.814 138.512 527.814 139.68V147H524.598V140.016C524.598 139.04 524.366 138.296 523.902 137.784C523.454 137.272 522.798 137.016 521.934 137.016C521.294 137.016 520.734 137.144 520.254 137.4C519.79 137.64 519.43 137.992 519.174 138.456C518.918 138.904 518.79 139.44 518.79 140.064V147H515.55V134.28ZM537.037 147.264C535.757 147.264 534.613 146.984 533.605 146.424C532.597 145.848 531.805 145.056 531.229 144.048C530.653 143.04 530.365 141.904 530.365 140.64C530.365 139.376 530.653 138.24 531.229 137.232C531.805 136.224 532.597 135.44 533.605 134.88C534.613 134.304 535.757 134.016 537.037 134.016C538.429 134.016 539.661 134.352 540.733 135.024C541.805 135.68 542.597 136.592 543.109 137.76C543.621 138.928 543.789 140.24 543.613 141.696H540.469C540.629 140.832 540.597 140.04 540.373 139.32C540.149 138.584 539.741 138.008 539.149 137.592C538.573 137.176 537.869 136.968 537.037 136.968C536.349 136.968 535.733 137.12 535.189 137.424C534.661 137.728 534.253 138.16 533.965 138.72C533.677 139.264 533.533 139.904 533.533 140.64C533.533 141.376 533.677 142.024 533.965 142.584C534.253 143.144 534.661 143.576 535.189 143.88C535.733 144.168 536.349 144.312 537.037 144.312C537.629 144.312 538.173 144.2 538.669 143.976C539.165 143.752 539.549 143.448 539.821 143.064H543.325C542.877 144.344 542.085 145.368 540.949 146.136C539.829 146.888 538.525 147.264 537.037 147.264ZM532.237 139.44H543.013V141.696H532.237V139.44ZM552.107 147.264C550.827 147.264 549.683 146.984 548.675 146.424C547.667 145.848 546.875 145.056 546.299 144.048C545.723 143.04 545.435 141.904 545.435 140.64C545.435 139.376 545.723 138.24 546.299 137.232C546.875 136.224 547.667 135.44 548.675 134.88C549.683 134.304 550.827 134.016 552.107 134.016C553.499 134.016 554.731 134.352 555.803 135.024C556.875 135.68 557.667 136.592 558.179 137.76C558.691 138.928 558.859 140.24 558.683 141.696H555.539C555.699 140.832 555.667 140.04 555.443 139.32C555.219 138.584 554.811 138.008 554.219 137.592C553.643 137.176 552.939 136.968 552.107 136.968C551.419 136.968 550.803 137.12 550.259 137.424C549.731 137.728 549.323 138.16 549.035 138.72C548.747 139.264 548.603 139.904 548.603 140.64C548.603 141.376 548.747 142.024 549.035 142.584C549.323 143.144 549.731 143.576 550.259 143.88C550.803 144.168 551.419 144.312 552.107 144.312C552.699 144.312 553.243 144.2 553.739 143.976C554.235 143.752 554.619 143.448 554.891 143.064H558.395C557.947 144.344 557.155 145.368 556.019 146.136C554.899 146.888 553.595 147.264 552.107 147.264ZM547.307 139.44H558.083V141.696H547.307V139.44ZM561.394 134.28H564.418L564.61 137.016L564.01 136.512C564.426 135.728 564.978 135.128 565.666 134.712C566.37 134.296 567.17 134.088 568.066 134.088C568.514 134.088 569.01 134.152 569.554 134.28V137.256C569.01 137.144 568.522 137.088 568.09 137.088C567.402 137.088 566.794 137.224 566.266 137.496C565.738 137.768 565.33 138.16 565.042 138.672C564.77 139.184 564.634 139.792 564.634 140.496V147H561.394V134.28ZM576.267 147.24C575.195 147.24 574.251 147.072 573.435 146.736C572.619 146.384 571.979 145.888 571.515 145.248C571.051 144.608 570.803 143.856 570.771 142.992H574.011C574.043 143.472 574.259 143.848 574.659 144.12C575.075 144.376 575.627 144.504 576.315 144.504C576.987 144.504 577.515 144.4 577.899 144.192C578.299 143.968 578.499 143.656 578.499 143.256C578.499 143 578.419 142.792 578.259 142.632C578.115 142.472 577.851 142.336 577.467 142.224C577.083 142.112 576.539 142.008 575.835 141.912C574.683 141.752 573.747 141.512 573.027 141.192C572.323 140.856 571.795 140.432 571.443 139.92C571.107 139.392 570.939 138.752 570.939 138C570.939 137.184 571.163 136.48 571.611 135.888C572.059 135.28 572.683 134.816 573.483 134.496C574.283 134.176 575.203 134.016 576.243 134.016C577.219 134.016 578.091 134.184 578.859 134.52C579.643 134.856 580.259 135.336 580.707 135.96C581.155 136.568 581.403 137.264 581.451 138.048H578.307C578.243 137.632 578.027 137.312 577.659 137.088C577.307 136.848 576.811 136.728 576.171 136.728C575.531 136.728 575.035 136.832 574.683 137.04C574.347 137.248 574.179 137.536 574.179 137.904C574.179 138.176 574.267 138.4 574.443 138.576C574.619 138.752 574.899 138.896 575.283 139.008C575.683 139.12 576.227 139.224 576.915 139.32C578.515 139.528 579.723 139.936 580.539 140.544C581.355 141.152 581.763 142.032 581.763 143.184C581.763 144.016 581.531 144.744 581.067 145.368C580.603 145.976 579.955 146.44 579.123 146.76C578.291 147.08 577.339 147.24 576.267 147.24Z" fill="white"/>
</svg>
