<svg width="112" height="20" viewBox="0 0 112 20" fill="none" xmlns="http://www.w3.org/2000/svg">
<path d="M25.7969 4.98091H28.3279V16.2244H25.7969V4.98091Z" fill="white"/>
<path d="M30.3625 11.9574C30.3625 11.3409 30.4599 10.7622 30.6546 10.2214C30.8601 9.66976 31.1521 9.19385 31.5307 8.79365C31.9093 8.38263 32.369 8.05814 32.9098 7.82018C33.4506 7.58222 34.0671 7.46324 34.7594 7.46324C35.2136 7.46324 35.6301 7.50651 36.0086 7.59304C36.3872 7.66875 36.755 7.78232 37.1119 7.93375L36.6089 9.86446C36.3818 9.77793 36.133 9.70221 35.8626 9.63732C35.5922 9.57242 35.2894 9.53997 34.954 9.53997C34.2402 9.53997 33.7048 9.7617 33.3478 10.2052C33.0017 10.6486 32.8286 11.2327 32.8286 11.9574C32.8286 12.7254 32.9909 13.3203 33.3154 13.7421C33.6507 14.1639 34.2294 14.3748 35.0514 14.3748C35.3434 14.3748 35.6571 14.3478 35.9924 14.2937C36.3277 14.2396 36.636 14.1531 36.9172 14.0341L37.2579 16.0135C36.9767 16.1325 36.6252 16.2353 36.2033 16.3218C35.7815 16.4083 35.3164 16.4516 34.808 16.4516C34.0293 16.4516 33.3586 16.338 32.7962 16.1109C32.2337 15.8729 31.7686 15.5538 31.4009 15.1536C31.044 14.7534 30.779 14.2829 30.6059 13.7421C30.4437 13.1905 30.3625 12.5956 30.3625 11.9574Z" fill="white"/>
<path d="M38.0628 12.0223C38.0628 11.2652 38.1764 10.6054 38.4035 10.0429C38.6415 9.46966 38.9497 8.99375 39.3283 8.61518C39.7069 8.23661 40.1395 7.94998 40.6263 7.75528C41.1238 7.56059 41.6322 7.46324 42.1514 7.46324C43.3628 7.46324 44.32 7.8364 45.0231 8.58273C45.7261 9.31824 46.0777 10.4053 46.0777 11.8438C46.0777 11.9845 46.0723 12.1413 46.0614 12.3143C46.0506 12.4766 46.0398 12.6226 46.029 12.7524H40.5451C40.5992 13.25 40.8318 13.6448 41.2428 13.9368C41.6538 14.2288 42.2054 14.3748 42.8977 14.3748C43.3411 14.3748 43.7738 14.337 44.1956 14.2613C44.6283 14.1747 44.9798 14.072 45.2502 13.953L45.5747 15.9162C45.4449 15.9811 45.2719 16.046 45.0555 16.1109C44.8392 16.1758 44.5958 16.2298 44.3254 16.2731C44.0658 16.3272 43.7846 16.3705 43.4818 16.4029C43.1789 16.4354 42.876 16.4516 42.5732 16.4516C41.8052 16.4516 41.1346 16.338 40.5614 16.1109C39.9989 15.8837 39.5284 15.5755 39.1498 15.1861C38.7821 14.7859 38.5063 14.3154 38.3224 13.7745C38.1493 13.2337 38.0628 12.6497 38.0628 12.0223ZM43.7414 11.0975C43.7305 10.892 43.6927 10.6919 43.6278 10.4972C43.5737 10.3025 43.4818 10.1295 43.352 9.97803C43.233 9.8266 43.0761 9.70221 42.8815 9.60487C42.6976 9.50752 42.465 9.45885 42.1838 9.45885C41.9134 9.45885 41.6808 9.50752 41.4862 9.60487C41.2915 9.6914 41.1292 9.81038 40.9994 9.9618C40.8696 10.1132 40.7669 10.2917 40.6912 10.4972C40.6263 10.6919 40.5776 10.892 40.5451 11.0975H43.7414Z" fill="white"/>
<path d="M47.8621 5.56498L50.2795 5.1756V7.69038H53.1837V9.70221H50.2795V12.7037C50.2795 13.2121 50.3661 13.6177 50.5391 13.9206C50.723 14.2234 51.0854 14.3748 51.6262 14.3748C51.8858 14.3748 52.1508 14.3532 52.4212 14.31C52.7024 14.2559 52.9566 14.1856 53.1837 14.099L53.5244 15.9811C53.2324 16.1 52.9079 16.2028 52.551 16.2893C52.194 16.3759 51.756 16.4191 51.2368 16.4191C50.577 16.4191 50.0308 16.3326 49.5981 16.1595C49.1655 15.9757 48.8193 15.7269 48.5597 15.4132C48.3002 15.0887 48.1163 14.6993 48.0081 14.2451C47.9108 13.7908 47.8621 13.2878 47.8621 12.7362V5.56498Z" fill="white"/>
<path d="M54.4298 12.0223C54.4298 11.2652 54.5434 10.6054 54.7705 10.0429C55.0085 9.46966 55.3168 8.99375 55.6953 8.61518C56.0739 8.23661 56.5066 7.94998 56.9933 7.75528C57.4908 7.56059 57.9992 7.46324 58.5184 7.46324C59.7298 7.46324 60.687 7.8364 61.3901 8.58273C62.0932 9.31824 62.4447 10.4053 62.4447 11.8438C62.4447 11.9845 62.4393 12.1413 62.4285 12.3143C62.4177 12.4766 62.4068 12.6226 62.396 12.7524H56.9122C56.9662 13.25 57.1988 13.6448 57.6098 13.9368C58.0208 14.2288 58.5725 14.3748 59.2647 14.3748C59.7082 14.3748 60.1408 14.337 60.5627 14.2613C60.9953 14.1747 61.3468 14.072 61.6172 13.953L61.9417 15.9162C61.8119 15.9811 61.6389 16.046 61.4226 16.1109C61.2062 16.1758 60.9629 16.2298 60.6925 16.2731C60.4329 16.3272 60.1516 16.3705 59.8488 16.4029C59.5459 16.4354 59.2431 16.4516 58.9402 16.4516C58.1723 16.4516 57.5017 16.338 56.9284 16.1109C56.3659 15.8837 55.8954 15.5755 55.5169 15.1861C55.1491 14.7859 54.8733 14.3154 54.6894 13.7745C54.5164 13.2337 54.4298 12.6497 54.4298 12.0223ZM60.1084 11.0975C60.0976 10.892 60.0597 10.6919 59.9948 10.4972C59.9407 10.3025 59.8488 10.1295 59.719 9.97803C59.6 9.8266 59.4432 9.70221 59.2485 9.60487C59.0646 9.50752 58.8321 9.45885 58.5508 9.45885C58.2804 9.45885 58.0479 9.50752 57.8532 9.60487C57.6585 9.6914 57.4962 9.81038 57.3665 9.9618C57.2367 10.1132 57.1339 10.2917 57.0582 10.4972C56.9933 10.6919 56.9446 10.892 56.9122 11.0975H60.1084Z" fill="white"/>
<path d="M67.5714 14.5371C67.8093 14.5371 68.0365 14.5317 68.2528 14.5209C68.4691 14.5101 68.6422 14.4938 68.772 14.4722V12.6388C68.6746 12.6172 68.5286 12.5956 68.3339 12.5739C68.1392 12.5523 67.9608 12.5415 67.7985 12.5415C67.5714 12.5415 67.355 12.5577 67.1495 12.5902C66.9548 12.6118 66.7818 12.6605 66.6303 12.7362C66.4789 12.8119 66.3599 12.9147 66.2734 13.0444C66.1869 13.1742 66.1436 13.3365 66.1436 13.5312C66.1436 13.9097 66.268 14.1747 66.5168 14.3262C66.7764 14.4668 67.1279 14.5371 67.5714 14.5371ZM67.3767 7.46324C68.0905 7.46324 68.6854 7.54436 69.1614 7.70661C69.6373 7.86885 70.0158 8.1014 70.2971 8.40426C70.5891 8.70712 70.7946 9.07487 70.9136 9.50752C71.0326 9.94017 71.0921 10.4215 71.0921 10.9515V15.9811C70.7459 16.0568 70.2646 16.1433 69.6481 16.2407C69.0316 16.3488 68.2852 16.4029 67.4091 16.4029C66.8575 16.4029 66.3545 16.3542 65.9002 16.2569C65.4568 16.1595 65.0728 16.0027 64.7483 15.7864C64.4238 15.5592 64.175 15.2672 64.002 14.9103C63.8289 14.5533 63.7424 14.1153 63.7424 13.5961C63.7424 13.0985 63.8397 12.6767 64.0344 12.3306C64.2399 11.9844 64.5104 11.7086 64.8457 11.5031C65.181 11.2976 65.5649 11.1516 65.9976 11.0651C66.4302 10.9677 66.8791 10.919 67.3442 10.919C67.6579 10.919 67.9337 10.9353 68.1717 10.9677C68.4204 10.9894 68.6205 11.0218 68.772 11.0651V10.8379C68.772 10.4269 68.6476 10.097 68.3988 9.84823C68.15 9.59946 67.7174 9.47507 67.1009 9.47507C66.6898 9.47507 66.2842 9.50752 65.884 9.57242C65.4838 9.6265 65.1377 9.70762 64.8457 9.81579L64.5374 7.86885C64.678 7.82559 64.8511 7.78232 65.0566 7.73906C65.2729 7.68498 65.5055 7.64171 65.7542 7.60926C66.003 7.566 66.2626 7.53355 66.533 7.51192C66.8142 7.47947 67.0954 7.46324 67.3767 7.46324Z" fill="white"/>
<path d="M84.8499 14.0504V16.2244H77.338V4.98091H79.869V14.0504H84.8499Z" fill="white"/>
<path d="M89.769 14.5371C90.007 14.5371 90.2341 14.5317 90.4505 14.5209C90.6668 14.5101 90.8399 14.4938 90.9697 14.4722V12.6388C90.8723 12.6172 90.7263 12.5956 90.5316 12.5739C90.3369 12.5523 90.1584 12.5415 89.9962 12.5415C89.769 12.5415 89.5527 12.5577 89.3472 12.5902C89.1525 12.6118 88.9795 12.6605 88.828 12.7362C88.6766 12.8119 88.5576 12.9147 88.4711 13.0444C88.3846 13.1742 88.3413 13.3365 88.3413 13.5312C88.3413 13.9097 88.4657 14.1747 88.7145 14.3262C88.9741 14.4668 89.3256 14.5371 89.769 14.5371ZM89.5744 7.46324C90.2882 7.46324 90.8831 7.54436 91.359 7.70661C91.835 7.86885 92.2135 8.1014 92.4948 8.40426C92.7868 8.70712 92.9923 9.07487 93.1113 9.50752C93.2303 9.94017 93.2897 10.4215 93.2897 10.9515V15.9811C92.9436 16.0568 92.4623 16.1433 91.8458 16.2407C91.2292 16.3488 90.4829 16.4029 89.6068 16.4029C89.0552 16.4029 88.5522 16.3542 88.0979 16.2569C87.6545 16.1595 87.2705 16.0027 86.946 15.7864C86.6215 15.5592 86.3727 15.2672 86.1997 14.9103C86.0266 14.5533 85.9401 14.1153 85.9401 13.5961C85.9401 13.0985 86.0374 12.6767 86.2321 12.3306C86.4376 11.9844 86.708 11.7086 87.0433 11.5031C87.3786 11.2976 87.7626 11.1516 88.1953 11.0651C88.6279 10.9677 89.0768 10.919 89.5419 10.919C89.8556 10.919 90.1314 10.9353 90.3693 10.9677C90.6181 10.9894 90.8182 11.0218 90.9697 11.0651V10.8379C90.9697 10.4269 90.8453 10.097 90.5965 9.84823C90.3477 9.59946 89.9151 9.47507 89.2985 9.47507C88.8875 9.47507 88.4819 9.50752 88.0817 9.57242C87.6815 9.6265 87.3354 9.70762 87.0433 9.81579L86.7351 7.86885C86.8757 7.82559 87.0487 7.78232 87.2543 7.73906C87.4706 7.68498 87.7031 7.64171 87.9519 7.60926C88.2007 7.566 88.4603 7.53355 88.7307 7.51192C89.0119 7.47947 89.2931 7.46324 89.5744 7.46324Z" fill="white"/>
<path d="M100.943 11.8925C100.943 10.335 100.37 9.55619 99.2236 9.55619C98.9748 9.55619 98.726 9.58864 98.4772 9.65354C98.2393 9.71844 98.0446 9.79956 97.8932 9.89691V14.2937C98.0121 14.3154 98.1636 14.337 98.3475 14.3586C98.5313 14.3694 98.7314 14.3748 98.9478 14.3748C99.6076 14.3748 100.105 14.1477 100.44 13.6934C100.776 13.2391 100.943 12.6388 100.943 11.8925ZM103.409 11.9574C103.409 12.6388 103.307 13.2554 103.101 13.807C102.907 14.3586 102.62 14.8291 102.241 15.2185C101.863 15.6079 101.398 15.9108 100.846 16.1271C100.294 16.3326 99.667 16.4354 98.964 16.4354C98.6719 16.4354 98.3637 16.4191 98.0392 16.3867C97.7255 16.365 97.4118 16.3326 97.0982 16.2893C96.7953 16.2461 96.5033 16.1974 96.2221 16.1433C95.9408 16.0784 95.6921 16.0135 95.4757 15.9486V4.02366L97.8932 3.63428V7.88508C98.1636 7.7661 98.4448 7.67416 98.7368 7.60926C99.0289 7.54437 99.3426 7.51192 99.6779 7.51192C100.284 7.51192 100.819 7.62008 101.284 7.8364C101.749 8.04191 102.139 8.33936 102.452 8.72875C102.766 9.11813 103.004 9.58864 103.166 10.1403C103.328 10.6811 103.409 11.2868 103.409 11.9574Z" fill="white"/>
<path d="M107.717 14.4884C108.161 14.4884 108.474 14.4452 108.658 14.3586C108.842 14.2721 108.934 14.1044 108.934 13.8557C108.934 13.661 108.815 13.4933 108.577 13.3527C108.339 13.2013 107.977 13.0336 107.49 12.8498C107.112 12.7091 106.765 12.5631 106.452 12.4117C106.149 12.2603 105.889 12.0818 105.673 11.8763C105.457 11.66 105.289 11.4058 105.17 11.1137C105.051 10.8217 104.992 10.4702 104.992 10.0592C104.992 9.25875 105.289 8.62599 105.884 8.16089C106.479 7.69579 107.295 7.46324 108.334 7.46324C108.853 7.46324 109.351 7.51192 109.826 7.60926C110.302 7.69579 110.681 7.79314 110.962 7.9013L110.54 9.78334C110.259 9.68599 109.951 9.59946 109.616 9.52375C109.291 9.44803 108.923 9.41017 108.512 9.41017C107.755 9.41017 107.377 9.62109 107.377 10.0429C107.377 10.1403 107.393 10.2268 107.425 10.3025C107.458 10.3782 107.523 10.4539 107.62 10.5297C107.717 10.5946 107.847 10.6703 108.009 10.7568C108.182 10.8325 108.399 10.919 108.658 11.0164C109.188 11.2111 109.626 11.4058 109.973 11.6005C110.319 11.7843 110.589 11.9899 110.784 12.217C110.989 12.4333 111.13 12.6767 111.206 12.9471C111.292 13.2175 111.335 13.5312 111.335 13.8881C111.335 14.7318 111.016 15.3699 110.378 15.8026C109.751 16.2353 108.858 16.4516 107.701 16.4516C106.944 16.4516 106.311 16.3867 105.803 16.2569C105.305 16.1271 104.959 16.0189 104.764 15.9324L105.17 13.9692C105.581 14.1315 106.003 14.2613 106.436 14.3586C106.868 14.4452 107.295 14.4884 107.717 14.4884Z" fill="white"/>
<path d="M9.98613 20C15.5013 20 19.9723 15.5228 19.9723 10C19.9723 4.47715 15.5013 0 9.98613 0C4.47094 0 0 4.47715 0 10C0 15.5228 4.47094 20 9.98613 20Z" fill="white"/>
<path fill-rule="evenodd" clip-rule="evenodd" d="M9.54975 11.2875H13.0197C13.3064 11.2875 13.544 11.5125 13.544 11.8126V15.2873C13.544 15.5745 13.3193 15.8124 13.0197 15.8124H9.54975C9.263 15.8124 9.02539 15.5874 9.02539 15.2873V11.7876C9.02539 11.5125 9.23803 11.2875 9.54975 11.2875Z" fill="#00C7F4"/>
<path fill-rule="evenodd" clip-rule="evenodd" d="M11.2597 9.01205L13.3564 6.22451C13.5432 5.99947 13.8557 5.93736 14.0805 6.12449L16.8642 8.22402C17.0889 8.41115 17.1509 8.7241 16.964 8.94914L14.8674 11.7117C14.6805 11.9367 14.368 11.9988 14.1433 11.8117L11.3596 9.71216C11.1349 9.55004 11.0978 9.23709 11.2597 9.01205Z" fill="#00C7F4"/>
<path fill-rule="evenodd" clip-rule="evenodd" d="M5.40269 10.5622L8.51097 12.1374C8.77274 12.2624 8.87262 12.5875 8.73569 12.8246L7.16262 15.9372C7.03778 16.1994 6.71317 16.2994 6.47637 16.1623L3.36809 14.587C3.10631 14.462 3.00643 14.1369 3.14336 13.8998L4.71643 10.7872C4.84128 10.5243 5.14091 10.4242 5.40269 10.5622Z" fill="#00C7F4"/>
</svg>
