<svg width="636" height="172" viewBox="0 0 636 172" fill="none" xmlns="http://www.w3.org/2000/svg">
<rect x="4" width="632" height="172" rx="24" fill="#8585FA"/>
<path d="M0 24C0 10.7452 10.7452 0 24 0H238V172H24C10.7452 172 0 161.255 0 148V24Z" fill="#B0B1FF"/>
<path d="M522.749 100.915C522.662 100.084 522.573 99.2713 522.491 98.4569C522.211 95.6883 521.933 92.9206 521.654 90.1519C521.384 87.4634 521.118 84.775 520.847 82.0865C520.603 79.6695 520.356 77.2534 520.112 74.8374C520.091 74.6297 520.069 74.421 520.063 74.2123C520.041 73.2676 520.657 72.6184 521.602 72.6165C524.067 72.6097 526.531 72.6136 528.996 72.6136C541.593 72.6136 554.189 72.6136 566.786 72.6136C568.172 72.6136 568.725 73.1999 568.589 74.5862C568.187 78.6677 567.766 82.7473 567.356 86.8288C567.051 89.8698 566.754 92.9109 566.449 95.952C566.283 97.5971 566.111 99.2413 565.938 100.916H522.749V100.915ZM542.272 86.7515C542.261 87.9204 543.17 88.8497 544.331 88.8536C545.487 88.8584 546.436 87.9233 546.437 86.7785C546.437 85.6637 545.503 84.7141 544.383 84.6899C543.236 84.6648 542.283 85.5951 542.272 86.7505V86.7515Z" fill="white"/>
<path d="M568.992 97.5286C569.198 95.468 569.397 93.4625 569.599 91.458C569.817 89.2844 570.039 87.1108 570.258 84.9373C570.545 82.0952 570.832 79.2531 571.119 76.411C571.228 75.3407 571.364 74.2722 571.437 73.1999C571.561 71.3509 570.034 69.7657 568.124 69.7628C562.587 69.7531 557.049 69.7589 551.512 69.7589C541.229 69.7589 530.946 69.7589 520.662 69.7589C518.898 69.7589 517.499 70.8051 517.271 72.4445C517.157 73.2608 517.285 74.1196 517.363 74.9533C517.603 77.4969 517.87 80.0366 518.128 82.5782C518.419 85.4367 518.713 88.2952 519.002 91.1547C519.204 93.1582 519.399 95.1627 519.607 97.261C518.922 97.0745 518.3 96.9113 517.681 96.7354C514.845 95.9298 512.114 94.8633 509.497 93.5002C509.108 93.2973 508.998 93.0548 509 92.6385C509.016 88.5077 509.845 84.5306 511.271 80.6703C513.291 75.2025 516.247 70.3231 520.495 66.2822C523.275 63.6381 526.442 61.6307 530.163 60.5594C530.536 60.4521 530.765 60.5169 531.046 60.7787C534.105 63.6275 537.639 65.5596 541.795 66.2706C546.092 67.0067 550.157 66.2899 554.015 64.3095C555.852 63.3667 557.513 62.1688 559.002 60.741C559.253 60.5004 559.47 60.4502 559.8 60.5449C563.418 61.5805 566.55 63.4749 569.253 66.0474C575.432 71.9277 579.065 79.1797 580.537 87.5282C580.842 89.2564 580.851 91.0368 580.996 92.794C581.018 93.0606 580.964 93.2568 580.685 93.4046C577.07 95.3241 573.232 96.6234 569.25 97.5257C569.188 97.5401 569.12 97.5276 568.991 97.5276L568.992 97.5286Z" fill="white"/>
<path d="M544.976 101.902C552.643 101.902 560.311 101.902 567.978 101.902C569.698 101.902 570.473 102.953 569.968 104.602C569.534 106.023 568.264 106.983 566.75 106.993C564.512 107.006 562.273 106.997 560.033 106.997C547.856 106.997 535.678 106.997 523.5 106.997C521.616 106.997 520.263 105.926 519.943 104.184C519.695 102.828 520.453 101.904 521.828 101.904C527.417 101.901 533.007 101.903 538.596 101.903C540.723 101.903 542.848 101.903 544.975 101.903L544.976 101.902Z" fill="white"/>
<path d="M545.001 63.4256C554.513 63.4256 562.225 55.7192 562.225 46.2128C562.225 36.7064 554.513 29 545.001 29C535.489 29 527.778 36.7064 527.778 46.2128C527.778 55.7192 535.489 63.4256 545.001 63.4256Z" fill="white"/>
<path d="M486.382 130.2H496.894V133.392H489.79V143.76H497.086V147H486.382V130.2ZM489.262 136.968H496.414V140.136H489.262V136.968ZM500.042 134.28H503.114L503.258 136.704L502.874 136.248C503.194 135.768 503.578 135.368 504.026 135.048C504.49 134.712 504.994 134.464 505.538 134.304C506.082 134.128 506.674 134.04 507.314 134.04C508.402 134.04 509.322 134.264 510.074 134.712C510.826 135.16 511.386 135.808 511.754 136.656C512.122 137.504 512.306 138.512 512.306 139.68V147H509.09V140.016C509.09 139.04 508.858 138.296 508.394 137.784C507.946 137.272 507.29 137.016 506.426 137.016C505.786 137.016 505.226 137.144 504.746 137.4C504.282 137.64 503.922 137.992 503.666 138.456C503.41 138.904 503.282 139.44 503.282 140.064V147H500.042V134.28ZM521.553 151.128C519.857 151.128 518.441 150.752 517.305 150C516.169 149.248 515.505 148.16 515.313 146.736H518.529C518.657 147.248 518.985 147.632 519.513 147.888C520.041 148.144 520.657 148.272 521.361 148.272C522.417 148.272 523.265 148.016 523.905 147.504C524.561 147.008 524.889 146.288 524.889 145.344V142.944L525.921 140.4L524.985 137.904L525.249 134.28H528.105V145.032C528.105 146.312 527.817 147.408 527.241 148.32C526.681 149.248 525.905 149.944 524.913 150.408C523.921 150.888 522.801 151.128 521.553 151.128ZM521.025 146.256C519.873 146.256 518.825 145.992 517.881 145.464C516.953 144.936 516.217 144.216 515.673 143.304C515.129 142.376 514.857 141.328 514.857 140.16C514.857 139.008 515.121 137.968 515.649 137.04C516.193 136.096 516.937 135.36 517.881 134.832C518.825 134.288 519.873 134.016 521.025 134.016C522.161 134.016 523.201 134.288 524.145 134.832C525.089 135.376 525.825 136.12 526.353 137.064C526.897 137.992 527.169 139.024 527.169 140.16C527.169 141.296 526.897 142.328 526.353 143.256C525.825 144.168 525.089 144.896 524.145 145.44C523.201 145.984 522.161 146.256 521.025 146.256ZM521.529 143.472C522.185 143.472 522.769 143.336 523.281 143.064C523.809 142.792 524.209 142.408 524.481 141.912C524.769 141.416 524.913 140.848 524.913 140.208C524.913 139.568 524.769 139.008 524.481 138.528C524.209 138.032 523.809 137.648 523.281 137.376C522.769 137.104 522.185 136.968 521.529 136.968C520.857 136.968 520.257 137.112 519.729 137.4C519.217 137.672 518.817 138.056 518.529 138.552C518.257 139.032 518.121 139.584 518.121 140.208C518.121 140.848 518.257 141.416 518.529 141.912C518.817 142.392 519.217 142.776 519.729 143.064C520.257 143.336 520.857 143.472 521.529 143.472ZM531.706 134.28H534.946V147H531.706V134.28ZM533.338 133.032C532.746 133.032 532.258 132.848 531.874 132.48C531.506 132.096 531.322 131.632 531.322 131.088C531.322 130.528 531.506 130.064 531.874 129.696C532.258 129.312 532.746 129.12 533.338 129.12C533.914 129.12 534.386 129.312 534.754 129.696C535.138 130.064 535.33 130.528 535.33 131.088C535.33 131.632 535.138 132.096 534.754 132.48C534.386 132.848 533.914 133.032 533.338 133.032ZM538.55 134.28H541.622L541.766 136.704L541.382 136.248C541.702 135.768 542.086 135.368 542.534 135.048C542.998 134.712 543.502 134.464 544.046 134.304C544.59 134.128 545.182 134.04 545.822 134.04C546.91 134.04 547.83 134.264 548.582 134.712C549.334 135.16 549.894 135.808 550.262 136.656C550.63 137.504 550.814 138.512 550.814 139.68V147H547.598V140.016C547.598 139.04 547.366 138.296 546.902 137.784C546.454 137.272 545.798 137.016 544.934 137.016C544.294 137.016 543.734 137.144 543.254 137.4C542.79 137.64 542.43 137.992 542.174 138.456C541.918 138.904 541.79 139.44 541.79 140.064V147H538.55V134.28ZM560.037 147.264C558.757 147.264 557.613 146.984 556.605 146.424C555.597 145.848 554.805 145.056 554.229 144.048C553.653 143.04 553.365 141.904 553.365 140.64C553.365 139.376 553.653 138.24 554.229 137.232C554.805 136.224 555.597 135.44 556.605 134.88C557.613 134.304 558.757 134.016 560.037 134.016C561.429 134.016 562.661 134.352 563.733 135.024C564.805 135.68 565.597 136.592 566.109 137.76C566.621 138.928 566.789 140.24 566.613 141.696H563.469C563.629 140.832 563.597 140.04 563.373 139.32C563.149 138.584 562.741 138.008 562.149 137.592C561.573 137.176 560.869 136.968 560.037 136.968C559.349 136.968 558.733 137.12 558.189 137.424C557.661 137.728 557.253 138.16 556.965 138.72C556.677 139.264 556.533 139.904 556.533 140.64C556.533 141.376 556.677 142.024 556.965 142.584C557.253 143.144 557.661 143.576 558.189 143.88C558.733 144.168 559.349 144.312 560.037 144.312C560.629 144.312 561.173 144.2 561.669 143.976C562.165 143.752 562.549 143.448 562.821 143.064H566.325C565.877 144.344 565.085 145.368 563.949 146.136C562.829 146.888 561.525 147.264 560.037 147.264ZM555.237 139.44H566.013V141.696H555.237V139.44ZM575.107 147.264C573.827 147.264 572.683 146.984 571.675 146.424C570.667 145.848 569.875 145.056 569.299 144.048C568.723 143.04 568.435 141.904 568.435 140.64C568.435 139.376 568.723 138.24 569.299 137.232C569.875 136.224 570.667 135.44 571.675 134.88C572.683 134.304 573.827 134.016 575.107 134.016C576.499 134.016 577.731 134.352 578.803 135.024C579.875 135.68 580.667 136.592 581.179 137.76C581.691 138.928 581.859 140.24 581.683 141.696H578.539C578.699 140.832 578.667 140.04 578.443 139.32C578.219 138.584 577.811 138.008 577.219 137.592C576.643 137.176 575.939 136.968 575.107 136.968C574.419 136.968 573.803 137.12 573.259 137.424C572.731 137.728 572.323 138.16 572.035 138.72C571.747 139.264 571.603 139.904 571.603 140.64C571.603 141.376 571.747 142.024 572.035 142.584C572.323 143.144 572.731 143.576 573.259 143.88C573.803 144.168 574.419 144.312 575.107 144.312C575.699 144.312 576.243 144.2 576.739 143.976C577.235 143.752 577.619 143.448 577.891 143.064H581.395C580.947 144.344 580.155 145.368 579.019 146.136C577.899 146.888 576.595 147.264 575.107 147.264ZM570.307 139.44H581.083V141.696H570.307V139.44ZM584.394 134.28H587.418L587.61 137.016L587.01 136.512C587.426 135.728 587.978 135.128 588.666 134.712C589.37 134.296 590.17 134.088 591.066 134.088C591.514 134.088 592.01 134.152 592.554 134.28V137.256C592.01 137.144 591.522 137.088 591.09 137.088C590.402 137.088 589.794 137.224 589.266 137.496C588.738 137.768 588.33 138.16 588.042 138.672C587.77 139.184 587.634 139.792 587.634 140.496V147H584.394V134.28ZM599.267 147.24C598.195 147.24 597.251 147.072 596.435 146.736C595.619 146.384 594.979 145.888 594.515 145.248C594.051 144.608 593.803 143.856 593.771 142.992H597.011C597.043 143.472 597.259 143.848 597.659 144.12C598.075 144.376 598.627 144.504 599.315 144.504C599.987 144.504 600.515 144.4 600.899 144.192C601.299 143.968 601.499 143.656 601.499 143.256C601.499 143 601.419 142.792 601.259 142.632C601.115 142.472 600.851 142.336 600.467 142.224C600.083 142.112 599.539 142.008 598.835 141.912C597.683 141.752 596.747 141.512 596.027 141.192C595.323 140.856 594.795 140.432 594.443 139.92C594.107 139.392 593.939 138.752 593.939 138C593.939 137.184 594.163 136.48 594.611 135.888C595.059 135.28 595.683 134.816 596.483 134.496C597.283 134.176 598.203 134.016 599.243 134.016C600.219 134.016 601.091 134.184 601.859 134.52C602.643 134.856 603.259 135.336 603.707 135.96C604.155 136.568 604.403 137.264 604.451 138.048H601.307C601.243 137.632 601.027 137.312 600.659 137.088C600.307 136.848 599.811 136.728 599.171 136.728C598.531 136.728 598.035 136.832 597.683 137.04C597.347 137.248 597.179 137.536 597.179 137.904C597.179 138.176 597.267 138.4 597.443 138.576C597.619 138.752 597.899 138.896 598.283 139.008C598.683 139.12 599.227 139.224 599.915 139.32C601.515 139.528 602.723 139.936 603.539 140.544C604.355 141.152 604.763 142.032 604.763 143.184C604.763 144.016 604.531 144.744 604.067 145.368C603.603 145.976 602.955 146.44 602.123 146.76C601.291 147.08 600.339 147.24 599.267 147.24Z" fill="white"/>
<path d="M327.995 130.2H334.355C335.507 130.2 336.515 130.448 337.379 130.944C338.259 131.424 338.931 132.112 339.395 133.008C339.875 133.888 340.115 134.904 340.115 136.056C340.115 137.224 339.875 138.248 339.395 139.128C338.931 140.008 338.259 140.696 337.379 141.192C336.515 141.672 335.507 141.912 334.355 141.912H330.323V138.72H333.995C334.539 138.72 335.003 138.616 335.387 138.408C335.787 138.184 336.091 137.88 336.299 137.496C336.507 137.096 336.611 136.624 336.611 136.08C336.611 135.552 336.507 135.096 336.299 134.712C336.091 134.312 335.787 134.008 335.387 133.8C335.003 133.576 334.539 133.464 333.995 133.464H330.035L331.403 132.144V139.488V141.096V147H327.995V130.2ZM342.527 130.2H345.191L351.335 139.104H350.303L356.375 130.2H359.015V147H355.583V141.888V135.936L356.039 136.08L351.695 142.32H349.871L345.503 136.056L345.935 135.912V141.888V147H342.527V130.2Z" fill="white"/>
<circle cx="343" cy="46.4474" r="17.4474" fill="white"/>
<path d="M310.177 107C309.697 92.2274 318.315 75.6835 331.768 70.3621C331.861 70.9036 331.874 71.483 332.061 71.9992C334.869 79.712 337.7 87.4196 340.528 95.1247C340.621 95.3828 340.761 95.6232 341.039 95.8181C340.257 91.906 339.508 87.9864 338.669 84.0871C338.461 83.1179 338.605 82.4144 339.268 81.6832C340.455 80.3749 341.555 78.9883 342.759 77.556C341.666 76.2579 340.599 74.9193 339.453 73.6541C338.856 72.9962 338.805 72.4901 339.412 71.8221C340.374 70.7619 341.289 69.6586 342.19 68.5452C342.739 67.8671 343.197 67.781 343.784 68.5174C344.702 69.6687 345.668 70.7872 346.639 71.8955C347.14 72.4674 347.166 72.933 346.634 73.5301C345.486 74.8181 344.401 76.1643 343.235 77.551C344.444 78.9958 345.623 80.466 346.875 81.8653C347.452 82.5106 347.52 83.1306 347.35 83.9403C346.523 87.8877 345.749 91.8478 345.076 95.8383C348.228 87.3817 351.522 78.9807 354.405 70.443C367.13 75.4027 376.241 91.4759 375.829 107H310.177Z" fill="white"/>
<path d="M78.6491 147.264C77.0331 147.264 75.5771 146.896 74.2811 146.16C73.0011 145.408 71.9931 144.376 71.2571 143.064C70.5371 141.752 70.1771 140.264 70.1771 138.6C70.1771 136.936 70.5371 135.448 71.2571 134.136C71.9931 132.824 73.0011 131.8 74.2811 131.064C75.5771 130.312 77.0331 129.936 78.6491 129.936C80.0251 129.936 81.2891 130.208 82.4411 130.752C83.5931 131.296 84.5611 132.064 85.3451 133.056C86.1291 134.048 86.6571 135.2 86.9291 136.512H83.4011C83.0651 135.504 82.4811 134.712 81.6491 134.136C80.8171 133.56 79.8411 133.272 78.7211 133.272C77.7611 133.272 76.8971 133.504 76.1291 133.968C75.3611 134.416 74.7611 135.048 74.3291 135.864C73.9131 136.664 73.7051 137.576 73.7051 138.6C73.7051 139.624 73.9131 140.544 74.3291 141.36C74.7611 142.16 75.3611 142.792 76.1291 143.256C76.8971 143.704 77.7611 143.928 78.7211 143.928C79.8411 143.928 80.8251 143.624 81.6731 143.016C82.5371 142.408 83.1291 141.576 83.4491 140.52H86.9771C86.7051 141.864 86.1771 143.048 85.3931 144.072C84.6091 145.096 83.6331 145.888 82.4651 146.448C81.3131 146.992 80.0411 147.264 78.6491 147.264ZM94.3762 147.24C93.3362 147.24 92.4482 147.024 91.7122 146.592C90.9762 146.16 90.4082 145.52 90.0082 144.672C89.6242 143.824 89.4322 142.8 89.4322 141.6V134.28H92.6722V141.24C92.6722 142.232 92.8882 142.984 93.3202 143.496C93.7522 144.008 94.3922 144.264 95.2402 144.264C95.8642 144.264 96.4162 144.144 96.8962 143.904C97.3762 143.648 97.7362 143.288 97.9762 142.824C98.2322 142.36 98.3602 141.816 98.3602 141.192V134.28H101.6V147H98.5042L98.4082 144.576L98.8162 145.032C98.4802 145.512 98.0802 145.92 97.6162 146.256C97.1682 146.576 96.6722 146.824 96.1282 147C95.5842 147.16 95.0002 147.24 94.3762 147.24ZM109.607 147.24C108.535 147.24 107.591 147.072 106.775 146.736C105.959 146.384 105.319 145.888 104.855 145.248C104.391 144.608 104.143 143.856 104.111 142.992H107.351C107.383 143.472 107.599 143.848 107.999 144.12C108.415 144.376 108.967 144.504 109.655 144.504C110.327 144.504 110.855 144.4 111.239 144.192C111.639 143.968 111.839 143.656 111.839 143.256C111.839 143 111.759 142.792 111.599 142.632C111.455 142.472 111.191 142.336 110.807 142.224C110.423 142.112 109.879 142.008 109.175 141.912C108.023 141.752 107.087 141.512 106.367 141.192C105.663 140.856 105.135 140.432 104.783 139.92C104.447 139.392 104.279 138.752 104.279 138C104.279 137.184 104.503 136.48 104.951 135.888C105.399 135.28 106.023 134.816 106.823 134.496C107.623 134.176 108.543 134.016 109.583 134.016C110.559 134.016 111.431 134.184 112.199 134.52C112.983 134.856 113.599 135.336 114.047 135.96C114.495 136.568 114.743 137.264 114.791 138.048H111.647C111.583 137.632 111.367 137.312 110.999 137.088C110.647 136.848 110.151 136.728 109.511 136.728C108.871 136.728 108.375 136.832 108.023 137.04C107.687 137.248 107.519 137.536 107.519 137.904C107.519 138.176 107.607 138.4 107.783 138.576C107.959 138.752 108.239 138.896 108.623 139.008C109.023 139.12 109.567 139.224 110.255 139.32C111.855 139.528 113.063 139.936 113.879 140.544C114.695 141.152 115.103 142.032 115.103 143.184C115.103 144.016 114.871 144.744 114.407 145.368C113.943 145.976 113.295 146.44 112.463 146.76C111.631 147.08 110.679 147.24 109.607 147.24ZM123.106 147.192C121.634 147.192 120.498 146.832 119.698 146.112C118.914 145.376 118.522 144.264 118.522 142.776V131.52L121.762 131.184V142.416C121.762 143.088 121.93 143.576 122.266 143.88C122.602 144.168 123.13 144.312 123.85 144.312C124.25 144.312 124.65 144.28 125.05 144.216V147C124.346 147.128 123.698 147.192 123.106 147.192ZM116.218 134.28H124.882V137.016H116.218V134.28ZM133.544 147.264C132.248 147.264 131.08 146.984 130.04 146.424C129.016 145.848 128.208 145.056 127.616 144.048C127.04 143.04 126.752 141.904 126.752 140.64C126.752 139.376 127.04 138.24 127.616 137.232C128.208 136.224 129.016 135.44 130.04 134.88C131.08 134.304 132.248 134.016 133.544 134.016C134.84 134.016 136 134.304 137.024 134.88C138.064 135.44 138.872 136.224 139.448 137.232C140.04 138.24 140.336 139.376 140.336 140.64C140.336 141.904 140.04 143.04 139.448 144.048C138.872 145.056 138.064 145.848 137.024 146.424C136 146.984 134.84 147.264 133.544 147.264ZM133.544 144.24C134.216 144.24 134.816 144.088 135.344 143.784C135.888 143.464 136.304 143.032 136.592 142.488C136.896 141.944 137.048 141.328 137.048 140.64C137.048 139.952 136.896 139.336 136.592 138.792C136.304 138.248 135.888 137.824 135.344 137.52C134.816 137.2 134.216 137.04 133.544 137.04C132.872 137.04 132.264 137.2 131.72 137.52C131.192 137.824 130.776 138.248 130.472 138.792C130.184 139.336 130.04 139.952 130.04 140.64C130.04 141.328 130.184 141.944 130.472 142.488C130.776 143.032 131.192 143.464 131.72 143.784C132.264 144.088 132.872 144.24 133.544 144.24ZM143.038 134.28H146.11L146.254 136.92L145.774 136.416C146.206 135.664 146.798 135.08 147.55 134.664C148.318 134.248 149.182 134.04 150.142 134.04C151.278 134.04 152.222 134.312 152.974 134.856C153.742 135.4 154.278 136.184 154.582 137.208H153.502C154.11 136.168 154.854 135.384 155.734 134.856C156.63 134.312 157.646 134.04 158.782 134.04C159.838 134.04 160.734 134.256 161.47 134.688C162.206 135.12 162.758 135.76 163.126 136.608C163.51 137.44 163.702 138.464 163.702 139.68V147H160.486V139.992C160.486 139.016 160.27 138.28 159.838 137.784C159.422 137.272 158.798 137.016 157.966 137.016C157.374 137.016 156.854 137.144 156.406 137.4C155.958 137.64 155.606 137.984 155.35 138.432C155.11 138.88 154.99 139.4 154.99 139.992V147H151.774V139.992C151.774 139.016 151.558 138.28 151.126 137.784C150.694 137.272 150.07 137.016 149.254 137.016C148.646 137.016 148.118 137.144 147.67 137.4C147.238 137.64 146.894 137.984 146.638 138.432C146.398 138.88 146.278 139.4 146.278 139.992V147H143.038V134.28ZM172.916 147.264C171.636 147.264 170.492 146.984 169.484 146.424C168.476 145.848 167.684 145.056 167.108 144.048C166.532 143.04 166.244 141.904 166.244 140.64C166.244 139.376 166.532 138.24 167.108 137.232C167.684 136.224 168.476 135.44 169.484 134.88C170.492 134.304 171.636 134.016 172.916 134.016C174.308 134.016 175.54 134.352 176.612 135.024C177.684 135.68 178.476 136.592 178.988 137.76C179.5 138.928 179.668 140.24 179.492 141.696H176.348C176.508 140.832 176.476 140.04 176.252 139.32C176.028 138.584 175.62 138.008 175.028 137.592C174.452 137.176 173.748 136.968 172.916 136.968C172.228 136.968 171.612 137.12 171.068 137.424C170.54 137.728 170.132 138.16 169.844 138.72C169.556 139.264 169.412 139.904 169.412 140.64C169.412 141.376 169.556 142.024 169.844 142.584C170.132 143.144 170.54 143.576 171.068 143.88C171.612 144.168 172.228 144.312 172.916 144.312C173.508 144.312 174.052 144.2 174.548 143.976C175.044 143.752 175.428 143.448 175.7 143.064H179.204C178.756 144.344 177.964 145.368 176.828 146.136C175.708 146.888 174.404 147.264 172.916 147.264ZM168.116 139.44H178.892V141.696H168.116V139.44ZM182.202 134.28H185.226L185.418 137.016L184.818 136.512C185.234 135.728 185.786 135.128 186.474 134.712C187.178 134.296 187.978 134.088 188.874 134.088C189.322 134.088 189.818 134.152 190.362 134.28V137.256C189.818 137.144 189.33 137.088 188.898 137.088C188.21 137.088 187.602 137.224 187.074 137.496C186.546 137.768 186.138 138.16 185.85 138.672C185.578 139.184 185.442 139.792 185.442 140.496V147H182.202V134.28Z" fill="white"/>
<path d="M152.995 107H86C86.2645 104.52 86.3878 102.077 86.8012 99.6801C88.2547 91.2998 91.8268 83.8742 98.1724 77.8436C104.69 71.6481 112.507 68.4348 121.796 69.0819C129.186 69.5986 135.429 72.6348 140.671 77.5582C147.597 84.0611 151.284 92.1068 152.591 101.22C152.823 102.839 152.869 104.485 152.992 106.119C153.01 106.36 152.992 106.604 152.992 106.998L152.995 107Z" fill="white"/>
<circle cx="120" cy="46" r="17" fill="white"/>
<circle cx="238" cy="91" r="24" fill="#5E61F0"/>
<path d="M253.429 87.8158C253.429 87.8158 253.453 87.7835 253.464 87.7656C253.474 87.7476 253.484 87.7333 253.491 87.7153C253.498 87.701 253.508 87.6866 253.515 87.6686C253.526 87.6507 253.533 87.6328 253.54 87.6148C253.546 87.6004 253.553 87.5825 253.56 87.5681C253.567 87.5502 253.574 87.5322 253.578 87.5143C253.584 87.4963 253.591 87.4784 253.595 87.4605C253.598 87.4425 253.605 87.4246 253.609 87.4066C253.612 87.3887 253.619 87.3707 253.622 87.3528C253.626 87.3312 253.629 87.3097 253.633 87.2882C253.633 87.2738 253.636 87.2559 253.64 87.2415C253.647 87.1661 253.647 87.0907 253.64 87.0154C253.64 87.001 253.636 86.9831 253.633 86.9687C253.633 86.9472 253.626 86.9256 253.622 86.9041C253.619 86.8861 253.615 86.8682 253.609 86.8502C253.605 86.8323 253.602 86.8143 253.595 86.7964C253.588 86.7784 253.584 86.7605 253.578 86.7426C253.571 86.7246 253.567 86.7067 253.56 86.6887C253.553 86.6708 253.546 86.6564 253.54 86.642C253.533 86.6241 253.522 86.6062 253.515 86.5882C253.508 86.5738 253.498 86.5595 253.491 86.5415C253.481 86.5236 253.474 86.5092 253.464 86.4913C253.453 86.4733 253.439 86.459 253.429 86.441C253.419 86.4267 253.412 86.4123 253.401 86.4016C253.377 86.3728 253.353 86.3441 253.329 86.319L246.598 79.3338C246.17 78.8887 245.476 78.8887 245.052 79.3338C244.627 79.7789 244.624 80.5004 245.052 80.9419L249.912 85.9959H236.302C235.698 85.9959 235.208 86.5056 235.208 87.1338C235.208 87.762 235.698 88.2717 236.302 88.2717H249.912L245.052 93.3257C244.624 93.7708 244.624 94.4923 245.052 94.9338C245.266 95.1563 245.545 95.2676 245.825 95.2676C246.105 95.2676 246.384 95.1563 246.598 94.9338L253.329 87.9343C253.353 87.9091 253.377 87.8804 253.401 87.8517C253.412 87.8374 253.422 87.823 253.429 87.8122V87.8158Z" fill="white"/>
<path d="M222.216 95.9491C222.216 95.9491 222.192 95.9168 222.181 95.8989C222.171 95.8809 222.161 95.8666 222.154 95.8486C222.147 95.8343 222.136 95.8199 222.129 95.8019C222.119 95.784 222.112 95.7661 222.105 95.7481C222.098 95.7337 222.091 95.7158 222.085 95.7014C222.078 95.6835 222.071 95.6655 222.067 95.6476C222.06 95.6297 222.053 95.6117 222.05 95.5938C222.047 95.5758 222.04 95.5579 222.036 95.5399C222.033 95.522 222.026 95.504 222.022 95.4861C222.019 95.4645 222.016 95.443 222.012 95.4215C222.012 95.4071 222.009 95.3892 222.005 95.3748C221.998 95.2994 221.998 95.224 222.005 95.1487C222.005 95.1343 222.009 95.1164 222.012 95.102C222.012 95.0805 222.019 95.0589 222.022 95.0374C222.026 95.0194 222.029 95.0015 222.036 94.9835C222.04 94.9656 222.043 94.9476 222.05 94.9297C222.057 94.9117 222.06 94.8938 222.067 94.8759C222.074 94.8579 222.078 94.84 222.085 94.822C222.091 94.8041 222.098 94.7897 222.105 94.7753C222.112 94.7574 222.123 94.7395 222.129 94.7215C222.136 94.7071 222.147 94.6928 222.154 94.6748C222.164 94.6569 222.171 94.6425 222.181 94.6246C222.192 94.6066 222.205 94.5923 222.216 94.5743C222.226 94.56 222.233 94.5456 222.243 94.5349C222.268 94.5061 222.292 94.4774 222.316 94.4523L229.047 87.4671C229.475 87.022 230.168 87.022 230.593 87.4671C231.018 87.9122 231.021 88.6337 230.593 89.0752L225.733 94.1292H239.342C239.946 94.1292 240.437 94.6389 240.437 95.2671C240.437 95.8953 239.946 96.405 239.342 96.405H225.733L230.593 101.459C231.021 101.904 231.021 102.626 230.593 103.067C230.379 103.29 230.099 103.401 229.82 103.401C229.54 103.401 229.261 103.29 229.047 103.067L222.316 96.0676C222.292 96.0424 222.268 96.0137 222.243 95.985C222.233 95.9707 222.223 95.9563 222.216 95.9455V95.9491Z" fill="white"/>
<path d="M456.429 87.8158C456.429 87.8158 456.453 87.7835 456.464 87.7656C456.474 87.7476 456.484 87.7333 456.491 87.7153C456.498 87.701 456.508 87.6866 456.515 87.6686C456.526 87.6507 456.533 87.6328 456.54 87.6148C456.546 87.6004 456.553 87.5825 456.56 87.5681C456.567 87.5502 456.574 87.5322 456.578 87.5143C456.584 87.4963 456.591 87.4784 456.595 87.4605C456.598 87.4425 456.605 87.4246 456.609 87.4066C456.612 87.3887 456.619 87.3707 456.622 87.3528C456.626 87.3312 456.629 87.3097 456.633 87.2882C456.633 87.2738 456.636 87.2559 456.64 87.2415C456.647 87.1661 456.647 87.0907 456.64 87.0154C456.64 87.001 456.636 86.9831 456.633 86.9687C456.633 86.9472 456.626 86.9256 456.622 86.9041C456.619 86.8861 456.615 86.8682 456.609 86.8502C456.605 86.8323 456.602 86.8143 456.595 86.7964C456.588 86.7784 456.584 86.7605 456.578 86.7426C456.571 86.7246 456.567 86.7067 456.56 86.6887C456.553 86.6708 456.546 86.6564 456.54 86.642C456.533 86.6241 456.522 86.6062 456.515 86.5882C456.508 86.5738 456.498 86.5595 456.491 86.5415C456.481 86.5236 456.474 86.5092 456.464 86.4913C456.453 86.4733 456.439 86.459 456.429 86.441C456.419 86.4267 456.412 86.4123 456.401 86.4016C456.377 86.3728 456.353 86.3441 456.329 86.319L449.598 79.3338C449.17 78.8887 448.476 78.8887 448.052 79.3338C447.627 79.7789 447.624 80.5004 448.052 80.9419L452.912 85.9959H439.302C438.698 85.9959 438.208 86.5056 438.208 87.1338C438.208 87.762 438.698 88.2717 439.302 88.2717H452.912L448.052 93.3257C447.624 93.7708 447.624 94.4923 448.052 94.9338C448.266 95.1563 448.545 95.2676 448.825 95.2676C449.105 95.2676 449.384 95.1563 449.598 94.9338L456.329 87.9343C456.353 87.9091 456.377 87.8804 456.401 87.8517C456.412 87.8374 456.422 87.823 456.429 87.8122V87.8158Z" fill="white"/>
<path d="M425.216 95.9491C425.216 95.9491 425.192 95.9168 425.181 95.8989C425.171 95.8809 425.161 95.8666 425.154 95.8486C425.147 95.8343 425.136 95.8199 425.129 95.8019C425.119 95.784 425.112 95.7661 425.105 95.7481C425.098 95.7337 425.091 95.7158 425.085 95.7014C425.078 95.6835 425.071 95.6655 425.067 95.6476C425.06 95.6297 425.054 95.6117 425.05 95.5938C425.047 95.5758 425.04 95.5579 425.036 95.5399C425.033 95.522 425.026 95.504 425.022 95.4861C425.019 95.4645 425.016 95.443 425.012 95.4215C425.012 95.4071 425.009 95.3892 425.005 95.3748C424.998 95.2994 424.998 95.224 425.005 95.1487C425.005 95.1343 425.009 95.1164 425.012 95.102C425.012 95.0805 425.019 95.0589 425.022 95.0374C425.026 95.0194 425.029 95.0015 425.036 94.9835C425.04 94.9656 425.043 94.9476 425.05 94.9297C425.057 94.9117 425.06 94.8938 425.067 94.8759C425.074 94.8579 425.078 94.84 425.085 94.822C425.091 94.8041 425.098 94.7897 425.105 94.7753C425.112 94.7574 425.123 94.7395 425.129 94.7215C425.136 94.7071 425.147 94.6928 425.154 94.6748C425.164 94.6569 425.171 94.6425 425.181 94.6246C425.192 94.6066 425.205 94.5923 425.216 94.5743C425.226 94.56 425.233 94.5456 425.243 94.5349C425.268 94.5061 425.292 94.4774 425.316 94.4523L432.047 87.4671C432.475 87.022 433.168 87.022 433.593 87.4671C434.018 87.9122 434.021 88.6337 433.593 89.0752L428.733 94.1292H442.342C442.947 94.1292 443.437 94.6389 443.437 95.2671C443.437 95.8953 442.947 96.405 442.342 96.405H428.733L433.593 101.459C434.021 101.904 434.021 102.626 433.593 103.067C433.379 103.29 433.099 103.401 432.82 103.401C432.54 103.401 432.261 103.29 432.047 103.067L425.316 96.0676C425.292 96.0424 425.268 96.0137 425.243 95.985C425.233 95.9707 425.223 95.9563 425.216 95.9455V95.9491Z" fill="white"/>
</svg>
