<svg width="632" height="173" viewBox="0 0 632 173" fill="none" xmlns="http://www.w3.org/2000/svg">
<rect y="0.916016" width="632" height="172" rx="24" fill="#0083FF"/>
<path d="M503.434 102.915C503.347 102.084 503.258 101.271 503.176 100.457C502.896 97.6883 502.617 94.9206 502.339 92.1519C502.069 89.4634 501.802 86.775 501.532 84.0865C501.288 81.6695 501.041 79.2534 500.797 76.8374C500.776 76.6297 500.753 76.421 500.748 76.2123C500.725 75.2676 501.341 74.6184 502.287 74.6165C504.751 74.6097 507.215 74.6136 509.68 74.6136C522.277 74.6136 534.874 74.6136 547.471 74.6136C548.857 74.6136 549.41 75.1999 549.273 76.5862C548.871 80.6677 548.451 84.7473 548.041 88.8288C547.736 91.8698 547.439 94.9109 547.133 97.952C546.968 99.5971 546.796 101.241 546.623 102.916H503.434V102.915ZM522.957 88.7515C522.945 89.9204 523.855 90.8497 525.016 90.8536C526.172 90.8584 527.12 89.9233 527.121 88.7785C527.121 87.6637 526.187 86.7141 525.067 86.6899C523.921 86.6648 522.968 87.5951 522.957 88.7505V88.7515Z" fill="white"/>
<path d="M549.677 99.5286C549.882 97.468 550.082 95.4625 550.284 93.458C550.502 91.2844 550.723 89.1108 550.943 86.9373C551.23 84.0952 551.517 81.2531 551.804 78.411C551.912 77.3407 552.049 76.2722 552.121 75.1999C552.246 73.3509 550.719 71.7657 548.808 71.7628C543.272 71.7531 537.734 71.7589 532.197 71.7589C521.914 71.7589 511.631 71.7589 501.347 71.7589C499.583 71.7589 498.183 72.8051 497.955 74.4445C497.842 75.2608 497.97 76.1196 498.048 76.9533C498.288 79.4969 498.554 82.0366 498.812 84.5782C499.103 87.4367 499.397 90.2952 499.686 93.1547C499.888 95.1582 500.084 97.1627 500.291 99.261C499.607 99.0745 498.985 98.9113 498.366 98.7354C495.53 97.9298 492.798 96.8633 490.181 95.5002C489.793 95.2973 489.683 95.0548 489.685 94.6385C489.701 90.5077 490.529 86.5306 491.955 82.6703C493.975 77.2025 496.931 72.3231 501.18 68.2822C503.96 65.6381 507.126 63.6307 510.848 62.5594C511.22 62.4521 511.449 62.5169 511.731 62.7787C514.79 65.6275 518.324 67.5596 522.479 68.2706C526.776 69.0067 530.842 68.2899 534.7 66.3095C536.536 65.3667 538.198 64.1688 539.686 62.741C539.938 62.5004 540.154 62.4502 540.485 62.5449C544.103 63.5805 547.235 65.4749 549.937 68.0474C556.116 73.9277 559.75 81.1797 561.222 89.5282C561.526 91.2564 561.535 93.0368 561.68 94.794C561.702 95.0606 561.648 95.2568 561.37 95.4046C557.755 97.3241 553.916 98.6234 549.935 99.5257C549.873 99.5401 549.804 99.5276 549.676 99.5276L549.677 99.5286Z" fill="white"/>
<path d="M525.661 103.902C533.328 103.902 540.995 103.902 548.663 103.902C550.382 103.902 551.157 104.953 550.653 106.602C550.219 108.023 548.949 108.983 547.435 108.993C545.196 109.006 542.957 108.997 540.718 108.997C528.54 108.997 516.363 108.997 504.185 108.997C502.3 108.997 500.948 107.926 500.628 106.184C500.379 104.828 501.137 103.904 502.513 103.904C508.102 103.901 513.692 103.903 519.281 103.903C521.407 103.903 523.533 103.903 525.66 103.903L525.661 103.902Z" fill="white"/>
<path d="M525.686 65.4256C535.198 65.4256 542.909 57.7192 542.909 48.2128C542.909 38.7064 535.198 31 525.686 31C516.173 31 508.462 38.7064 508.462 48.2128C508.462 57.7192 516.173 65.4256 525.686 65.4256Z" fill="white"/>
<path d="M467.066 132.2H477.578V135.392H470.474V145.76H477.77V149H467.066V132.2ZM469.946 138.968H477.098V142.136H469.946V138.968ZM480.727 136.28H483.799L483.943 138.704L483.559 138.248C483.879 137.768 484.263 137.368 484.711 137.048C485.175 136.712 485.679 136.464 486.223 136.304C486.767 136.128 487.359 136.04 487.999 136.04C489.087 136.04 490.007 136.264 490.759 136.712C491.511 137.16 492.071 137.808 492.439 138.656C492.807 139.504 492.991 140.512 492.991 141.68V149H489.775V142.016C489.775 141.04 489.543 140.296 489.079 139.784C488.631 139.272 487.975 139.016 487.111 139.016C486.471 139.016 485.911 139.144 485.431 139.4C484.967 139.64 484.607 139.992 484.351 140.456C484.095 140.904 483.967 141.44 483.967 142.064V149H480.727V136.28ZM502.238 153.128C500.542 153.128 499.126 152.752 497.99 152C496.854 151.248 496.19 150.16 495.998 148.736H499.214C499.342 149.248 499.67 149.632 500.198 149.888C500.726 150.144 501.342 150.272 502.046 150.272C503.102 150.272 503.95 150.016 504.59 149.504C505.246 149.008 505.574 148.288 505.574 147.344V144.944L506.606 142.4L505.67 139.904L505.934 136.28H508.79V147.032C508.79 148.312 508.502 149.408 507.926 150.32C507.366 151.248 506.59 151.944 505.598 152.408C504.606 152.888 503.486 153.128 502.238 153.128ZM501.71 148.256C500.558 148.256 499.51 147.992 498.566 147.464C497.638 146.936 496.902 146.216 496.358 145.304C495.814 144.376 495.542 143.328 495.542 142.16C495.542 141.008 495.806 139.968 496.334 139.04C496.878 138.096 497.622 137.36 498.566 136.832C499.51 136.288 500.558 136.016 501.71 136.016C502.846 136.016 503.886 136.288 504.83 136.832C505.774 137.376 506.51 138.12 507.038 139.064C507.582 139.992 507.854 141.024 507.854 142.16C507.854 143.296 507.582 144.328 507.038 145.256C506.51 146.168 505.774 146.896 504.83 147.44C503.886 147.984 502.846 148.256 501.71 148.256ZM502.214 145.472C502.87 145.472 503.454 145.336 503.966 145.064C504.494 144.792 504.894 144.408 505.166 143.912C505.454 143.416 505.598 142.848 505.598 142.208C505.598 141.568 505.454 141.008 505.166 140.528C504.894 140.032 504.494 139.648 503.966 139.376C503.454 139.104 502.87 138.968 502.214 138.968C501.542 138.968 500.942 139.112 500.414 139.4C499.902 139.672 499.502 140.056 499.214 140.552C498.942 141.032 498.806 141.584 498.806 142.208C498.806 142.848 498.942 143.416 499.214 143.912C499.502 144.392 499.902 144.776 500.414 145.064C500.942 145.336 501.542 145.472 502.214 145.472ZM512.391 136.28H515.631V149H512.391V136.28ZM514.023 135.032C513.431 135.032 512.943 134.848 512.559 134.48C512.191 134.096 512.007 133.632 512.007 133.088C512.007 132.528 512.191 132.064 512.559 131.696C512.943 131.312 513.431 131.12 514.023 131.12C514.599 131.12 515.071 131.312 515.439 131.696C515.823 132.064 516.015 132.528 516.015 133.088C516.015 133.632 515.823 134.096 515.439 134.48C515.071 134.848 514.599 135.032 514.023 135.032ZM519.235 136.28H522.307L522.451 138.704L522.067 138.248C522.387 137.768 522.771 137.368 523.219 137.048C523.683 136.712 524.187 136.464 524.731 136.304C525.275 136.128 525.867 136.04 526.507 136.04C527.595 136.04 528.515 136.264 529.267 136.712C530.019 137.16 530.579 137.808 530.947 138.656C531.315 139.504 531.499 140.512 531.499 141.68V149H528.283V142.016C528.283 141.04 528.051 140.296 527.587 139.784C527.139 139.272 526.483 139.016 525.619 139.016C524.979 139.016 524.419 139.144 523.939 139.4C523.475 139.64 523.115 139.992 522.859 140.456C522.603 140.904 522.475 141.44 522.475 142.064V149H519.235V136.28ZM540.722 149.264C539.442 149.264 538.298 148.984 537.29 148.424C536.282 147.848 535.49 147.056 534.914 146.048C534.338 145.04 534.05 143.904 534.05 142.64C534.05 141.376 534.338 140.24 534.914 139.232C535.49 138.224 536.282 137.44 537.29 136.88C538.298 136.304 539.442 136.016 540.722 136.016C542.114 136.016 543.346 136.352 544.418 137.024C545.49 137.68 546.282 138.592 546.794 139.76C547.306 140.928 547.474 142.24 547.298 143.696H544.154C544.314 142.832 544.282 142.04 544.058 141.32C543.834 140.584 543.426 140.008 542.834 139.592C542.258 139.176 541.554 138.968 540.722 138.968C540.034 138.968 539.418 139.12 538.874 139.424C538.346 139.728 537.938 140.16 537.65 140.72C537.362 141.264 537.218 141.904 537.218 142.64C537.218 143.376 537.362 144.024 537.65 144.584C537.938 145.144 538.346 145.576 538.874 145.88C539.418 146.168 540.034 146.312 540.722 146.312C541.314 146.312 541.858 146.2 542.354 145.976C542.85 145.752 543.234 145.448 543.506 145.064H547.01C546.562 146.344 545.77 147.368 544.634 148.136C543.514 148.888 542.21 149.264 540.722 149.264ZM535.922 141.44H546.698V143.696H535.922V141.44ZM555.792 149.264C554.512 149.264 553.368 148.984 552.36 148.424C551.352 147.848 550.56 147.056 549.984 146.048C549.408 145.04 549.12 143.904 549.12 142.64C549.12 141.376 549.408 140.24 549.984 139.232C550.56 138.224 551.352 137.44 552.36 136.88C553.368 136.304 554.512 136.016 555.792 136.016C557.184 136.016 558.416 136.352 559.488 137.024C560.56 137.68 561.352 138.592 561.864 139.76C562.376 140.928 562.544 142.24 562.368 143.696H559.224C559.384 142.832 559.352 142.04 559.128 141.32C558.904 140.584 558.496 140.008 557.904 139.592C557.328 139.176 556.624 138.968 555.792 138.968C555.104 138.968 554.488 139.12 553.944 139.424C553.416 139.728 553.008 140.16 552.72 140.72C552.432 141.264 552.288 141.904 552.288 142.64C552.288 143.376 552.432 144.024 552.72 144.584C553.008 145.144 553.416 145.576 553.944 145.88C554.488 146.168 555.104 146.312 555.792 146.312C556.384 146.312 556.928 146.2 557.424 145.976C557.92 145.752 558.304 145.448 558.576 145.064H562.08C561.632 146.344 560.84 147.368 559.704 148.136C558.584 148.888 557.28 149.264 555.792 149.264ZM550.992 141.44H561.768V143.696H550.992V141.44ZM565.078 136.28H568.102L568.294 139.016L567.694 138.512C568.11 137.728 568.662 137.128 569.35 136.712C570.054 136.296 570.854 136.088 571.75 136.088C572.198 136.088 572.694 136.152 573.238 136.28V139.256C572.694 139.144 572.206 139.088 571.774 139.088C571.086 139.088 570.478 139.224 569.95 139.496C569.422 139.768 569.014 140.16 568.726 140.672C568.454 141.184 568.318 141.792 568.318 142.496V149H565.078V136.28ZM579.952 149.24C578.88 149.24 577.936 149.072 577.12 148.736C576.304 148.384 575.664 147.888 575.2 147.248C574.736 146.608 574.488 145.856 574.456 144.992H577.696C577.728 145.472 577.944 145.848 578.344 146.12C578.76 146.376 579.312 146.504 580 146.504C580.672 146.504 581.2 146.4 581.584 146.192C581.984 145.968 582.184 145.656 582.184 145.256C582.184 145 582.104 144.792 581.944 144.632C581.8 144.472 581.536 144.336 581.152 144.224C580.768 144.112 580.224 144.008 579.52 143.912C578.368 143.752 577.432 143.512 576.712 143.192C576.008 142.856 575.48 142.432 575.128 141.92C574.792 141.392 574.624 140.752 574.624 140C574.624 139.184 574.848 138.48 575.296 137.888C575.744 137.28 576.368 136.816 577.168 136.496C577.968 136.176 578.888 136.016 579.928 136.016C580.904 136.016 581.776 136.184 582.544 136.52C583.328 136.856 583.944 137.336 584.392 137.96C584.84 138.568 585.088 139.264 585.136 140.048H581.992C581.928 139.632 581.712 139.312 581.344 139.088C580.992 138.848 580.496 138.728 579.856 138.728C579.216 138.728 578.72 138.832 578.368 139.04C578.032 139.248 577.864 139.536 577.864 139.904C577.864 140.176 577.952 140.4 578.128 140.576C578.304 140.752 578.584 140.896 578.968 141.008C579.368 141.12 579.912 141.224 580.6 141.32C582.2 141.528 583.408 141.936 584.224 142.544C585.04 143.152 585.448 144.032 585.448 145.184C585.448 146.016 585.216 146.744 584.752 147.368C584.288 147.976 583.64 148.44 582.808 148.76C581.976 149.08 581.024 149.24 579.952 149.24Z" fill="white"/>
<path d="M297.838 132.2H304.198C305.35 132.2 306.358 132.448 307.222 132.944C308.102 133.424 308.774 134.112 309.238 135.008C309.718 135.888 309.958 136.904 309.958 138.056C309.958 139.224 309.718 140.248 309.238 141.128C308.774 142.008 308.102 142.696 307.222 143.192C306.358 143.672 305.35 143.912 304.198 143.912H300.166V140.72H303.838C304.382 140.72 304.846 140.616 305.23 140.408C305.63 140.184 305.934 139.88 306.142 139.496C306.35 139.096 306.454 138.624 306.454 138.08C306.454 137.552 306.35 137.096 306.142 136.712C305.934 136.312 305.63 136.008 305.23 135.8C304.846 135.576 304.382 135.464 303.838 135.464H299.878L301.246 134.144V141.488V143.096V149H297.838V132.2ZM312.369 132.2H315.033L321.177 141.104H320.145L326.217 132.2H328.857V149H325.425V143.888V137.936L325.881 138.08L321.537 144.32H319.713L315.345 138.056L315.777 137.912V143.888V149H312.369V132.2Z" fill="white"/>
<circle cx="312.842" cy="48.4474" r="17.4474" fill="white"/>
<path d="M280.019 109C279.538 94.2274 288.157 77.6835 301.61 72.3621C301.703 72.9036 301.716 73.483 301.903 73.9992C304.711 81.712 307.542 89.4196 310.37 97.1247C310.463 97.3828 310.602 97.6232 310.881 97.8181C310.099 93.906 309.35 89.9864 308.51 86.0871C308.303 85.1179 308.447 84.4144 309.11 83.6832C310.296 82.3749 311.397 80.9883 312.601 79.556C311.508 78.2579 310.441 76.9193 309.295 75.6541C308.698 74.9962 308.647 74.4901 309.254 73.8221C310.215 72.7619 311.131 71.6586 312.032 70.5452C312.581 69.8671 313.038 69.781 313.625 70.5174C314.544 71.6687 315.51 72.7872 316.481 73.8955C316.982 74.4674 317.007 74.933 316.476 75.5301C315.328 76.8181 314.243 78.1643 313.076 79.551C314.286 80.9958 315.464 82.466 316.717 83.8653C317.293 84.5106 317.362 85.1306 317.192 85.9403C316.365 89.8877 315.591 93.8478 314.918 97.8383C318.07 89.3817 321.363 80.9807 324.247 72.443C336.971 77.4027 346.083 93.4759 345.671 109H280.019Z" fill="white"/>
<path d="M58.6491 149.264C57.0331 149.264 55.5771 148.896 54.2811 148.16C53.0011 147.408 51.9931 146.376 51.2571 145.064C50.5371 143.752 50.1771 142.264 50.1771 140.6C50.1771 138.936 50.5371 137.448 51.2571 136.136C51.9931 134.824 53.0011 133.8 54.2811 133.064C55.5771 132.312 57.0331 131.936 58.6491 131.936C60.0251 131.936 61.2891 132.208 62.4411 132.752C63.5931 133.296 64.5611 134.064 65.3451 135.056C66.1291 136.048 66.6571 137.2 66.9291 138.512H63.4011C63.0651 137.504 62.4811 136.712 61.6491 136.136C60.8171 135.56 59.8411 135.272 58.7211 135.272C57.7611 135.272 56.8971 135.504 56.1291 135.968C55.3611 136.416 54.7611 137.048 54.3291 137.864C53.9131 138.664 53.7051 139.576 53.7051 140.6C53.7051 141.624 53.9131 142.544 54.3291 143.36C54.7611 144.16 55.3611 144.792 56.1291 145.256C56.8971 145.704 57.7611 145.928 58.7211 145.928C59.8411 145.928 60.8251 145.624 61.6731 145.016C62.5371 144.408 63.1291 143.576 63.4491 142.52H66.9771C66.7051 143.864 66.1771 145.048 65.3931 146.072C64.6091 147.096 63.6331 147.888 62.4651 148.448C61.3131 148.992 60.0411 149.264 58.6491 149.264ZM74.3762 149.24C73.3362 149.24 72.4482 149.024 71.7122 148.592C70.9762 148.16 70.4082 147.52 70.0082 146.672C69.6242 145.824 69.4322 144.8 69.4322 143.6V136.28H72.6722V143.24C72.6722 144.232 72.8882 144.984 73.3202 145.496C73.7522 146.008 74.3922 146.264 75.2402 146.264C75.8642 146.264 76.4162 146.144 76.8962 145.904C77.3762 145.648 77.7362 145.288 77.9762 144.824C78.2322 144.36 78.3602 143.816 78.3602 143.192V136.28H81.6002V149H78.5042L78.4082 146.576L78.8162 147.032C78.4802 147.512 78.0802 147.92 77.6162 148.256C77.1682 148.576 76.6722 148.824 76.1282 149C75.5842 149.16 75.0002 149.24 74.3762 149.24ZM89.6072 149.24C88.5352 149.24 87.5912 149.072 86.7752 148.736C85.9592 148.384 85.3192 147.888 84.8552 147.248C84.3912 146.608 84.1432 145.856 84.1112 144.992H87.3512C87.3832 145.472 87.5992 145.848 87.9992 146.12C88.4152 146.376 88.9672 146.504 89.6552 146.504C90.3272 146.504 90.8552 146.4 91.2392 146.192C91.6392 145.968 91.8392 145.656 91.8392 145.256C91.8392 145 91.7592 144.792 91.5992 144.632C91.4552 144.472 91.1912 144.336 90.8072 144.224C90.4232 144.112 89.8792 144.008 89.1752 143.912C88.0232 143.752 87.0872 143.512 86.3672 143.192C85.6632 142.856 85.1352 142.432 84.7832 141.92C84.4472 141.392 84.2792 140.752 84.2792 140C84.2792 139.184 84.5032 138.48 84.9512 137.888C85.3992 137.28 86.0232 136.816 86.8232 136.496C87.6232 136.176 88.5432 136.016 89.5832 136.016C90.5592 136.016 91.4312 136.184 92.1992 136.52C92.9832 136.856 93.5992 137.336 94.0472 137.96C94.4952 138.568 94.7432 139.264 94.7912 140.048H91.6472C91.5832 139.632 91.3672 139.312 90.9992 139.088C90.6472 138.848 90.1512 138.728 89.5112 138.728C88.8712 138.728 88.3752 138.832 88.0232 139.04C87.6872 139.248 87.5192 139.536 87.5192 139.904C87.5192 140.176 87.6072 140.4 87.7832 140.576C87.9592 140.752 88.2392 140.896 88.6232 141.008C89.0232 141.12 89.5672 141.224 90.2552 141.32C91.8552 141.528 93.0632 141.936 93.8792 142.544C94.6952 143.152 95.1032 144.032 95.1032 145.184C95.1032 146.016 94.8712 146.744 94.4072 147.368C93.9432 147.976 93.2952 148.44 92.4632 148.76C91.6312 149.08 90.6792 149.24 89.6072 149.24ZM103.106 149.192C101.634 149.192 100.498 148.832 99.6977 148.112C98.9137 147.376 98.5217 146.264 98.5217 144.776V133.52L101.762 133.184V144.416C101.762 145.088 101.93 145.576 102.266 145.88C102.602 146.168 103.13 146.312 103.85 146.312C104.25 146.312 104.65 146.28 105.05 146.216V149C104.346 149.128 103.698 149.192 103.106 149.192ZM96.2177 136.28H104.882V139.016H96.2177V136.28ZM113.544 149.264C112.248 149.264 111.08 148.984 110.04 148.424C109.016 147.848 108.208 147.056 107.616 146.048C107.04 145.04 106.752 143.904 106.752 142.64C106.752 141.376 107.04 140.24 107.616 139.232C108.208 138.224 109.016 137.44 110.04 136.88C111.08 136.304 112.248 136.016 113.544 136.016C114.84 136.016 116 136.304 117.024 136.88C118.064 137.44 118.872 138.224 119.448 139.232C120.04 140.24 120.336 141.376 120.336 142.64C120.336 143.904 120.04 145.04 119.448 146.048C118.872 147.056 118.064 147.848 117.024 148.424C116 148.984 114.84 149.264 113.544 149.264ZM113.544 146.24C114.216 146.24 114.816 146.088 115.344 145.784C115.888 145.464 116.304 145.032 116.592 144.488C116.896 143.944 117.048 143.328 117.048 142.64C117.048 141.952 116.896 141.336 116.592 140.792C116.304 140.248 115.888 139.824 115.344 139.52C114.816 139.2 114.216 139.04 113.544 139.04C112.872 139.04 112.264 139.2 111.72 139.52C111.192 139.824 110.776 140.248 110.472 140.792C110.184 141.336 110.04 141.952 110.04 142.64C110.04 143.328 110.184 143.944 110.472 144.488C110.776 145.032 111.192 145.464 111.72 145.784C112.264 146.088 112.872 146.24 113.544 146.24ZM123.038 136.28H126.11L126.254 138.92L125.774 138.416C126.206 137.664 126.798 137.08 127.55 136.664C128.318 136.248 129.182 136.04 130.142 136.04C131.278 136.04 132.222 136.312 132.974 136.856C133.742 137.4 134.278 138.184 134.582 139.208H133.502C134.11 138.168 134.854 137.384 135.734 136.856C136.63 136.312 137.646 136.04 138.782 136.04C139.838 136.04 140.734 136.256 141.47 136.688C142.206 137.12 142.758 137.76 143.126 138.608C143.51 139.44 143.702 140.464 143.702 141.68V149H140.486V141.992C140.486 141.016 140.27 140.28 139.838 139.784C139.422 139.272 138.798 139.016 137.966 139.016C137.374 139.016 136.854 139.144 136.406 139.4C135.958 139.64 135.606 139.984 135.35 140.432C135.11 140.88 134.99 141.4 134.99 141.992V149H131.774V141.992C131.774 141.016 131.558 140.28 131.126 139.784C130.694 139.272 130.07 139.016 129.254 139.016C128.646 139.016 128.118 139.144 127.67 139.4C127.238 139.64 126.894 139.984 126.638 140.432C126.398 140.88 126.278 141.4 126.278 141.992V149H123.038V136.28ZM152.916 149.264C151.636 149.264 150.492 148.984 149.484 148.424C148.476 147.848 147.684 147.056 147.108 146.048C146.532 145.04 146.244 143.904 146.244 142.64C146.244 141.376 146.532 140.24 147.108 139.232C147.684 138.224 148.476 137.44 149.484 136.88C150.492 136.304 151.636 136.016 152.916 136.016C154.308 136.016 155.54 136.352 156.612 137.024C157.684 137.68 158.476 138.592 158.988 139.76C159.5 140.928 159.668 142.24 159.492 143.696H156.348C156.508 142.832 156.476 142.04 156.252 141.32C156.028 140.584 155.62 140.008 155.028 139.592C154.452 139.176 153.748 138.968 152.916 138.968C152.228 138.968 151.612 139.12 151.068 139.424C150.54 139.728 150.132 140.16 149.844 140.72C149.556 141.264 149.412 141.904 149.412 142.64C149.412 143.376 149.556 144.024 149.844 144.584C150.132 145.144 150.54 145.576 151.068 145.88C151.612 146.168 152.228 146.312 152.916 146.312C153.508 146.312 154.052 146.2 154.548 145.976C155.044 145.752 155.428 145.448 155.7 145.064H159.204C158.756 146.344 157.964 147.368 156.828 148.136C155.708 148.888 154.404 149.264 152.916 149.264ZM148.116 141.44H158.892V143.696H148.116V141.44ZM162.202 136.28H165.226L165.418 139.016L164.818 138.512C165.234 137.728 165.786 137.128 166.474 136.712C167.178 136.296 167.978 136.088 168.874 136.088C169.322 136.088 169.818 136.152 170.362 136.28V139.256C169.818 139.144 169.33 139.088 168.898 139.088C168.21 139.088 167.602 139.224 167.074 139.496C166.546 139.768 166.138 140.16 165.85 140.672C165.578 141.184 165.442 141.792 165.442 142.496V149H162.202V136.28Z" fill="white"/>
<path d="M132.995 109H66C66.2645 106.52 66.3878 104.077 66.8012 101.68C68.2547 93.2998 71.8268 85.8742 78.1724 79.8436C84.6901 73.6481 92.5071 70.4348 101.796 71.0819C109.186 71.5986 115.429 74.6348 120.671 79.5582C127.597 86.0611 131.284 94.1068 132.591 103.22C132.823 104.839 132.869 106.485 132.992 108.119C133.01 108.36 132.992 108.604 132.992 108.998L132.995 109Z" fill="white"/>
<circle cx="100" cy="48" r="17" fill="white"/>
<circle cx="416" cy="93" r="24" fill="#0042A5"/>
<path d="M431.429 89.8158C431.429 89.8158 431.453 89.7835 431.464 89.7656C431.474 89.7476 431.484 89.7333 431.491 89.7153C431.498 89.701 431.508 89.6866 431.515 89.6686C431.526 89.6507 431.533 89.6328 431.54 89.6148C431.546 89.6004 431.553 89.5825 431.56 89.5681C431.567 89.5502 431.574 89.5322 431.578 89.5143C431.584 89.4963 431.591 89.4784 431.595 89.4605C431.598 89.4425 431.605 89.4246 431.609 89.4066C431.612 89.3887 431.619 89.3707 431.622 89.3528C431.626 89.3312 431.629 89.3097 431.633 89.2882C431.633 89.2738 431.636 89.2559 431.64 89.2415C431.647 89.1661 431.647 89.0907 431.64 89.0154C431.64 89.001 431.636 88.9831 431.633 88.9687C431.633 88.9472 431.626 88.9256 431.622 88.9041C431.619 88.8861 431.615 88.8682 431.609 88.8502C431.605 88.8323 431.602 88.8143 431.595 88.7964C431.588 88.7784 431.584 88.7605 431.578 88.7426C431.571 88.7246 431.567 88.7067 431.56 88.6887C431.553 88.6708 431.546 88.6564 431.54 88.642C431.533 88.6241 431.522 88.6062 431.515 88.5882C431.508 88.5738 431.498 88.5595 431.491 88.5415C431.481 88.5236 431.474 88.5092 431.464 88.4913C431.453 88.4733 431.439 88.459 431.429 88.441C431.419 88.4267 431.412 88.4123 431.401 88.4016C431.377 88.3728 431.353 88.3441 431.329 88.319L424.598 81.3338C424.17 80.8887 423.476 80.8887 423.052 81.3338C422.627 81.7789 422.624 82.5004 423.052 82.9419L427.912 87.9959H414.302C413.698 87.9959 413.208 88.5056 413.208 89.1338C413.208 89.762 413.698 90.2717 414.302 90.2717H427.912L423.052 95.3257C422.624 95.7708 422.624 96.4923 423.052 96.9338C423.266 97.1563 423.545 97.2676 423.825 97.2676C424.105 97.2676 424.384 97.1563 424.598 96.9338L431.329 89.9343C431.353 89.9091 431.377 89.8804 431.401 89.8517C431.412 89.8374 431.422 89.823 431.429 89.8122V89.8158Z" fill="white"/>
<path d="M400.216 97.9491C400.216 97.9491 400.192 97.9168 400.181 97.8989C400.171 97.8809 400.161 97.8666 400.154 97.8486C400.147 97.8343 400.136 97.8199 400.129 97.8019C400.119 97.784 400.112 97.7661 400.105 97.7481C400.098 97.7337 400.091 97.7158 400.085 97.7014C400.078 97.6835 400.071 97.6655 400.067 97.6476C400.06 97.6297 400.054 97.6117 400.05 97.5938C400.047 97.5758 400.04 97.5579 400.036 97.5399C400.033 97.522 400.026 97.504 400.022 97.4861C400.019 97.4645 400.016 97.443 400.012 97.4215C400.012 97.4071 400.009 97.3892 400.005 97.3748C399.998 97.2994 399.998 97.224 400.005 97.1487C400.005 97.1343 400.009 97.1164 400.012 97.102C400.012 97.0805 400.019 97.0589 400.022 97.0374C400.026 97.0194 400.029 97.0015 400.036 96.9835C400.04 96.9656 400.043 96.9476 400.05 96.9297C400.057 96.9117 400.06 96.8938 400.067 96.8759C400.074 96.8579 400.078 96.84 400.085 96.822C400.091 96.8041 400.098 96.7897 400.105 96.7753C400.112 96.7574 400.123 96.7395 400.129 96.7215C400.136 96.7071 400.147 96.6928 400.154 96.6748C400.164 96.6569 400.171 96.6425 400.181 96.6246C400.192 96.6066 400.205 96.5923 400.216 96.5743C400.226 96.56 400.233 96.5456 400.243 96.5349C400.268 96.5061 400.292 96.4774 400.316 96.4523L407.047 89.4671C407.475 89.022 408.168 89.022 408.593 89.4671C409.018 89.9122 409.021 90.6337 408.593 91.0752L403.733 96.1292H417.342C417.947 96.1292 418.437 96.6389 418.437 97.2671C418.437 97.8953 417.947 98.405 417.342 98.405H403.733L408.593 103.459C409.021 103.904 409.021 104.626 408.593 105.067C408.379 105.29 408.099 105.401 407.82 105.401C407.54 105.401 407.261 105.29 407.047 105.067L400.316 98.0676C400.292 98.0424 400.268 98.0137 400.243 97.985C400.233 97.9707 400.223 97.9563 400.216 97.9455V97.9491Z" fill="white"/>
<circle cx="217" cy="93" r="24" fill="#0042A5"/>
<path d="M232.429 89.8158C232.429 89.8158 232.453 89.7835 232.464 89.7656C232.474 89.7476 232.484 89.7333 232.491 89.7153C232.498 89.701 232.508 89.6866 232.515 89.6686C232.526 89.6507 232.533 89.6328 232.54 89.6148C232.546 89.6004 232.553 89.5825 232.56 89.5681C232.567 89.5502 232.574 89.5322 232.578 89.5143C232.584 89.4963 232.591 89.4784 232.595 89.4605C232.598 89.4425 232.605 89.4246 232.609 89.4066C232.612 89.3887 232.619 89.3707 232.622 89.3528C232.626 89.3312 232.629 89.3097 232.633 89.2882C232.633 89.2738 232.636 89.2559 232.64 89.2415C232.647 89.1661 232.647 89.0907 232.64 89.0154C232.64 89.001 232.636 88.9831 232.633 88.9687C232.633 88.9472 232.626 88.9256 232.622 88.9041C232.619 88.8861 232.615 88.8682 232.609 88.8502C232.605 88.8323 232.602 88.8143 232.595 88.7964C232.588 88.7784 232.584 88.7605 232.578 88.7426C232.571 88.7246 232.567 88.7067 232.56 88.6887C232.553 88.6708 232.546 88.6564 232.54 88.642C232.533 88.6241 232.522 88.6062 232.515 88.5882C232.508 88.5738 232.498 88.5595 232.491 88.5415C232.481 88.5236 232.474 88.5092 232.464 88.4913C232.453 88.4733 232.439 88.459 232.429 88.441C232.419 88.4267 232.412 88.4123 232.401 88.4016C232.377 88.3728 232.353 88.3441 232.329 88.319L225.598 81.3338C225.17 80.8887 224.476 80.8887 224.052 81.3338C223.627 81.7789 223.624 82.5004 224.052 82.9419L228.912 87.9959H215.302C214.698 87.9959 214.208 88.5056 214.208 89.1338C214.208 89.762 214.698 90.2717 215.302 90.2717H228.912L224.052 95.3257C223.624 95.7708 223.624 96.4923 224.052 96.9338C224.266 97.1563 224.545 97.2676 224.825 97.2676C225.105 97.2676 225.384 97.1563 225.598 96.9338L232.329 89.9343C232.353 89.9091 232.377 89.8804 232.401 89.8517C232.412 89.8374 232.422 89.823 232.429 89.8122V89.8158Z" fill="white"/>
<path d="M201.216 97.9491C201.216 97.9491 201.192 97.9168 201.181 97.8989C201.171 97.8809 201.161 97.8666 201.154 97.8486C201.147 97.8343 201.136 97.8199 201.129 97.8019C201.119 97.784 201.112 97.7661 201.105 97.7481C201.098 97.7337 201.091 97.7158 201.085 97.7014C201.078 97.6835 201.071 97.6655 201.067 97.6476C201.06 97.6297 201.054 97.6117 201.05 97.5938C201.047 97.5758 201.04 97.5579 201.036 97.5399C201.033 97.522 201.026 97.504 201.022 97.4861C201.019 97.4645 201.016 97.443 201.012 97.4215C201.012 97.4071 201.009 97.3892 201.005 97.3748C200.998 97.2994 200.998 97.224 201.005 97.1487C201.005 97.1343 201.009 97.1164 201.012 97.102C201.012 97.0805 201.019 97.0589 201.022 97.0374C201.026 97.0194 201.029 97.0015 201.036 96.9835C201.04 96.9656 201.043 96.9476 201.05 96.9297C201.057 96.9117 201.06 96.8938 201.067 96.8759C201.074 96.8579 201.078 96.84 201.085 96.822C201.091 96.8041 201.098 96.7897 201.105 96.7753C201.112 96.7574 201.123 96.7395 201.129 96.7215C201.136 96.7071 201.147 96.6928 201.154 96.6748C201.164 96.6569 201.171 96.6425 201.181 96.6246C201.192 96.6066 201.205 96.5923 201.216 96.5743C201.226 96.56 201.233 96.5456 201.243 96.5349C201.268 96.5061 201.292 96.4774 201.316 96.4523L208.047 89.4671C208.475 89.022 209.168 89.022 209.593 89.4671C210.018 89.9122 210.021 90.6337 209.593 91.0752L204.733 96.1292H218.342C218.947 96.1292 219.437 96.6389 219.437 97.2671C219.437 97.8953 218.947 98.405 218.342 98.405H204.733L209.593 103.459C210.021 103.904 210.021 104.626 209.593 105.067C209.379 105.29 209.099 105.401 208.82 105.401C208.54 105.401 208.261 105.29 208.047 105.067L201.316 98.0676C201.292 98.0424 201.268 98.0137 201.243 97.985C201.233 97.9707 201.223 97.9563 201.216 97.9455V97.9491Z" fill="white"/>
</svg>
