<svg width="40" height="33" viewBox="0 0 40 33" fill="none" xmlns="http://www.w3.org/2000/svg">
<path d="M0.462025 17.5557C0.462025 17.5557 0.410276 17.4913 0.3881 17.4556C0.365923 17.4199 0.343745 17.3913 0.32896 17.3555C0.314176 17.3269 0.292002 17.2983 0.277218 17.2626C0.255041 17.2269 0.240256 17.1911 0.225471 17.1554C0.210687 17.1268 0.195906 17.091 0.181122 17.0625C0.166338 17.0267 0.151546 16.991 0.144154 16.9552C0.129369 16.9195 0.114589 16.8838 0.107197 16.848C0.0998046 16.8123 0.0850251 16.7765 0.0776329 16.7408C0.0702407 16.705 0.0554612 16.6693 0.048069 16.6336C0.0406768 16.5907 0.0332825 16.5478 0.0258904 16.5049C0.0258904 16.4763 0.0184929 16.4406 0.0111008 16.412C-0.00368355 16.2619 -0.00368355 16.1118 0.0111008 15.9616C0.0111008 15.9331 0.0184982 15.8973 0.0258904 15.8687C0.0258904 15.8258 0.0406768 15.7829 0.048069 15.7401C0.0554612 15.7043 0.0628486 15.6686 0.0776329 15.6328C0.0850251 15.5971 0.0924125 15.5614 0.107197 15.5256C0.121981 15.4899 0.129369 15.4541 0.144154 15.4184C0.158938 15.3827 0.166338 15.3469 0.181122 15.3112C0.195906 15.2754 0.210687 15.2468 0.225471 15.2183C0.240256 15.1825 0.262434 15.1468 0.277218 15.111C0.292002 15.0824 0.314176 15.0538 0.32896 15.0181C0.351137 14.9824 0.365923 14.9538 0.3881 14.918C0.410276 14.8823 0.439848 14.8537 0.462025 14.818C0.484201 14.7894 0.498987 14.7608 0.521164 14.7393C0.572909 14.6821 0.62465 14.625 0.676395 14.5749L15.0911 0.664771C16.0077 -0.22159 17.4936 -0.22159 18.4028 0.664771C19.312 1.55113 19.3194 2.98789 18.4028 3.86711L7.99463 13.9316H37.1406C38.4342 13.9316 39.4839 14.9466 39.4839 16.1975C39.4839 17.4484 38.4342 18.4635 37.1406 18.4635H7.99463L18.4028 28.528C19.3194 29.4143 19.3194 30.8511 18.4028 31.7303C17.9445 32.1735 17.3457 32.3951 16.7469 32.3951C16.1482 32.3951 15.5494 32.1735 15.0911 31.7303L0.676395 17.7916C0.62465 17.7415 0.572909 17.6843 0.521164 17.6271C0.498987 17.5986 0.476809 17.57 0.462025 17.5485V17.5557Z" fill="#0030C0"/>
</svg>
