<svg width="16" height="16" viewBox="0 0 16 16" fill="none" xmlns="http://www.w3.org/2000/svg">
<circle cx="8" cy="8" r="8" fill="url(#paint0_linear_215_1802)"/>
<rect width="10" height="10" transform="translate(3 3)" fill="url(#paint1_linear_215_1802)"/>
<path d="M5.0995 4.25C5.16791 4.25 5.23612 4.25 5.30453 4.25C5.52538 4.2876 5.67432 4.43387 5.8243 4.58487C6.52896 5.29385 7.23732 5.99892 7.9426 6.70708C7.98739 6.75207 8.00834 6.75351 8.05395 6.7077C8.75225 6.00611 9.45362 5.30802 10.1517 4.60624C10.3048 4.45236 10.4541 4.29828 10.677 4.25C10.7405 4.25 10.804 4.25 10.8673 4.25C10.9786 4.28082 11.0922 4.30896 11.181 4.38806C11.3322 4.52283 11.4824 4.66047 11.6087 4.81825C11.8209 5.08348 11.786 5.44567 11.5331 5.69898C10.7849 6.44822 10.0363 7.19685 9.28598 7.94404C9.24305 7.98698 9.24243 8.00691 9.28578 8.05005C10.0274 8.78861 10.767 9.52902 11.507 10.269C11.5329 10.2949 11.559 10.3208 11.583 10.3483C11.7856 10.5803 11.8053 10.9213 11.6169 11.1637C11.4869 11.3312 11.3357 11.4832 11.1682 11.613C10.9001 11.8211 10.5474 11.7821 10.2941 11.5292C9.54669 10.7826 8.7997 10.0358 8.05416 9.28742C8.00978 9.24284 7.98883 9.24038 7.9426 9.2866C7.20774 10.025 6.47062 10.7608 5.7339 11.4974C5.70637 11.5249 5.67905 11.553 5.64988 11.5787C5.42595 11.7768 5.0806 11.8158 4.85461 11.6284C4.6163 11.4306 4.35231 11.2422 4.26192 10.916C4.26109 10.9131 4.25411 10.9118 4.25 10.9098C4.25 10.8268 4.25 10.744 4.25 10.661C4.25473 10.6563 4.26274 10.652 4.26376 10.6466C4.29581 10.4897 4.38662 10.3701 4.49776 10.2594C5.2355 9.5243 5.97057 8.78676 6.70893 8.05231C6.75659 8.00506 6.75022 7.9841 6.70687 7.94096C5.99358 7.23013 5.28234 6.51705 4.56885 5.80601C4.43675 5.67453 4.30526 5.5449 4.26233 5.35384C4.26171 5.35096 4.25452 5.34973 4.25041 5.34767C4.25041 5.25995 4.25041 5.17202 4.25041 5.0843C4.28575 5.04835 4.28493 4.9974 4.30424 4.95446C4.37922 4.78887 4.78928 4.37902 4.95466 4.30403C5.00192 4.28267 5.05656 4.28246 5.0995 4.25Z" fill="white"/>
<defs>
<linearGradient id="paint0_linear_215_1802" x1="8" y1="0" x2="8" y2="16" gradientUnits="userSpaceOnUse">
<stop stop-color="#EA5D5D"/>
<stop offset="1" stop-color="#DD5A5A"/>
</linearGradient>
<linearGradient id="paint1_linear_215_1802" x1="5" y1="0" x2="5" y2="10" gradientUnits="userSpaceOnUse">
<stop stop-color="#EA5D5D"/>
<stop offset="1" stop-color="#DD5A5A"/>
</linearGradient>
</defs>
</svg>
