<svg width="16" height="16" viewBox="0 0 16 16" fill="none" xmlns="http://www.w3.org/2000/svg">
<circle cx="8" cy="8" r="8" fill="url(#paint0_linear_215_638)"/>
<rect width="10" height="10" transform="translate(3 3)" fill="url(#paint1_linear_215_638)"/>
<path d="M12.0462 4.67941L11.8119 4.47813C11.423 4.14392 10.8386 4.18118 10.4952 4.56193L6.57578 8.9078L5.39268 7.88884C5.00419 7.55426 4.41969 7.59077 4.07592 7.97111L3.86876 8.20033C3.70077 8.38611 3.61354 8.63118 3.62621 8.88152C3.639 9.1317 3.75062 9.36659 3.93668 9.53451L6.10535 11.5204C6.29312 11.6968 6.54475 11.7887 6.80195 11.7751C7.05915 11.7615 7.29962 11.6433 7.46763 11.4481L12.1464 6.01163C12.3099 5.82169 12.3912 5.57462 12.3723 5.32481C12.3535 5.07481 12.2362 4.8427 12.0462 4.67941Z" fill="white"/>
<defs>
<linearGradient id="paint0_linear_215_638" x1="8" y1="0" x2="8" y2="16" gradientUnits="userSpaceOnUse">
<stop stop-color="#56AA2E"/>
<stop offset="1" stop-color="#8DCD52"/>
<stop offset="1" stop-color="#8DCD52"/>
</linearGradient>
<linearGradient id="paint1_linear_215_638" x1="5" y1="0" x2="5" y2="10" gradientUnits="userSpaceOnUse">
<stop stop-color="#56AA2E"/>
<stop offset="1" stop-color="#8DCD52"/>
<stop offset="1" stop-color="#8DCD52"/>
</linearGradient>
</defs>
</svg>
