<svg width="225" height="172" viewBox="0 0 225 172" fill="none" xmlns="http://www.w3.org/2000/svg">
<path d="M115.617 17.6663C91.228 21.8628 83.0786 44.9137 82.0674 55.9146C93.0126 50.549 99.9128 47.7613 109.163 45.9928C118.413 44.2243 128.109 46.3525 140.928 41.6464C167.636 31.8445 164.603 5.10671 161.658 0.520508C154.579 10.8619 146.103 12.4206 115.617 17.6363V17.6663Z" fill="white"/>
<path d="M115.617 17.6663C91.228 21.8628 83.0786 44.9137 82.0674 55.9146C93.0126 50.549 99.9128 47.7613 109.163 45.9928C118.413 44.2243 128.109 46.3525 140.928 41.6464C167.636 31.8445 164.603 5.10671 161.658 0.520508C154.579 10.8619 146.103 12.4206 115.617 17.6363V17.6663Z" fill="url(#paint0_linear_1265_6858)"/>
<path d="M115.617 17.6663C91.228 21.8628 83.0786 44.9137 82.0674 55.9146C88.9676 45.813 98.8421 34.8421 108.092 33.0735C117.342 31.305 123.171 32.8037 135.782 27.618C155.918 19.3449 164.573 5.13668 161.658 0.520508C154.579 10.8619 146.103 12.4206 115.617 17.6363V17.6663Z" fill="url(#paint1_linear_1265_6858)"/>
<path d="M113.327 53.6065C66.6013 59.2118 75.4348 105.374 74.0369 120.361C83.1381 107.832 81.651 95.6916 99.318 86.0096C112.405 78.8456 122.725 82.8023 139.262 78.1561C173.436 68.5341 170.313 38.6489 166.685 30.046C156.364 42.156 156.81 52.0478 113.327 53.6065Z" fill="url(#paint2_linear_1265_6858)"/>
<path d="M113.356 53.6065C81.3833 57.0836 76.446 80.4043 74.9589 92.7241C76.6245 91.1653 78.5578 81.6932 99.4072 79.565C106.694 78.8156 127.663 82.0229 139.292 78.1262C173.466 68.5041 170.343 38.6189 166.714 30.0161C156.394 42.126 156.84 52.0178 113.356 53.5765V53.6065Z" fill="url(#paint3_linear_1265_6858)"/>
<path d="M113.356 53.6065C81.3833 57.0836 76.446 80.4043 74.9589 92.7241C79.8069 85.7998 80.0746 81.0337 98.8421 72.4609C108.062 67.8747 124.004 70.0029 135.604 66.1061C169.778 56.4841 170.343 38.5889 166.714 30.0161C156.394 42.126 156.84 52.0178 113.356 53.5765V53.6065Z" fill="url(#paint4_linear_1265_6858)"/>
<path d="M76.8327 82.8023C92.6557 82.0229 106.367 70.4525 110.055 54.0861C89.0271 57.1436 80.0151 70.6024 76.8327 82.8023Z" fill="url(#paint5_linear_1265_6858)"/>
<path d="M77.8439 41.4666C80.491 30.076 84.3575 24.5906 93.8454 16.9169C81.0859 5.25658 64.5788 9.24328 54.9423 16.3474C63.3296 20.454 71.4196 25.6996 77.8439 41.4366V41.4666Z" fill="url(#paint6_linear_1265_6858)"/>
<path d="M82.0674 55.9745C84.0898 37.0302 96.314 25.5498 102.471 22.822C107.616 29.1168 110.709 37.1202 110.799 45.723C101.608 46.7722 87.7482 53.037 82.0674 55.9745Z" fill="url(#paint7_linear_1265_6858)"/>
<path d="M7.77428 145.877V154.355H22.5841V160.301H7.77428V171.984H0.361328V139.932H24.5535V145.877H7.77428Z" fill="black"/>
<path d="M29.5808 171.968V139.916H36.9937V171.968H29.5808Z" fill="black"/>
<path d="M65.797 161.711C65.797 161.711 65.845 161.695 65.861 161.679C67.9264 160.766 69.5274 159.452 70.6642 157.737C71.7849 156.006 72.3453 153.939 72.3453 151.551C72.3453 149.163 71.7849 147.063 70.6642 145.332C69.5274 143.586 67.9264 142.255 65.861 141.342C63.7796 140.396 61.314 139.932 58.448 139.932H44.5828V171.984H51.9957V163.058H58.8003L64.9484 171.984H72.9537L65.797 161.711ZM63.1552 155.685C62.0344 156.647 60.3213 157.144 58.0318 157.144H51.9957V145.973H58.0318C60.3213 145.973 62.0344 146.454 63.1552 147.432C64.292 148.409 64.8523 149.788 64.8523 151.551C64.8523 153.314 64.292 154.676 63.1552 155.685Z" fill="black"/>
<path d="M103.022 166.022V171.984H78.2212V139.932H102.429V145.877H85.5862V152.833H100.46V158.602H85.5862V166.022H103.022Z" fill="black"/>
<path d="M136.948 158.522C136.1 157.24 134.899 156.278 133.346 155.637C133.042 155.509 132.738 155.397 132.417 155.301C133.682 154.66 134.691 153.778 135.443 152.656C136.276 151.406 136.676 149.932 136.676 148.265C136.676 145.749 135.652 143.746 133.618 142.223C131.601 140.685 128.591 139.932 124.556 139.932H108.914V171.984H125.469C129.68 171.984 132.866 171.215 135.027 169.692C137.205 168.138 138.277 165.974 138.277 163.234C138.277 161.375 137.845 159.804 136.948 158.522ZM116.279 145.509H123.644C125.437 145.509 126.814 145.829 127.758 146.47C128.735 147.079 129.231 148.009 129.231 149.275C129.231 150.541 128.735 151.519 127.758 152.16C126.814 152.769 125.437 153.073 123.644 153.073H116.279V145.509ZM129.263 165.477C128.287 166.086 126.846 166.391 124.924 166.391H116.279V158.474H124.924C126.846 158.474 128.287 158.811 129.263 159.484C130.272 160.125 130.784 161.118 130.784 162.449C130.784 163.779 130.272 164.836 129.263 165.477Z" fill="black"/>
<path d="M143.897 171.968V139.916H151.31V171.968H143.897Z" fill="black"/>
<path d="M180.113 161.711C180.113 161.711 180.161 161.695 180.177 161.679C182.243 160.766 183.844 159.452 184.98 157.737C186.101 156.006 186.678 153.939 186.678 151.551C186.678 149.163 186.101 147.063 184.98 145.332C183.844 143.586 182.243 142.255 180.177 141.342C178.096 140.396 175.63 139.932 172.764 139.932H158.899V171.984H166.312V163.058H173.116L179.265 171.984H187.27L180.113 161.711ZM172.348 157.144H166.312V145.973H172.348C174.637 145.973 176.351 146.454 177.471 147.432C178.608 148.409 179.169 149.788 179.169 151.551C179.169 153.314 178.608 154.676 177.471 155.685C176.351 156.647 174.637 157.144 172.348 157.144Z" fill="black"/>
<path d="M192.537 139.916H207.091C210.565 139.916 213.639 140.589 216.281 141.935C218.939 143.249 221.004 145.092 222.509 147.48C223.998 149.868 224.751 152.688 224.751 155.958C224.751 159.227 223.998 162.016 222.509 164.436C221.02 166.824 218.939 168.683 216.281 170.029C213.623 171.343 210.565 172 207.091 172H192.537V139.916ZM199.95 165.878H206.723C208.852 165.878 210.71 165.478 212.263 164.692C213.848 163.875 215.064 162.705 215.929 161.215C216.81 159.724 217.258 157.961 217.258 155.942C217.258 153.923 216.81 152.144 215.929 150.669C215.08 149.179 213.864 148.025 212.263 147.24C210.71 146.422 208.868 146.006 206.723 146.006H199.95V165.878Z" fill="black"/>
<defs>
<linearGradient id="paint0_linear_1265_6858" x1="170.218" y1="8.75631" x2="33.0213" y2="66.664" gradientUnits="userSpaceOnUse">
<stop stop-color="#F70000"/>
<stop offset="0.57" stop-color="#FF7A00"/>
</linearGradient>
<linearGradient id="paint1_linear_1265_6858" x1="116.197" y1="72.8918" x2="51.4438" y2="0.625527" gradientUnits="userSpaceOnUse">
<stop stop-color="#DB0000" stop-opacity="0.61"/>
<stop offset="0.55" stop-color="#FF922D"/>
<stop offset="0.98" stop-color="#FF1F00"/>
</linearGradient>
<linearGradient id="paint2_linear_1265_6858" x1="120.996" y1="32.3004" x2="66.0629" y2="129.289" gradientUnits="userSpaceOnUse">
<stop offset="0.22"/>
<stop offset="1" stop-color="#CE0000"/>
</linearGradient>
<linearGradient id="paint3_linear_1265_6858" x1="104.918" y1="27.731" x2="133.593" y2="92.3935" gradientUnits="userSpaceOnUse">
<stop stop-color="#FF0000"/>
<stop offset="1" stop-color="#FA6900"/>
</linearGradient>
<linearGradient id="paint4_linear_1265_6858" x1="78.5972" y1="76.2515" x2="136.902" y2="64.8234" gradientUnits="userSpaceOnUse">
<stop stop-color="#DF0000"/>
<stop offset="1" stop-color="#FF9900"/>
</linearGradient>
<linearGradient id="paint5_linear_1265_6858" x1="14.6615" y1="-165.23" x2="177.229" y2="85.7327" gradientUnits="userSpaceOnUse">
<stop stop-color="#FF2C2C"/>
<stop offset="1" stop-color="#FFA800"/>
</linearGradient>
<linearGradient id="paint6_linear_1265_6858" x1="57.0323" y1="5.71379" x2="212.643" y2="76.4942" gradientUnits="userSpaceOnUse">
<stop stop-color="#FF0000"/>
<stop offset="0.72" stop-color="#FF7B01"/>
</linearGradient>
<linearGradient id="paint7_linear_1265_6858" x1="76.7434" y1="5.64608" x2="108.461" y2="71.0685" gradientUnits="userSpaceOnUse">
<stop stop-color="#FF1201"/>
<stop offset="1" stop-color="#FF960E"/>
</linearGradient>
</defs>
</svg>
